<svg xmlns="http://www.w3.org/2000/svg" xmlns:xlink="http://www.w3.org/1999/xlink" viewBox="0 0 65.15 70"><defs><style>.cls-1{fill:#fbf6ea;}.cls-2{fill:url(#linear-gradient);}.cls-3{fill:#3f8daa;}.cls-4{fill:#c76e63;}</style><linearGradient id="linear-gradient" x1="33.97" y1="4.97" x2="33.97" y2="64.39" gradientUnits="userSpaceOnUse"><stop offset="0" stop-color="#3f8daa"/><stop offset="1" stop-color="#ce8175"/></linearGradient></defs><g id="Слой_2" data-name="Слой 2"><g id="low_panel"><path class="cls-1" d="M40.29,68.16a17.09,17.09,0,0,1-15.42,0L7.71,58.26A17.11,17.11,0,0,1,0,44.9V25.1A17.11,17.11,0,0,1,7.71,11.74l17.16-9.9a17.09,17.09,0,0,1,15.42,0l17.15,9.9A17.11,17.11,0,0,1,65.15,25.1V44.9a17.11,17.11,0,0,1-7.71,13.36Z"/><path class="cls-2" d="M59.94,35c-.1,2.41-.16,4.82-.31,7.23a17,17,0,0,1-.79,5,15,15,0,0,1-5.53,7.37,103.45,103.45,0,0,1-15.41,9,12.76,12.76,0,0,1-5.13,1.08,14.36,14.36,0,0,1-6.94-1.66,102.7,102.7,0,0,1-15.1-9.09A11.16,11.16,0,0,1,8.12,51a.77.77,0,0,1-.06-.66.79.79,0,0,1,.58-.28c1,0,2,0,2.95,0a1.09,1.09,0,0,1,.5.16c1.48,1.08,2.93,2.21,4.45,3.23a86.16,86.16,0,0,0,12.19,6.83,9.91,9.91,0,0,0,4.64.69c2-.09,3.69-1.05,5.41-1.9A85.28,85.28,0,0,0,52,51a9.57,9.57,0,0,0,3.84-6.75c.28-2.5.37-5,.43-7.54s0-4.71-.09-7.07a27.36,27.36,0,0,0-.47-4.88,10.48,10.48,0,0,0-4.29-6.37,97.46,97.46,0,0,0-15-8.78,9.75,9.75,0,0,0-4.18-.73,11.1,11.1,0,0,0-5.06,1.46A98.35,98.35,0,0,0,13,18.86a1.86,1.86,0,0,0-.48.4,1.61,1.61,0,0,1-1.5.55c-.76,0-1.52,0-2.27,0a.86.86,0,0,1-.66-.3.88.88,0,0,1,.13-.72A13.49,13.49,0,0,1,12,15.09,99.35,99.35,0,0,1,27.19,6.3a13.29,13.29,0,0,1,6.2-1,14.67,14.67,0,0,1,6,1.74A98.05,98.05,0,0,1,54.15,16a14.44,14.44,0,0,1,5.41,10.81c.1,2.11.22,4.23.32,6.34,0,.61,0,1.23,0,1.85Z"/><path class="cls-3" d="M19.46,29.36c-.07.51-.11,1.11-.23,1.7a2.47,2.47,0,0,1-2.08,2,6.14,6.14,0,0,1-2.63,0,2.41,2.41,0,0,1-1.95-1.86,7.89,7.89,0,0,1,0-3.71,2.34,2.34,0,0,1,2.07-2,10.13,10.13,0,0,1,2.58,0,2.45,2.45,0,0,1,2.12,2.24C19.38,28.26,19.4,28.76,19.46,29.36ZM14.29,29c0,.28,0,.61.05.93.05,1.43.4,1.76,1.85,1.7.69,0,1.07-.29,1.14-1a12.39,12.39,0,0,0,.05-2.51C17.29,27.22,17,27,16,27a3.33,3.33,0,0,0-.63,0,1,1,0,0,0-1,.86C14.36,28.21,14.34,28.58,14.29,29Z"/><path class="cls-3" d="M27.08,32.87a4.51,4.51,0,0,1-.95.23,19.11,19.11,0,0,1-2.83,0,2.58,2.58,0,0,1-2.3-2,6.79,6.79,0,0,1-.07-3.41,2.8,2.8,0,0,1,2.7-2.34,7.8,7.8,0,0,1,3,.24l.32.12c-.24.46-.45.92-.7,1.35-.05.08-.25.11-.38.1a11.57,11.57,0,0,0-1.66-.11c-.94.07-1.32.46-1.39,1.41a9.11,9.11,0,0,0,.08,1.88,1.19,1.19,0,0,0,1.28,1.14c.76,0,1.52-.08,2.39-.13Z"/><path class="cls-3" d="M11.68,25.68c-.21.49-.38,1-.6,1.41a.47.47,0,0,1-.37.17c-.67,0-1.35,0-2,0-.37,0-.51.09-.51.49,0,1.57,0,3.14,0,4.71V33C7.6,33,7,33,6.49,33c-.07,0-.18-.24-.19-.37,0-1.08,0-2.16,0-3.24s0-2.25,0-3.37c0-.21,0-.38.31-.38h4.88A.86.86,0,0,1,11.68,25.68Z"/><path class="cls-4" d="M7,46.81c.41-.78.76-1.48,1.15-2.15a1,1,0,0,0,.06-.95c-.8-2.16-1.59-4.33-2.37-6.49-.06-.17-.1-.34-.17-.57.63,0,1.2,0,1.77,0,.11,0,.24.21.29.34.52,1.39,1,2.78,1.53,4.17l.18.47c.09-.18.16-.29.21-.42.45-1.39.91-2.78,1.36-4.18.08-.27.17-.42.5-.4.49,0,1,0,1.55,0-.12.39-.21.73-.32,1.07a71.54,71.54,0,0,1-3.36,8.62.68.68,0,0,1-.77.46C8.12,46.78,7.61,46.81,7,46.81Z"/><path class="cls-4" d="M29,36.65c.63,0,1.19,0,1.75,0,.12,0,.27.2.33.34.52,1.39,1,2.78,1.53,4.17,0,.13.1.25.2.49.1-.25.18-.4.24-.56.45-1.37.9-2.73,1.33-4.11.08-.27.18-.36.45-.35.5,0,1,0,1.59,0-.17.56-.31,1.08-.48,1.59a77,77,0,0,1-3.23,8.14.61.61,0,0,1-.69.42c-.52,0-1,0-1.62,0,.09-.21.13-.35.2-.48.31-.6.61-1.2.95-1.78a.78.78,0,0,0,0-.74c-.83-2.24-1.64-4.49-2.46-6.74C29.11,37,29.08,36.84,29,36.65Z"/><path class="cls-4" d="M50.72,40.18c0,1,0,2,0,3.07a.55.55,0,0,1-.25.44,8.64,8.64,0,0,1-4.12.51,2.28,2.28,0,0,1-2.12-2.35c-.08-1.62,0-3.25-.06-4.88,0-.27.12-.33.36-.32s.76,0,1.14,0,.39.1.39.39c0,1.11,0,2.21,0,3.32,0,.37,0,.73.06,1.09a1.08,1.08,0,0,0,1.19,1.09,7.67,7.67,0,0,0,1.17-.08c.32,0,.34-.25.34-.51,0-1.6,0-3.2,0-4.8,0-.38.09-.54.49-.5a4.49,4.49,0,0,0,1,0c.36,0,.49.09.48.47C50.7,38.13,50.72,39.16,50.72,40.18Z"/><path class="cls-4" d="M20.83,44.05a33.64,33.64,0,0,0,1.3-7.37l.37,0c1.59,0,3.18,0,4.76,0,.34,0,.43.12.43.44,0,2.17,0,4.35,0,6.52,0,.35-.1.49-.45.46a9.37,9.37,0,0,0-1.06,0c-.32,0-.43-.1-.43-.44,0-1.6,0-3.2,0-4.8v-.49H24c-.09.64-.15,1.3-.28,1.93-.23,1.17-.49,2.32-.76,3.48,0,.11-.15.29-.23.29C22.09,44.06,21.49,44.05,20.83,44.05Z"/><path class="cls-4" d="M19.84,36.78c-.26.49-.46.94-.71,1.35-.05.09-.25.12-.38.12-.56,0-1.11-.13-1.66-.12a1.22,1.22,0,0,0-1.36,1.2,7.34,7.34,0,0,0,0,1.93c.14,1,.62,1.37,1.64,1.35a17.54,17.54,0,0,0,2.06-.23c.14.39.31.84.45,1.3a.33.33,0,0,1-.15.31,7.43,7.43,0,0,1-4,.07,2.59,2.59,0,0,1-1.78-1.91,6.79,6.79,0,0,1-.06-3.41,2.76,2.76,0,0,1,2.49-2.26A7.65,7.65,0,0,1,19.84,36.78Z"/><path class="cls-4" d="M37.74,36.67h5.37c-.23.55-.44,1.06-.67,1.55,0,.07-.22.08-.34.08-.66,0-1.32,0-2,0-.39,0-.53.1-.52.51,0,1.6,0,3.2,0,4.8,0,.33-.08.49-.44.46s-.73,0-1.09,0-.38-.06-.38-.35q0-3.42,0-6.82A1.34,1.34,0,0,1,37.74,36.67Z"/></g></g></svg>