<svg xmlns="http://www.w3.org/2000/svg" viewBox="0 0 57.77 70"><defs><style>.cls-1{fill:#fbf6ea;}.cls-2{fill:#7fc6e6;}.cls-3{fill:#424f59;}.cls-4{fill:#f6c317;}.cls-5{fill:#f6c316;}.cls-6{fill:#fdfefd;}.cls-7{fill:#fff;}.cls-8{fill:#fdfdfd;}.cls-9{fill:#63605f;}.cls-10{fill:#d62a27;}.cls-11{fill:#5f5e60;}.cls-12{fill:#64605f;}.cls-13{fill:#d42f2c;}</style></defs><g id="Слой_2" data-name="Слой 2"><g id="low_panel"><path class="cls-1" d="M28.83,70a4.6,4.6,0,0,0-2.33-4,3.73,3.73,0,0,0-1.95-.38c-3.17.09-6.34.14-9.52.06-1.17,0-2.35.06-3.52-.07a15.62,15.62,0,0,1-6.09-1.88,10.93,10.93,0,0,1-3.89-3.6A9.71,9.71,0,0,1,.07,56,11.94,11.94,0,0,1,0,54.37c0-9.23,0-52.29,0-54C0,.12.12.06.38.06,4,.07,41.89,0,57.21,0c.53,0,.52,0,.52.53,0,7.33,0,49.41,0,53a13,13,0,0,1-.48,4.34,10.1,10.1,0,0,1-2.78,4.27,14.15,14.15,0,0,1-6.7,3.3,6.87,6.87,0,0,1-1.64.18c-3.3,0-6.61.13-9.92,0-1.15,0-2.3-.08-3.45-.06a3.61,3.61,0,0,0-3.24,2.08A5.43,5.43,0,0,0,28.9,70Z"/><path class="cls-2" d="M29.1,64.49a3.92,3.92,0,0,0-2-3.45,3.27,3.27,0,0,0-1.66-.32c-2.7.08-5.39.12-8.09.06-1,0-2,0-3-.06a13.37,13.37,0,0,1-5.18-1.6A9.43,9.43,0,0,1,5.9,56.06a8.29,8.29,0,0,1-1.23-3.52,9.87,9.87,0,0,1-.06-1.33c0-7.84,0-44.43,0-45.86,0-.24.08-.29.3-.29L53.22,5c.45,0,.44,0,.44.44,0,6.24,0,42,0,45a11.17,11.17,0,0,1-.41,3.69,8.7,8.7,0,0,1-2.36,3.64,12.09,12.09,0,0,1-5.7,2.8,6.43,6.43,0,0,1-1.39.15c-2.81,0-5.62.11-8.43,0-1,0-1.95-.07-2.93,0a3,3,0,0,0-2.76,1.76,4.55,4.55,0,0,0-.54,2Z"/><path class="cls-3" d="M22.4,17.42a.44.44,0,0,0,.63-.09,8.17,8.17,0,0,0,.78-.88A4.32,4.32,0,0,1,26.05,15h.06c.67-.19.67-.19.61.52a6.22,6.22,0,0,1-.31,1.59,2.69,2.69,0,0,1-1.52,1.53l-1,.53c-.19.1-.26.21-.1.43a7,7,0,0,1,1.15,3.63,33,33,0,0,0,.7,5.24c.18.72.27.68.92.77a14.52,14.52,0,0,1,1.84.45,9.45,9.45,0,0,0,2.88.57,9.58,9.58,0,0,0,1.93-.3,13.75,13.75,0,0,1,2.11-.39,6.18,6.18,0,0,1,3,.74A5.71,5.71,0,0,1,40,31.48a.87.87,0,0,0,.79.27,1.73,1.73,0,0,1,1.76.92,16.69,16.69,0,0,1,1,1.91,2.18,2.18,0,0,1-.86.21c-.21.05-.27.14-.18.33a1.26,1.26,0,0,1,.08.58c0,.74,0,1.48,0,2.22a7.06,7.06,0,0,0,.25,2.19,3.79,3.79,0,0,0,2.46,2.48,1.18,1.18,0,0,1,.84,1.12A32.69,32.69,0,0,0,47.31,49a27,27,0,0,1,.93,3.06,8.06,8.06,0,0,1,.11,1.39c0,.22-.09.27-.28.24-.52-.07-.56-.06-.78.43s-.51,1.16-.74,1.74a1.11,1.11,0,0,1-.76.63,8.53,8.53,0,0,1-1.51.18c-.14,0-.14-.1-.11-.16.15-.38,0-.53-.37-.57s-.21-.18-.07-.29a6.3,6.3,0,0,0,1.82-2.72,1.53,1.53,0,0,1,.32-.5,1.31,1.31,0,0,0,.25-1.5c-.44-1.34-.79-2.72-1.21-4.08a4.24,4.24,0,0,0-1.7-2.21c-.68-.5-1.43-.9-2.15-1.34-.88-.52-1.68-1.15-2.52-1.73-.32-.23-.31-.23-.4.15a6.74,6.74,0,0,0-.24,2.19,2.44,2.44,0,0,0,.47,1.22c.23.31.42.64.63,1a.38.38,0,0,1,0,.48A9.38,9.38,0,0,1,37.7,48a14.65,14.65,0,0,0-2.54,3.5,7.91,7.91,0,0,1-1.28,1.66c-.19.18-.36.26-.51,0s-.2-.2-.4-.07a11.29,11.29,0,0,1-1.9,1.2,5.09,5.09,0,0,1-1.93.2c-.05-.09,0-.13,0-.17.18-.33.17-.35-.19-.45-.13,0-.26-.09-.1-.22a12.63,12.63,0,0,1,2.22-1.71c.47-.24,1-.37,1.47-.57a1.64,1.64,0,0,0,.89-.69,16.91,16.91,0,0,1,1.38-1.89c.35-.49.67-1,1-1.52a.34.34,0,0,0,0-.36,30.93,30.93,0,0,0-1.91-2.63A6.05,6.05,0,0,1,33,41.44v-.15c0-.59,0-.58-.57-.38l-1.93.7c-.07,0-.16.1-.23,0s0-.17,0-.25a5.46,5.46,0,0,0,.37-.93,1.82,1.82,0,0,0-.62,0,13.75,13.75,0,0,1-3.07.2c-.25,0-.2.16-.22.29-.11.74-.21,1.48-.39,2.2a9.09,9.09,0,0,0-.27,1.28,2.71,2.71,0,0,0,0,1.17,3.24,3.24,0,0,1,0,1.42A9.66,9.66,0,0,0,26.35,50a18.56,18.56,0,0,1,.44,4.2v.07c0,.63,0,.64-.59.36a11.32,11.32,0,0,0-.51,1.69A1.57,1.57,0,0,1,24.3,57.6a5.9,5.9,0,0,1-.95.17c-.14,0-.21,0-.16-.16.1-.31-.07-.41-.33-.44s-.23-.13-.11-.28a3,3,0,0,1,.21-.26,8.2,8.2,0,0,0,1.82-3.49,2.48,2.48,0,0,0,0-1.24c-.16-1.07-.17-2.15-.31-3.22-.06-.39-.08-.79-.17-1.18a2.61,2.61,0,0,0-.31-.8,1,1,0,0,1-.2-.79A5.41,5.41,0,0,0,23.37,43c-.14-.37-.3-.72-.45-1.09-.07-.16-.14-.18-.25,0A13.61,13.61,0,0,0,21.34,44a2.73,2.73,0,0,0-.23,1.06,1,1,0,0,1-.23.75,4.08,4.08,0,0,0-1,2.12,25.39,25.39,0,0,0-.37,2.74A10.33,10.33,0,0,1,18.84,53c0,.12-.09.14-.22.08a.58.58,0,0,0-.74.23,2.21,2.21,0,0,0-.36.72A1.68,1.68,0,0,1,16,55.12a9.38,9.38,0,0,1-1.31.11.46.46,0,0,1,.14-.34c.14-.19.14-.31-.09-.44s-.31-.19,0-.44a22.61,22.61,0,0,0,1.87-2,5.3,5.3,0,0,0,1.12-1.57c.29-.78.43-1.6.66-2.39a7.91,7.91,0,0,0,.23-2.78,1.12,1.12,0,0,1,.16-.72,3.73,3.73,0,0,0,.54-2.08c0-.71.06-1.41.05-2.12s.14-1.18.15-1.77a11.6,11.6,0,0,0-.32-1.87,21.47,21.47,0,0,1-.18-2.77,18.85,18.85,0,0,0-.17-2,3.68,3.68,0,0,1,.42-2.52,6.07,6.07,0,0,0,.66-3.74c0-.4-.09-.8-.13-1.21,0-.17-.1-.22-.26-.23a1.61,1.61,0,0,0-.88.25c-.25.16-.5.33-.77.47a.92.92,0,0,1-1.27-.35,1.12,1.12,0,0,0-.79-.58c-.42-.11-.4-.17-.46-.59a2.13,2.13,0,0,1,.87-2,4.4,4.4,0,0,0,1-1.11c.12-.2.11-.31-.16-.29-.08,0-.18,0-.18-.09s.06-.18.17-.17c.45,0,.63-.27.74-.65a1.45,1.45,0,0,1,.46-.79c.15-.11.08-.21,0-.32-.17-.36-.36-.7-.52-1.06a3.73,3.73,0,0,1,.19-3.11c.44.48.84,1,1.22,1.46.11.14.18.33.38.39a1.6,1.6,0,0,1-.07,1.14c-.13.15-.17,0-.19-.07a5.15,5.15,0,0,0-.42-1,3.8,3.8,0,0,0-.68-1c-.17-.22-.16,0-.21.11a3.38,3.38,0,0,0,.52,2.66c.11.2.27.21.42,0s.13-.13.19-.21.08-.26.2-.33.07.26.2.33a1.13,1.13,0,0,0,.41,0c.39,0,.43-.06.55-.45,0,0,0-.1.09-.13.19.19.34.45.68.37.06.1,0,.18,0,.26-.09.25,0,.31.21.33a1.43,1.43,0,0,0,.86-.2C22.23,17.49,22.3,17.42,22.4,17.42Z"/><path class="cls-4" d="M22.4,17.42a1.34,1.34,0,0,1-1.2.4c-.3,0-.36-.16-.21-.44,0-.08.08-.16.13-.24.27-.54.59-1.06.89-1.59a2.64,2.64,0,0,0,.3-1.59,2.51,2.51,0,0,1,.38-1.34c0-.1.11-.25.26-.22s.11.19.14.3-.06.49.16.55a.81.81,0,0,0,.92-.26,13,13,0,0,0,1-1.42,2.46,2.46,0,0,1,.93-1.23s.06-.08.11-.08.24-.06.3,0,0,.17-.1.25a3.2,3.2,0,0,0-.66,1.25c0,.3,0,.36.31.35l1.06,0c.25,0,.23.13.13.26a1,1,0,0,1-.29.25c-.22.14-.47.24-.68.39s-.6.1-.89.23A3.18,3.18,0,0,0,23.46,15a1,1,0,0,0,.71-.18c.08,0,.17-.09.22,0s0,.15,0,.24a1.07,1.07,0,0,1-.65.44c-.63.15-.83.64-1,1.15C22.57,16.87,22.49,17.15,22.4,17.42Z"/><path class="cls-5" d="M19.28,16.88a4.46,4.46,0,0,0,.15-1.21A4.13,4.13,0,0,0,19,13.14a3,3,0,0,1-.31-1.47c0-.05,0-.14.06-.16s.1.08.12.14a4.82,4.82,0,0,1,.22.57.61.61,0,0,0,.93.41.44.44,0,0,0,.23-.27,2.78,2.78,0,0,0,.1-.76,10.58,10.58,0,0,1,.12-1.78,1.2,1.2,0,0,1,.29-.6s.07-.1.14-.08.06.1.07.15c0,.35.08.7.11,1.05s0,.55.28.64a.77.77,0,0,0,.85-.19,4,4,0,0,0,.36-.35.2.2,0,0,1,.22-.06c.11,0,.06.14.05.21a1.35,1.35,0,0,1-.42.62c-.51.6-1,1.23-1.45,1.87a1.22,1.22,0,0,0-.23.66,17,17,0,0,0-.16,2,6.9,6.9,0,0,1-.09,1c-.1.63-.1.63-.74.67h-.4A1.32,1.32,0,0,1,19.28,16.88Z"/><path class="cls-6" d="M17.42,24.5a4.2,4.2,0,0,0,1.11-1.42,1.24,1.24,0,0,0-.88.21,3,3,0,0,1-1.09.5,1.14,1.14,0,0,1-.55,0c-.34-.09-.4-.27-.15-.52a5.33,5.33,0,0,1,.62-.52c.11-.09.25-.19.18-.35s-.2-.05-.3-.06-.38,0-.6,0a4.18,4.18,0,0,1,.55-.68,4.91,4.91,0,0,0,1.42-2.05,3.17,3.17,0,0,1,1.44-1.8.48.48,0,0,1,.26-.09h1c.07,0,.18,0,.13.1-.11.28.1.24.24.26l.59.07a1.13,1.13,0,0,1,.89.56A18.22,18.22,0,0,0,23.88,17a6.82,6.82,0,0,1,2-1.63c.39-.18.43-.16.39.26s-.07.64-.14,1A1.87,1.87,0,0,1,25.09,18l-1.45.64a4.63,4.63,0,0,0-1.17.68,6.88,6.88,0,0,1,1.58,4.35,31.42,31.42,0,0,0,.69,5.28l0,.12c.16.57.16.56.74.56a12.59,12.59,0,0,1,3,.53,9.21,9.21,0,0,0,3.17.39A12.32,12.32,0,0,0,34.56,30a2.44,2.44,0,0,1,2.06.2A8.92,8.92,0,0,1,41,34.87a2.49,2.49,0,0,1,.21,1c0,1,.2,2,.29,3.07A10.17,10.17,0,0,0,41.8,40a3.09,3.09,0,0,0,.67,1.34,4.56,4.56,0,0,0,2.36,1.71c.36.1.48.32.54.69.22,1.34.53,2.66.85,4,.23.92.49,1.83.76,2.74a5.8,5.8,0,0,1,.25,1.24,1.52,1.52,0,0,1-.24,1,9.12,9.12,0,0,0-.89,1.73c-.13.31-.34.36-.72.15s-.18-.36-.05-.55a6,6,0,0,0,.61-1.15,1.59,1.59,0,0,1,.48-.64.64.64,0,0,0,.22-.75c-.55-1.95-1.11-3.9-1.74-5.82a2.34,2.34,0,0,0-.86-1c-1.36-1.16-3-1.93-4.3-3.17a2.44,2.44,0,0,0-.55-.35c-.27-.15-.55-.26-.67-.57a.24.24,0,0,0-.14-.12,10.59,10.59,0,0,1-2.27-2.06,15.61,15.61,0,0,1-1.63-1.92c0-.06-.06-.18-.18-.14s-.07.14-.07.22,0,.25,0,.38c0,.72,0,.79-.71,1a12.75,12.75,0,0,1-4.76,1c-.41,0-.82.09-1.24.07a.54.54,0,0,1-.54-.33,1.3,1.3,0,0,0-.62-.75c-.16,1.14-.37,2.25-.57,3.36a23.07,23.07,0,0,0-.46,3A9.52,9.52,0,0,0,25.45,46a1.67,1.67,0,0,1,0,.59,5.21,5.21,0,0,0,.09,2.22,24.58,24.58,0,0,1,.4,3.93,1.87,1.87,0,0,1-.34,1.14A3.14,3.14,0,0,0,25,55.26a.62.62,0,0,1-.6.53c-.17,0-.25,0-.21-.21a2.47,2.47,0,0,1,.11-.36,8.77,8.77,0,0,1,.44-1,4.7,4.7,0,0,0,.48-3.12c-.13-1.15-.32-2.28-.4-3.44a1.12,1.12,0,0,0-.18-.52,3,3,0,0,1-.47-1.66,10.37,10.37,0,0,0-.87-3.67,23.89,23.89,0,0,1-.87-2.72,4,4,0,0,1-.07-.84c0-.07,0-.16,0-.2a.16.16,0,0,0-.21.08c-.23.36-.5.34-.81.11a.41.41,0,0,0-.5,0,.76.76,0,0,1-.62.18.94.94,0,0,0,.48.56c.44.19.72.58,1.14.78.16.07.19.18.15.35a13.64,13.64,0,0,1-1.19,3.35,3.25,3.25,0,0,0-.37,1.27,1.75,1.75,0,0,1-.33,1,3,3,0,0,0-.52,1.4,27.85,27.85,0,0,1-.92,3.48c-.06.18-.06.39-.11.58a.59.59,0,0,1-.3.46c-.14.06-.2.3-.32.44a10.42,10.42,0,0,0-1.05,1.24c0,.09-.12.08-.21.08a1.25,1.25,0,0,1-.66-.21,4.64,4.64,0,0,1,.76-.89A4,4,0,0,0,18,50c.16-.85.54-1.65.7-2.5.09-.49.18-1,.26-1.47a.5.5,0,0,0,0-.27,2.18,2.18,0,0,1,.15-1.64,4.88,4.88,0,0,0,.2-1.37c.06-.77.1-1.55.15-2.32,0-.37.07-.73.08-1.09a1.48,1.48,0,0,1,.24-.8,1,1,0,0,0,.13-1,13.78,13.78,0,0,1-.59-3.3c0-.08-.06-.17.05-.22s.23-.32.18-.55c-.1-.52-.22-1-.28-1.56s-.07-.95-.14-1.42A.93.93,0,0,1,19.3,30a7.48,7.48,0,0,0,.94-4,14.62,14.62,0,0,0-.06-1.62c0-.19,0-.26.22-.29,1-.16,1.39-.51,1.58-1.9a.8.8,0,0,0-.55.32,2.17,2.17,0,0,1-1.44.89c-.32.09-.64.17-1,.27a2.09,2.09,0,0,0-.89.61,1.12,1.12,0,0,1-.66.37c-.17,0-.06-.07-.05-.12Z"/><path class="cls-7" d="M37.24,40.67c-.08.61-.17,1.16-.22,1.7a4.82,4.82,0,0,0,.92,3.44l.17.22c.13.18.17.34,0,.51a2,2,0,0,0-.31.39,20,20,0,0,1-2.17,2.61,1,1,0,0,0-.21.24,12.37,12.37,0,0,1-1.53,2.08,1,1,0,0,1-.56.31,4.64,4.64,0,0,0-1.8.65.39.39,0,0,1-.33,0,.32.32,0,0,1-.3-.19c0-.15.1-.22.22-.26a16.29,16.29,0,0,1,2.36-1,.43.43,0,0,0,.27-.2,31.71,31.71,0,0,0,2.65-4,.57.57,0,0,0-.1-.77,8.5,8.5,0,0,1-2-3.12A4.27,4.27,0,0,1,34,42c0-.44,0-.87-.06-1.31,0-.22.07-.34.28-.36A8.07,8.07,0,0,0,36.06,40,1,1,0,0,1,37.24,40.67Z"/><path class="cls-8" d="M19.05,17.38l-.18.18c-.28.31-.39.32-.59,0A3.7,3.7,0,0,1,17.73,15c0-.06.05-.11.07-.17s.15.06.18.13A12.67,12.67,0,0,1,19,17.23S19,17.33,19.05,17.38Z"/><path class="cls-9" d="M19.05,17.38a23.45,23.45,0,0,0-1-2.21c-.07-.12-.15-.23-.22-.34s.09-.24.14-.37a5,5,0,0,1,1.34,2.42l0,.56c-.14-.1,0-.25-.09-.38C19.14,17.16,19.17,17.31,19.05,17.38Z"/><path class="cls-10" d="M17.43,24.5a.29.29,0,0,0-.2.07.37.37,0,0,1-.54-.17c-.14-.26-.09-.41.18-.54a1.85,1.85,0,0,1,.65-.26c.27,0,.35.08.26.35s-.27.35-.36.55Z"/><path class="cls-11" d="M40.88,32.15a1.19,1.19,0,0,1,.77.47,4.32,4.32,0,0,1,.36.58c0,.08.16.19,0,.27a.26.26,0,0,1-.31-.06,1.9,1.9,0,0,1-.31-.39Z"/><path class="cls-12" d="M19.32,19.56a4.62,4.62,0,0,1,.48,0,.48.48,0,0,1,.48.28.47.47,0,0,1-.16.56,1.35,1.35,0,0,1-1,.36c-.27,0-.39-.17-.33-.42s.18-.57.27-.86a.7.7,0,0,1,.15-.2.16.16,0,0,1,.22,0c.1.08,0,.15,0,.21A.56.56,0,0,1,19.32,19.56Z"/><path class="cls-13" d="M19.3,20.38c-.09,0-.2,0-.18-.13s0-.25.2-.26.22.1.22.23S19.42,20.38,19.3,20.38Z"/></g></g></svg>