<svg xmlns="http://www.w3.org/2000/svg" viewBox="0 0 361.32 245.05"><defs><style>.cls-1{fill:#424f59;}.cls-2{font-size:48px;fill:#58595b;font-family:YanoneKaffeesatz-Bold, Yanone Kaffeesatz;font-weight:700;letter-spacing:0.05em;}.cls-3{letter-spacing:0.02em;}.cls-4{letter-spacing:0.03em;}.cls-5{fill:#efd9d3;}.cls-6{fill:#f2fafe;}.cls-7{fill:#434e53;}.cls-8{fill:#daeefb;}.cls-9{fill:#fff;}.cls-10{fill:#fff4e1;}.cls-11{fill:#f7a395;}.cls-12{fill:#fbf6ea;}.cls-13{fill:#010101;}</style></defs><g id="Слой_2" data-name="Слой 2"><g id="_7" data-name="7"><path class="cls-1" d="M103,158.4H77a1.6,1.6,0,1,1,0-3.19h26a1.6,1.6,0,1,1,0,3.19Z"/><path class="cls-1" d="M64.78,158.4H55.6a1.6,1.6,0,0,1,0-3.19h9.18a1.6,1.6,0,1,1,0,3.19Z"/><path class="cls-1" d="M287.34,158.4h-9.18a1.6,1.6,0,0,1,0-3.19h9.18a1.6,1.6,0,1,1,0,3.19Z"/><text class="cls-2" transform="translate(49.94 216.91)">МЕНЮ С<tspan class="cls-3" x="119.61" y="0">Т</tspan><tspan class="cls-4" x="138.81" y="0">О</tspan><tspan x="159.89" y="0">ЛОВОЙ</tspan></text><path class="cls-1" d="M359.72,245.05H1.6a1.6,1.6,0,1,1,0-3.19H359.72a1.6,1.6,0,1,1,0,3.19Z"/><path class="cls-5" d="M303.25,157.92A121.63,121.63,0,1,0,62.06,135.58a122.7,122.7,0,0,0,2,22.34Z"/><path class="cls-1" d="M92.92,19.65a4.56,4.56,0,1,1,4.56-4.56A4.56,4.56,0,0,1,92.92,19.65Zm0-7.61a3.05,3.05,0,1,0,3,3.05A3.06,3.06,0,0,0,92.92,12Z"/><path class="cls-1" d="M307.2,72.37a3.44,3.44,0,1,1,3.43-3.44A3.44,3.44,0,0,1,307.2,72.37Zm0-5.36a1.92,1.92,0,1,0,1.92,1.92A1.92,1.92,0,0,0,307.2,67Z"/><path class="cls-6" d="M85.24,45.74l1.08,2.19a.34.34,0,0,0,.27.19l2.42.35a.36.36,0,0,1,.19.61l-1.74,1.71a.35.35,0,0,0-.11.32l.42,2.4a.36.36,0,0,1-.52.38l-2.17-1.13a.33.33,0,0,0-.33,0l-2.16,1.13a.36.36,0,0,1-.52-.38l.41-2.4a.37.37,0,0,0-.1-.32l-1.75-1.71a.36.36,0,0,1,.2-.61l2.42-.35a.37.37,0,0,0,.27-.19l1.08-2.19A.35.35,0,0,1,85.24,45.74Z"/><circle class="cls-7" cx="56.79" cy="70.93" r="2.38"/><path class="cls-1" d="M359.72,158.4H1.6a1.6,1.6,0,1,1,0-3.19H359.72a1.6,1.6,0,1,1,0,3.19Z"/><path class="cls-8" d="M309.8,87.08a12.82,12.82,0,0,1-25.64,0Z"/><path class="cls-1" d="M283.69,87.09a.51.51,0,0,1,.13-.34.48.48,0,0,1,.34-.14H309.8a.48.48,0,0,1,.34.14.51.51,0,0,1,.13.34,13.29,13.29,0,0,1-26.58,0Zm1,.45a12.35,12.35,0,0,0,24.66,0Z"/><path class="cls-1" d="M284.16,87.54a.46.46,0,0,0,.47-.46V37.77a4.38,4.38,0,1,0-8.76,0,.47.47,0,0,0,.94,0,3.44,3.44,0,0,1,6.88,0V87.08A.46.46,0,0,0,284.16,87.54Z"/><path class="cls-1" d="M294.63,96.62a.46.46,0,0,0,.44-.3.47.47,0,0,0-.28-.61A11,11,0,0,1,287.47,87a.46.46,0,0,0-.51-.42.46.46,0,0,0-.42.51,12,12,0,0,0,7.93,9.47Z"/><path class="cls-8" d="M258.55,49.4a10.82,10.82,0,0,0,10.82-10.82V24.92a3.15,3.15,0,0,0-3.15-3.14H250.87a3.15,3.15,0,0,0-3.15,3.14V38.58A10.82,10.82,0,0,0,258.55,49.4Z"/><path class="cls-1" d="M258.55,49.79a11.22,11.22,0,0,1-11.21-11.21V24.92a3.54,3.54,0,0,1,3.53-3.53h15.35a3.54,3.54,0,0,1,3.53,3.53V38.58A11.22,11.22,0,0,1,258.55,49.79Zm-7.68-27.63a2.77,2.77,0,0,0-2.76,2.76V38.58a10.44,10.44,0,1,0,20.88,0V24.92a2.77,2.77,0,0,0-2.77-2.76Z"/><path class="cls-9" d="M262.17,40.18A1.52,1.52,0,1,0,264.59,39V26.14a.91.91,0,1,0-1.81,0V39A1.52,1.52,0,0,0,262.17,40.18Z"/><path class="cls-1" d="M263.69,42.08a1.9,1.9,0,0,1-1.29-3.3V26.14a1.29,1.29,0,0,1,2.58,0V38.78a1.9,1.9,0,0,1-1.29,3.3Zm0-16.47a.52.52,0,0,0-.52.53V39a.38.38,0,0,1-.16.31,1.14,1.14,0,1,0,1.82.91,1.12,1.12,0,0,0-.47-.91.4.4,0,0,1-.15-.31V26.14A.52.52,0,0,0,263.69,25.61Z"/><path class="cls-9" d="M257,40.18A1.53,1.53,0,1,0,259.45,39V26.14a.91.91,0,1,0-1.81,0V39A1.53,1.53,0,0,0,257,40.18Z"/><path class="cls-1" d="M258.55,42.08a1.91,1.91,0,0,1-1.91-1.9,1.86,1.86,0,0,1,.62-1.4V26.14a1.29,1.29,0,1,1,2.57,0V38.78a1.86,1.86,0,0,1,.62,1.4A1.9,1.9,0,0,1,258.55,42.08Zm0-16.47a.53.53,0,0,0-.53.53V39a.37.37,0,0,1-.15.31,1.14,1.14,0,1,0,1.82.91,1.12,1.12,0,0,0-.47-.91.37.37,0,0,1-.15-.31V26.14A.53.53,0,0,0,258.55,25.61Z"/><path class="cls-9" d="M251.88,40.18A1.53,1.53,0,1,0,254.31,39V26.14a.91.91,0,1,0-1.81,0V39A1.53,1.53,0,0,0,251.88,40.18Z"/><path class="cls-1" d="M253.4,42.08a1.9,1.9,0,0,1-1.9-1.9,1.86,1.86,0,0,1,.62-1.4V26.14a1.29,1.29,0,1,1,2.57,0V38.78a1.86,1.86,0,0,1,.62,1.4A1.9,1.9,0,0,1,253.4,42.08Zm0-16.47a.53.53,0,0,0-.52.53V39a.4.4,0,0,1-.15.31,1.11,1.11,0,0,0-.46.91,1.14,1.14,0,1,0,2.27,0,1.11,1.11,0,0,0-.46-.91.37.37,0,0,1-.15-.31V26.14A.53.53,0,0,0,253.4,25.61Z"/><path class="cls-1" d="M258.55,71.58a.38.38,0,0,1-.39-.38V49.4a.39.39,0,0,1,.77,0V71.2A.38.38,0,0,1,258.55,71.58Z"/><path class="cls-10" d="M261.8,96.49v-22a3.26,3.26,0,0,0-6.51,0v22Z"/><path class="cls-1" d="M261.8,96.88h-6.51a.38.38,0,0,1-.38-.39v-22a3.64,3.64,0,1,1,7.28,0v22A.39.39,0,0,1,261.8,96.88Zm-6.13-.77h5.75V74.45a2.88,2.88,0,0,0-5.75,0Z"/><path class="cls-11" d="M221.21,51l-.63-.37L220,50.3a9.26,9.26,0,0,0-8.48,0l-.62.37-.62.37a9.18,9.18,0,0,1-8.47,0l-.63-.37-.62-.37a9.26,9.26,0,0,0-8.48,0l-.62.37-.62.37a9.2,9.2,0,0,1-8.48,0l-.62-.37-.63-.37a9.24,9.24,0,0,0-8.47,0l-.62.37-.63.37a9.18,9.18,0,0,1-8.47,0l-.62-.37-.63-.37a9.24,9.24,0,0,0-8.47,0l-.62.37-.63.37a9.18,9.18,0,0,1-8.47,0l-.62-.37-.63-.37a9.24,9.24,0,0,0-8.47,0l-.62.37-.63.37a8.43,8.43,0,0,1-4.2,1v97.66a8.54,8.54,0,0,0,4.2-1l1.25-.74a9.18,9.18,0,0,1,8.47,0l1.25.74a9.24,9.24,0,0,0,8.47,0l1.25-.74a9.18,9.18,0,0,1,8.47,0l1.25.74a9.24,9.24,0,0,0,8.47,0l1.25-.74a9.18,9.18,0,0,1,8.47,0l1.25.74a9.26,9.26,0,0,0,8.48,0L192,148a9.2,9.2,0,0,1,8.48,0l1.25.74a9.24,9.24,0,0,0,8.47,0l1.24-.74a9.2,9.2,0,0,1,8.48,0l1.25.74a8.53,8.53,0,0,0,4.19,1V52.07A8.42,8.42,0,0,1,221.21,51Z"/><path class="cls-1" d="M225.4,150.26h0a9.06,9.06,0,0,1-4.46-1.1l-1.25-.74a8.73,8.73,0,0,0-7.93,0l-1.25.74a9.81,9.81,0,0,1-9,0l-1.25-.73a8.71,8.71,0,0,0-7.92,0l-1.25.74a9.84,9.84,0,0,1-9,0l-1.25-.74a8.73,8.73,0,0,0-7.93,0l-1.24.74a9.81,9.81,0,0,1-9,0l-1.25-.73a8.73,8.73,0,0,0-7.93,0l-1.25.74a9.81,9.81,0,0,1-9,0l-1.25-.74a8.73,8.73,0,0,0-7.93,0l-1.25.74a9.07,9.07,0,0,1-4.47,1.1h0a.55.55,0,0,1-.53-.53v-6.06a.54.54,0,1,1,1.07,0v5.51a7.65,7.65,0,0,0,3.39-.94l1.25-.74a9.76,9.76,0,0,1,9,0l1.25.74a8.73,8.73,0,0,0,7.93,0l1.25-.74a9.78,9.78,0,0,1,9,0l1.24.74a8.73,8.73,0,0,0,7.93,0l1.25-.74a9.78,9.78,0,0,1,9,0l1.25.74a8.71,8.71,0,0,0,7.92,0l1.25-.74a9.78,9.78,0,0,1,9,0l1.25.74a8.73,8.73,0,0,0,7.93,0l1.24-.74a9.78,9.78,0,0,1,9,0l1.25.74a7.65,7.65,0,0,0,3.39.94v-5.51a.54.54,0,0,1,1.07,0v6.06a.52.52,0,0,1-.16.37A.53.53,0,0,1,225.4,150.26Z"/><path class="cls-1" d="M225.4,58.44a.53.53,0,0,1-.53-.53V52.59a8.77,8.77,0,0,1-3.93-1.09l-1.25-.74a8.73,8.73,0,0,0-7.93,0l-1.25.74a9.78,9.78,0,0,1-9,0l-1.25-.74a8.71,8.71,0,0,0-7.92,0l-1.25.74a9.78,9.78,0,0,1-9,0l-1.25-.74a8.73,8.73,0,0,0-7.93,0l-1.25.74a9.76,9.76,0,0,1-9,0l-1.25-.74a8.73,8.73,0,0,0-7.93,0l-1.25.74a9.76,9.76,0,0,1-9,0l-1.25-.74a8.73,8.73,0,0,0-7.93,0l-1.25.74a8.77,8.77,0,0,1-3.93,1.09v5.32a.54.54,0,0,1-1.07,0V52.07a.53.53,0,0,1,.53-.53,8,8,0,0,0,3.93-1l1.25-.74a9.81,9.81,0,0,1,9,0l1.25.74a8.73,8.73,0,0,0,7.93,0l1.25-.74a9.84,9.84,0,0,1,9,0l1.24.74a8.73,8.73,0,0,0,7.93,0l1.25-.74a9.84,9.84,0,0,1,9,0l1.24.74a8.73,8.73,0,0,0,7.93,0l1.25-.74a9.84,9.84,0,0,1,9,0l1.25.74a8.73,8.73,0,0,0,7.93,0l1.24-.74a9.84,9.84,0,0,1,9,0l1.25.74a8,8,0,0,0,3.93,1,.53.53,0,0,1,.53.53v5.84A.54.54,0,0,1,225.4,58.44Z"/><path class="cls-12" d="M213,99.5a36.12,36.12,0,1,1-36.12-36.12A36.12,36.12,0,0,1,213,99.5Z"/><path class="cls-1" d="M176.84,136.16A36.66,36.66,0,1,1,213.49,99.5,36.71,36.71,0,0,1,176.84,136.16Zm0-72.25A35.59,35.59,0,1,0,212.43,99.5,35.64,35.64,0,0,0,176.84,63.91Z"/><path class="cls-9" d="M202.35,99.5A25.51,25.51,0,1,1,176.84,74,25.51,25.51,0,0,1,202.35,99.5Z"/><path class="cls-1" d="M176.84,125.54a26,26,0,1,1,26-26A26.07,26.07,0,0,1,176.84,125.54Zm0-51a25,25,0,1,0,25,25A25,25,0,0,0,176.84,74.52Z"/><path class="cls-1" d="M155.17,100a.53.53,0,0,1-.53-.53,22.23,22.23,0,0,1,22.2-22.2.54.54,0,0,1,0,1.07A21.16,21.16,0,0,0,155.71,99.5.54.54,0,0,1,155.17,100Z"/><path class="cls-12" d="M220.59,69.89v30.62h3.49l-1.09,36a2.47,2.47,0,0,0,4.93,0V62.4A7.49,7.49,0,0,0,220.59,69.89Z"/><path class="cls-1" d="M225.45,139.45a3,3,0,0,1-3-3L223.53,101h-2.94a.53.53,0,0,1-.53-.53V69.89a8.06,8.06,0,0,1,7.84-8,.51.51,0,0,1,.39.15.55.55,0,0,1,.16.38v74.06A3,3,0,0,1,225.45,139.45ZM221.12,100h3a.51.51,0,0,1,.38.16.5.5,0,0,1,.15.38l-1.09,36a1.93,1.93,0,0,0,3.86,0V63a7,7,0,0,0-6.26,6.92Z"/><line class="cls-9" x1="222.68" y1="100.51" x2="222.68" y2="85.16"/><path class="cls-1" d="M222.68,101a.53.53,0,0,1-.53-.53V85.16a.53.53,0,0,1,.53-.53.52.52,0,0,1,.53.53v15.35A.53.53,0,0,1,222.68,101Z"/><line class="cls-9" x1="222.68" y1="82.63" x2="222.68" y2="74.52"/><path class="cls-1" d="M222.68,83.16a.53.53,0,0,1-.53-.53V74.52a.53.53,0,0,1,.53-.53.52.52,0,0,1,.53.53v8.11A.53.53,0,0,1,222.68,83.16Z"/><path class="cls-12" d="M127.28,90.1l2.59-.08,1.71,45.61s-2,3.59-3.31,3.33-3.3-3.31-3.3-3.31Z"/><path class="cls-1" d="M128.27,139a3.31,3.31,0,0,1-3.3-3.31l1.26-46.17a.52.52,0,0,1,.62-.51,8,8,0,0,0,2.85,0,.52.52,0,0,1,.43.11.55.55,0,0,1,.19.4l1.26,46.15A3.32,3.32,0,0,1,128.27,139Zm-1-48.86L126,135.66a2.25,2.25,0,0,0,4.49,0L129.27,90.1A8.28,8.28,0,0,1,127.28,90.1Z"/><path class="cls-12" d="M137.44,80.46a10.55,10.55,0,0,0-.07-1.13c-.61-9-4.76-14.29-4.76-14.29-2.14-2.57-4.34-2.44-4.34-2.44S126,62.41,123.94,65c0,0-4.15,5.25-4.76,14.29a8.47,8.47,0,0,0-.07,1.13c0,.09,0,.19,0,.29a1.77,1.77,0,0,0,0,.23h0a9.16,9.16,0,0,0,7.64,8.51,9.42,9.42,0,0,0,1.51.14,9.54,9.54,0,0,0,1.52-.14A9.15,9.15,0,0,0,137.42,81h0c0-.08,0-.15,0-.23S137.44,80.55,137.44,80.46Z"/><path class="cls-1" d="M128.27,90.16a10.4,10.4,0,0,1-1.6-.14,9.75,9.75,0,0,1-8.07-8.89.39.39,0,0,1,0-.15v-.52a9.61,9.61,0,0,1,.07-1.19c.61-9.08,4.69-14.34,4.87-14.56a6.14,6.14,0,0,1,4.65-2.65h.15c.41,0,2.61.13,4.7,2.64.18.23,4.27,5.49,4.88,14.6a8.92,8.92,0,0,1,.07,1.16V81a.37.37,0,0,1,0,.18A9.77,9.77,0,0,1,129.87,90,10.19,10.19,0,0,1,128.27,90.16Zm-8.63-9.29s0,0,0,.08a8.67,8.67,0,0,0,7.19,8,8,8,0,0,0,2.85,0,8.68,8.68,0,0,0,7.19-8s0-.06,0-.09v-.4a9.28,9.28,0,0,0-.07-1.06,27.26,27.26,0,0,0-4.65-14,5.37,5.37,0,0,0-3.87-2.24h-.15a5.14,5.14,0,0,0-3.82,2.26,27.16,27.16,0,0,0-4.64,14,8.19,8.19,0,0,0-.07,1.09,2.17,2.17,0,0,0,0,.26.71.71,0,0,1,0,.15Z"/><path class="cls-1" d="M129.44,87.92a.53.53,0,0,1-.53-.44.54.54,0,0,1,.44-.62,6.51,6.51,0,0,0,5.41-6,.54.54,0,0,1,1.07.06,7.62,7.62,0,0,1-6.31,7Z"/><path class="cls-1" d="M62.35,122.85H50.63a.57.57,0,1,1,0-1.13H62.35a.57.57,0,1,1,0,1.13Z"/><path class="cls-1" d="M70.89,122.85H68.66a.57.57,0,1,1,0-1.13h2.23a.57.57,0,0,1,0,1.13Z"/><path class="cls-11" d="M47.91,107.87s4.36-7.74,12.85-8.09S73.69,108,73.69,108Z"/><path class="cls-1" d="M73.69,108H47.83a.56.56,0,0,1-.5-.3.57.57,0,0,1,0-.58,15.9,15.9,0,0,1,26.81,0,.55.55,0,0,1,0,.58A.54.54,0,0,1,73.69,108Zm-24.78-1.14H72.6a14.77,14.77,0,0,0-23.69,0Z"/><path class="cls-8" d="M70.89,122.29a12.8,12.8,0,0,0,.7-14.85H49.92a12.83,12.83,0,0,0,.71,14.85c-2.43,3.82-7.64,14-6.4,30.25H77.29C78.52,136.34,73.32,126.11,70.89,122.29Z"/><path class="cls-1" d="M77.29,153.11H44.23a.57.57,0,0,1-.57-.52c-1.22-16,3.82-26.29,6.28-30.27a13.37,13.37,0,0,1-.49-15.19.56.56,0,0,1,.47-.26H71.59a.58.58,0,0,1,.48.26,13.42,13.42,0,0,1-.49,15.19c2.46,4,7.49,14.29,6.28,30.27A.58.58,0,0,1,77.29,153.11ZM44.76,152h32c1.07-15.8-4.07-25.79-6.36-29.38a.59.59,0,0,1,0-.66A12.21,12.21,0,0,0,71.27,108h-21a12.23,12.23,0,0,0,.84,13.92.57.57,0,0,1,0,.66C48.83,126.18,43.68,136.16,44.76,152Z"/><path class="cls-1" d="M57.5,104.2a.56.56,0,0,1-.57-.57V100.7a.56.56,0,0,1,.57-.57.57.57,0,0,1,.57.57v2.93A.57.57,0,0,1,57.5,104.2Z"/><path class="cls-1" d="M60.76,104.2a.56.56,0,0,1-.57-.57v-3.28a.56.56,0,0,1,.57-.57.57.57,0,0,1,.57.57v3.28A.57.57,0,0,1,60.76,104.2Z"/><path class="cls-1" d="M64,104.2a.56.56,0,0,1-.57-.57V100.7a.56.56,0,0,1,.57-.57.57.57,0,0,1,.57.57v2.93A.57.57,0,0,1,64,104.2Z"/><path class="cls-1" d="M72.92,153.11h0a.57.57,0,0,1-.53-.61c0-.12.87-11.51-2-20.88a.57.57,0,0,1,.38-.71.56.56,0,0,1,.71.37c2.95,9.58,2.07,21.19,2.06,21.31A.56.56,0,0,1,72.92,153.11Z"/><path class="cls-1" d="M77.47,157.46H44a.58.58,0,0,1-.57-.57.57.57,0,0,1,.57-.57H77.47a.56.56,0,0,1,.57.57A.57.57,0,0,1,77.47,157.46Z"/><path class="cls-1" d="M78.05,55.87a5,5,0,0,1-6.9-1.72L68,47.32A.29.29,0,0,1,68,47c.34-.3.61-.57.86-.82A9.28,9.28,0,0,1,71,44.44l.11-.06a11.72,11.72,0,0,1,2.56-1.12c.36-.12.72-.23,1.17-.41a.32.32,0,0,1,.36.09l4.52,6A5,5,0,0,1,78.05,55.87ZM68.6,47.26l3.09,6.61a4.42,4.42,0,0,0,7.55-4.58l-4.36-5.8-1,.35a11,11,0,0,0-2.45,1.06l-.1.06a9,9,0,0,0-2,1.61C69.1,46.79,68.88,47,68.6,47.26Z"/><path class="cls-11" d="M75.85,36.07A33.89,33.89,0,0,0,71,35a8.78,8.78,0,0,0-8.13,4.89,35.64,35.64,0,0,0-1.3,4.79c-.37,1.54-.64,3.81.83,4.89,1.72,1.26,4-.9,5.25-1.88l.57-.46a14.6,14.6,0,0,1,3.06-2.55A20.48,20.48,0,0,1,75,43.13l.67-.29c1.46-.66,4.43-1.64,4.12-3.75C79.52,37.28,77.38,36.45,75.85,36.07Z"/><path class="cls-1" d="M78.27,41.94h0a17,17,0,0,1-1.94.94l-.55.24-.68.29c-.47.18-.84.31-1.21.43a11,11,0,0,0-2.45,1.06l-.1.06a9,9,0,0,0-2,1.61c-.26.26-.53.53-.9.85l-.57.47-.48.37a14.64,14.64,0,0,1-1.73,1.27c-1.38.83-2.5.91-3.41.25-1.22-.91-1.55-2.71-.94-5.21l.27-1.18a24.27,24.27,0,0,1,1-3.66A9.08,9.08,0,0,1,71,34.66a24.07,24.07,0,0,1,3.73.8l1.16.31c2.49.64,3.93,1.77,4.15,3.28C80.24,40.16,79.65,41.11,78.27,41.94ZM71,44.44l.11-.06a11.72,11.72,0,0,1,2.56-1.12c.36-.12.72-.23,1.17-.41l.66-.28.57-.25a15,15,0,0,0,1.86-.9c1.16-.7,1.65-1.43,1.52-2.29-.23-1.57-2.14-2.37-3.7-2.77l-1.17-.31A23.57,23.57,0,0,0,71,35.26,8.49,8.49,0,0,0,63.16,40a23.42,23.42,0,0,0-1,3.56c-.1.4-.19.8-.28,1.2-.38,1.56-.57,3.63.71,4.57.7.51,1.57.43,2.74-.28A14.23,14.23,0,0,0,67,47.79l.48-.38L68,47c.34-.3.61-.57.86-.82A9.28,9.28,0,0,1,71,44.44Z"/><path class="cls-1" d="M63.78,44.83a.26.26,0,0,1-.24,0,.31.31,0,0,1-.21-.37c.17-.54.27-1,.37-1.41a13.14,13.14,0,0,1,.48-1.76.3.3,0,1,1,.57.2,14.53,14.53,0,0,0-.46,1.69c-.1.44-.21.9-.38,1.45A.26.26,0,0,1,63.78,44.83Z"/><path class="cls-1" d="M65.06,40.4a.29.29,0,0,1-.27,0,.3.3,0,0,1-.17-.39,3.23,3.23,0,0,1,1.32-1.67.31.31,0,0,1,.42.09.3.3,0,0,1-.09.42,2.68,2.68,0,0,0-1.09,1.38A.3.3,0,0,1,65.06,40.4Z"/><path class="cls-1" d="M77.65,50.39a.29.29,0,0,1-.41-.09l-4.08-6.47a.3.3,0,0,1,.1-.41.29.29,0,0,1,.41.09L77.75,50a.31.31,0,0,1-.09.42Z"/><path class="cls-8" d="M187.07,9.87a9.53,9.53,0,0,0-19.06,0h-.14a9.54,9.54,0,1,0,0,19.08,9.76,9.76,0,0,0,1.44-.12l.91,7.53h13.89l.77-7.59a9.16,9.16,0,0,0,1.83.18,9.53,9.53,0,0,0,.36-19.06Z"/><path class="cls-1" d="M184.11,36.9H170.22a.55.55,0,0,1-.55-.49l-.84-7a8.11,8.11,0,0,1-1,.06,10.1,10.1,0,0,1-.39-20.19,10.09,10.09,0,0,1,20.12,0,10.09,10.09,0,0,1-.89,20.15,10.17,10.17,0,0,1-1.34-.09l-.7,7A.56.56,0,0,1,184.11,36.9Zm-13.4-1.11h12.9l.71-7.09a.55.55,0,0,1,.23-.39.48.48,0,0,1,.43-.1,9.3,9.3,0,0,0,1.73.17,9,9,0,0,0,.34-18,.56.56,0,0,1-.54-.54,9,9,0,0,0-17.94,0,.57.57,0,0,1-.18.39.49.49,0,0,1-.41.15h0a9,9,0,1,0-.1,18,8.65,8.65,0,0,0,1.36-.12.57.57,0,0,1,.64.49Z"/><path class="cls-1" d="M172.24,11.73a.56.56,0,0,1-.34-.12,7.21,7.21,0,0,0-3.89-1.2h0a.56.56,0,1,1,0-1.11h0a8.32,8.32,0,0,1,4.58,1.43.56.56,0,0,1,.09.78A.53.53,0,0,1,172.24,11.73Z"/><path class="cls-1" d="M181.46,36.9a.55.55,0,0,1-.55-.56V28.22a.55.55,0,0,1,.55-.56.56.56,0,0,1,.56.56v8.12A.56.56,0,0,1,181.46,36.9Z"/><path class="cls-1" d="M194,36.9H187.5a.56.56,0,1,1,0-1.11H194a.56.56,0,1,1,0,1.11Z"/><path class="cls-1" d="M167.08,36.9H160.6a.56.56,0,1,1,0-1.11h6.48a.56.56,0,1,1,0,1.11Z"/><rect class="cls-11" x="201.34" y="7.01" width="27.2" height="4.45"/><path class="cls-1" d="M228.54,12h-27.2a.54.54,0,0,1-.55-.55V7a.54.54,0,0,1,.55-.55h27.2a.55.55,0,0,1,.56.55v4.45A.55.55,0,0,1,228.54,12ZM201.9,10.9H228V7.57H201.9Z"/><rect class="cls-9" x="201.34" y="16.51" width="27.2" height="4.45"/><path class="cls-1" d="M228.54,21.51h-27.2a.54.54,0,0,1-.55-.55V16.51a.54.54,0,0,1,.55-.55h27.2a.55.55,0,0,1,.56.55V21A.55.55,0,0,1,228.54,21.51ZM201.9,20.4H228V17.07H201.9Z"/><rect class="cls-9" x="201.34" y="26.01" width="27.2" height="4.45"/><path class="cls-1" d="M228.54,31h-27.2a.54.54,0,0,1-.55-.55V26a.54.54,0,0,1,.55-.55h27.2a.55.55,0,0,1,.56.55v4.45A.55.55,0,0,1,228.54,31ZM201.9,29.9H228V26.57H201.9Z"/><rect class="cls-11" x="125.96" y="7.01" width="27.2" height="4.45"/><path class="cls-1" d="M153.16,12H126a.55.55,0,0,1-.55-.55V7a.55.55,0,0,1,.55-.55h27.2a.55.55,0,0,1,.56.55v4.45A.55.55,0,0,1,153.16,12ZM126.52,10.9h26.09V7.57H126.52Z"/><rect class="cls-9" x="125.96" y="16.51" width="27.2" height="4.45"/><path class="cls-1" d="M153.16,21.51H126a.55.55,0,0,1-.55-.55V16.51A.55.55,0,0,1,126,16h27.2a.55.55,0,0,1,.56.55V21A.55.55,0,0,1,153.16,21.51ZM126.52,20.4h26.09V17.07H126.52Z"/><rect class="cls-9" x="125.96" y="26.01" width="27.2" height="4.45"/><path class="cls-1" d="M153.16,31H126a.55.55,0,0,1-.55-.55V26a.55.55,0,0,1,.55-.55h27.2a.55.55,0,0,1,.56.55v4.45A.55.55,0,0,1,153.16,31ZM126.52,29.9h26.09V26.57H126.52Z"/><polygon class="cls-11" points="325.55 151.08 252.19 151.08 249.67 147.02 328.07 147.02 325.55 151.08"/><path class="cls-1" d="M325.55,151.45H252.19a.38.38,0,0,1-.31-.17l-2.52-4.07a.38.38,0,0,1,0-.37.37.37,0,0,1,.32-.18h78.4a.36.36,0,0,1,.32.18.35.35,0,0,1,0,.37l-2.52,4.07A.38.38,0,0,1,325.55,151.45Zm-73.16-.73h73l2.07-3.34h-77.1Z"/><path class="cls-8" d="M290.45,116.58v5.87a1.58,1.58,0,1,1-3.16,0v-5.87A30.84,30.84,0,0,0,258,147H319.7A30.84,30.84,0,0,0,290.45,116.58Z"/><path class="cls-1" d="M319.7,147.38H258a.4.4,0,0,1-.26-.1.42.42,0,0,1-.1-.26,31.23,31.23,0,0,1,29.6-30.8.39.39,0,0,1,.27.1.36.36,0,0,1,.11.26v5.87a1.21,1.21,0,0,0,2.42,0v-5.87a.34.34,0,0,1,.12-.26.36.36,0,0,1,.27-.1A31.23,31.23,0,0,1,320.06,147a.37.37,0,0,1-.1.26A.4.4,0,0,1,319.7,147.38Zm-61.29-.72h60.92A30.51,30.51,0,0,0,290.81,117v5.48a1.94,1.94,0,0,1-3.88,0V117A30.51,30.51,0,0,0,258.41,146.66Z"/><path class="cls-10" d="M288.87,111.2a1.58,1.58,0,0,0-1.58,1.58v9.67a1.58,1.58,0,1,0,3.16,0v-9.67A1.58,1.58,0,0,0,288.87,111.2Z"/><path class="cls-1" d="M288.87,124.39a1.94,1.94,0,0,1-1.94-1.94v-9.67a1.94,1.94,0,0,1,3.88,0v9.67A1.94,1.94,0,0,1,288.87,124.39Zm0-12.83a1.22,1.22,0,0,0-1.21,1.22v9.67a1.21,1.21,0,0,0,2.42,0v-9.67A1.22,1.22,0,0,0,288.87,111.56Z"/><line class="cls-9" x1="290.45" y1="121.94" x2="293.35" y2="121.94"/><path class="cls-1" d="M293.35,122.3h-2.9a.37.37,0,0,1-.37-.36.38.38,0,0,1,.37-.37h2.9a.37.37,0,0,1,.37.37A.36.36,0,0,1,293.35,122.3Z"/><line class="cls-9" x1="284.39" y1="121.94" x2="287.29" y2="121.94"/><path class="cls-1" d="M336.64,170.91h-2.9a.38.38,0,0,1-.37-.37.37.37,0,0,1,.37-.36h2.9a.36.36,0,0,1,.37.36A.37.37,0,0,1,336.64,170.91Z"/><line class="cls-9" x1="319.39" y1="142.99" x2="304.25" y2="142.99"/><path class="cls-13" d="M319.39,143.35H304.25a.36.36,0,0,1,0-.72h15.14a.36.36,0,0,1,0,.72Z"/><line class="cls-9" x1="318.58" y1="139.1" x2="309.54" y2="139.1"/><path class="cls-1" d="M318.58,139.47h-9a.37.37,0,0,1-.36-.37.36.36,0,0,1,.36-.36h9a.36.36,0,0,1,.36.36A.37.37,0,0,1,318.58,139.47Z"/><path class="cls-9" d="M275.66,124A27.87,27.87,0,0,0,264,136.69"/><path class="cls-1" d="M264,137.05a.29.29,0,0,1-.16,0,.35.35,0,0,1-.17-.48,28.47,28.47,0,0,1,11.84-12.83.36.36,0,1,1,.31.65,27.94,27.94,0,0,0-11.5,12.49A.36.36,0,0,1,264,137.05Z"/><path class="cls-10" d="M85.31,139l0-16.84,11.8-7.46a2.37,2.37,0,0,0,3.52,1.2c2.56-1.34,1.74-2.15,1.74-2.15l5-3.25,5.13,5.08s-2.14,1.5-.83,2.24a3.46,3.46,0,0,0,2.61.28l3.78,3.15-.09,6.38s-.4-1.18-.75,2.21,1.23,2.36,1.23,2.36l-.21,7.44Z"/><path class="cls-1" d="M118.35,128.46a.39.39,0,0,0,.36-.52.31.31,0,0,1,0-.08,28.25,28.25,0,0,0-.2-2.91c-.07-1.14,0-2.27-.11-3.41a.31.31,0,0,0-.4-.26.4.4,0,0,0-.36-.2h-.21a.53.53,0,0,0,.14-.82,25.9,25.9,0,0,0-2.81-2.83.5.5,0,0,0-.56,0,.44.44,0,0,0-.44-.11,2.71,2.71,0,0,1-.74.26.76.76,0,0,1-.67-.37,1,1,0,0,1-.11-.7.6.6,0,0,1,.18-.32.24.24,0,0,0,.16-.41s-.12-.17-.07-.05a.23.23,0,0,0-.07-.1,3.56,3.56,0,0,0-1-1,16.62,16.62,0,0,1-1.28-1.24,25.92,25.92,0,0,1-2.24-3.07c-.19-.27-.66-.14-.63.18a.53.53,0,0,0-.52,0,32.09,32.09,0,0,0-4.58,2.47c-.18-.31-.76-.32-.82.1-.18,1.22-.65,2-2,2.08a8.14,8.14,0,0,1-1.63-.12.55.55,0,0,0-.74-.31c-4.24,1.9-8.66,3.79-12.39,6.61a.42.42,0,0,0,0,.64c-.29,2.86-.09,5.83-.09,8.7a67.25,67.25,0,0,0,.17,9,.24.24,0,0,0,.46,0h0a.26.26,0,0,0,.13.06,46.23,46.23,0,0,0,7.16.16h17.69a45.9,45.9,0,0,0,8-.21.32.32,0,0,0,0-.6h0a.44.44,0,0,0,.22-.37c.07-2,.45-4.42,0-6.46a.3.3,0,0,0,.2-.36c-.16-.63-.81-1-1.39-1.21C117.11,129.74,117.12,128.42,118.35,128.46Zm-2,2.52a.49.49,0,0,0,.32.43c.45.18.81.54,1.24.73-.59,2-.4,4.48-.49,6.55a.41.41,0,0,0,.1.28,50.34,50.34,0,0,0-6.5-.12H93.36a51.47,51.47,0,0,0-8,.17.11.11,0,0,0-.06,0,71.8,71.8,0,0,0,.09-7.48c0-3.09.23-6.29-.06-9.38a.42.42,0,0,0,.12,0c3.86-.1,7.73,0,11.59-.06a2.27,2.27,0,0,0,2.21,1.48c.84,0,2.39-1.16,1.71-2.1a.31.31,0,0,0-.48-.06,1.36,1.36,0,0,0-.28.46,1.24,1.24,0,0,1-.88.8c-.81.25-1.44-.58-1.76-1.18a.28.28,0,0,0-.31-.17h-.07c-3.59,0-7.18,0-10.77,0,3.6-2,7.17-3.88,10.94-5.57a5,5,0,0,0,3.3.17,2.57,2.57,0,0,0,1.74-2.15,29.21,29.21,0,0,0,5-2.33.52.52,0,0,0,.24-.25,12.81,12.81,0,0,0,1.72,2.61,8.4,8.4,0,0,0,2.26,2.18,1.85,1.85,0,0,0,.06,1.86,1.74,1.74,0,0,0,1.31.73,1.57,1.57,0,0,0,1.3-.45,25.41,25.41,0,0,0,2.62,2.87l.11.08h-8c-2.5,0-5.44-.44-7.85.27a.2.2,0,0,0,0,.38c2.41.72,5.35.27,7.85.27h8.67l.12,0a15.05,15.05,0,0,0,.15,5.68,1.72,1.72,0,0,0-1.18.69A3.35,3.35,0,0,0,116.37,131Z"/><path class="cls-1" d="M96.28,129.2a.4.4,0,0,0-.46-.19c-.53.15-1.07.29-1.59.49a.33.33,0,0,0-.12.57,1.9,1.9,0,0,0-.17.66,1.7,1.7,0,0,0,.9,1.9,1.57,1.57,0,0,0,1.71-.77C97.07,131.06,96.61,130,96.28,129.2Zm-1,2.62c-.7.2-.59-1.41-.11-1.67a.33.33,0,0,0,.15-.2l.35-.08C96,130.59,96.19,131.55,95.3,131.82Z"/><path class="cls-1" d="M108.18,126.38a.72.72,0,0,0-.56-.53,1.51,1.51,0,0,0-.73,0,1.57,1.57,0,0,0-1,1c-.11.3.4.51.53.22,0,0,0,0,0,0l.21,1.36a.44.44,0,0,0,.32.31,1.21,1.21,0,0,0,1.29-.63A1.91,1.91,0,0,0,108.18,126.38Zm-.73,1.35c0-.37-.1-.73-.17-1.1l.1,0a2.84,2.84,0,0,1,.18.65A.86.86,0,0,1,107.45,127.73Z"/><path class="cls-1" d="M107,115.28a1.59,1.59,0,0,0-1.84-.28,2.46,2.46,0,0,0-2,2.81c.37,1.49,2.37,1.09,3.31.51A1.91,1.91,0,0,0,107,115.28Zm-1.52,2.39c-.57.21-1.46.24-1.29-.59a.87.87,0,0,1,.28-.48.24.24,0,0,0,.33-.1.79.79,0,0,1,.14-.23,4.73,4.73,0,0,0,.8-.49.75.75,0,0,1,.81.53C106.83,117,106,117.48,105.52,117.67Z"/><path class="cls-1" d="M104,62.17c-.2-.22-.4-.43-.62-.63-1.95-1.7-5-.32-6.86.8-.68.42-2.36,2-2.19,3a8.38,8.38,0,0,0-9,3.76,11.32,11.32,0,0,0-.81,10.3c-4.1,2.28-4,8.88-.51,11.75a5.11,5.11,0,0,0,.73.48c-.39,3.89,1.39,9.64,5.76,10,5.42.45,6.25-8.78,6.71-13.06A14.14,14.14,0,0,0,100,85.36a.6.6,0,0,0,.1-.32,15.11,15.11,0,0,0,4.36-2.13.45.45,0,0,0,.62-.06,3.12,3.12,0,0,0,.49-3l0,0a11.56,11.56,0,0,0,1.27-4.46c2.54-1.08,4.89-3.27,6.84-5.07s3.71-3.73,3-6.6C115.36,58,107.26,59.23,104,62.17ZM92.54,99.89c-2.28,2.55-5.4-1.76-6.14-3.35A11.82,11.82,0,0,1,85.63,92a10.64,10.64,0,0,0,6.47-.47,16.91,16.91,0,0,0,3.79-1.93C95.48,93.19,94.9,97.25,92.54,99.89Zm4.24-12.65a.62.62,0,0,0-.68.54v.06a13.6,13.6,0,0,1-8.56,3.24,4.49,4.49,0,0,1-2-.41,1.23,1.23,0,0,0,0-.19c0-.25-.39-.3-.53-.11a6,6,0,0,1-2.5-3.91c-.46-2.35.81-4.53,2.49-6.07a8.81,8.81,0,0,0,2.44,2.91,13.87,13.87,0,0,0,11,2.17A16.39,16.39,0,0,1,96.78,87.24Zm7.63-5.18v0c-4.28,2.27-8.76,3.4-13.53,1.9a8.21,8.21,0,0,1-5-4.35l.19-.14c.28-.19,0-.68-.3-.59l-.2.07A11.2,11.2,0,0,1,85.21,72a8.42,8.42,0,0,1,4.51-5.35c3-1.52,6.18,0,8.44,2.1a22.19,22.19,0,0,1,4.06,5.51,23.8,23.8,0,0,1,1.32,2.91C103.88,78.05,105.21,81.16,104.41,82.06Zm1.38-8.32c0,.41-.06.82-.11,1.22l-.11.1a.45.45,0,0,0,0,.6c-.15.83-.34,1.64-.51,2.46-.19-.52-.39-1-.54-1.41A24.37,24.37,0,0,0,99,68.05a9.89,9.89,0,0,0-3.77-2.44c-.4-.62,1-1.79,1.34-2.1A9.12,9.12,0,0,1,99.9,62c3.39-1,4.53,2.89,5.22,5.29A20.89,20.89,0,0,1,105.79,73.74Zm9.15-6.42c-1.94,2.89-5.23,4.46-7.94,6.53a29.82,29.82,0,0,0-.1-3.17,16.8,16.8,0,0,0-2.35-7.79l0,0a9.67,9.67,0,0,1,6.64-2C114.52,61.09,116.94,64.33,114.94,67.32Z"/><path class="cls-1" d="M91.5,70.45c-1.58.29-2.61,2.34-3.13,3.71a6.36,6.36,0,0,0,.17,5.18.32.32,0,0,0,.59-.21,9.36,9.36,0,0,1,.14-4.67c.51-1.54,1.78-2.25,2.55-3.54A.31.31,0,0,0,91.5,70.45Z"/><path class="cls-1" d="M102.23,64.33c-.76-1.18-4.71-.18-4,1,.17.27.68.33.76-.06a4.52,4.52,0,0,0,.63-.25,3.3,3.3,0,0,1,1-.2,3.76,3.76,0,0,0,1.46-.1A.27.27,0,0,0,102.23,64.33Z"/><path class="cls-1" d="M113.13,63.52c-.53-1-2-1.19-3-1.28a5.12,5.12,0,0,0-3.43.88c-.3.21,0,.77.32.65a7.39,7.39,0,0,1,3-.56c1,0,1.81.72,2.76.78A.33.33,0,0,0,113.13,63.52Z"/><path class="cls-11" d="M254.55,124.58a.35.35,0,0,0-.23-.35,13.34,13.34,0,0,0-.95-5c.35-.16.65-.44.67-.72a45.19,45.19,0,0,0-.27-5.93c0-.86-1.77-.17-1.74.61,0,.1,0,.19,0,.29l0,0c-.2.09-.41.19-.6.3a6.89,6.89,0,0,0-2,.92l-.11.1c-.51,0-1.15.56-1.08,1v0a8.34,8.34,0,0,0-.53.65l-.88.75a43.12,43.12,0,0,0-4.63,4.54c-.38,0-.88.42-.75.79l0,0-.27.31-.73.92h0c-.42.12-.85.45-.88.81a1.17,1.17,0,0,0-.58.66,9.58,9.58,0,0,0-.21,1.17c-.08.16-.16.32-.23.48-.35.21-.64.54-.62.83a6.87,6.87,0,0,0,.08.78,4.09,4.09,0,0,0,0,1.84,1.68,1.68,0,0,0,1,1.31,8.42,8.42,0,0,0,2.19,2.62.65.65,0,0,0,.5.09,1.7,1.7,0,0,0,1.24,0c.19.39.4.78.62,1.15s.8-.05.8-.35c0-.07,0-.14,0-.2a7,7,0,0,0,2.37.84,7.16,7.16,0,0,0,.77.79c.12.12.43,0,.44-.2a3.38,3.38,0,0,0,0-.55,6,6,0,0,0,3.57-1.68.94.94,0,0,0,1.2-.59,7.82,7.82,0,0,0,.05-1.18l.11-.26a1.51,1.51,0,0,0,.69-.65,4.66,4.66,0,0,0,.22-1.76,1.24,1.24,0,0,0,.56-.49C255.11,127.89,254.55,126.2,254.55,124.58Z"/><path class="cls-1" d="M243.72,135.85c4.6,2.45,9.41-.61,10.71-5.34a16.87,16.87,0,0,0,.09-7.18,18.44,18.44,0,0,1-.46-3.69,26.77,26.77,0,0,0,.3-3.79c-.12-1.36-.78-3.72-2.57-3.45s-2.93,2.12-3.86,3.45a22.19,22.19,0,0,1-5.06,5,14.56,14.56,0,0,0-4.24,4.18,7.59,7.59,0,0,0,0,7.21,6.29,6.29,0,0,0,6.36,3.49.38.38,0,0,0,.36-.48.43.43,0,0,0-.26-.3.37.37,0,0,0-.37.65l-.09-.15L245,135a5.59,5.59,0,0,1-5.72-3.12,6.82,6.82,0,0,1,0-6.45c1.69-3,5.13-4.37,7.39-6.83,1.16-1.26,2-2.84,3.16-4,.51-.52,1.32-1.34,2.11-1.37,1.2-.06,1.59,1.77,1.67,2.7.17,1.85-.42,3.62-.16,5.5a35.87,35.87,0,0,1,.65,5.93,9.82,9.82,0,0,1-2.26,6.5,6.17,6.17,0,0,1-7.74,1.42c-.43-.23-.81.42-.38.65Z"/><path class="cls-1" d="M253.49,113.14a9,9,0,0,1,1.57-1.58c.64-.48,1.32-.89,2-1.31.41-.26,0-.91-.38-.65-.7.43-1.39.86-2.05,1.35a9.37,9.37,0,0,0-1.67,1.66.37.37,0,0,0,.53.53Z"/><path class="cls-1" d="M254.45,111.56a6.45,6.45,0,0,0,.18-3.32,5.37,5.37,0,0,0-1.93-2.58,24.61,24.61,0,0,1-2.67-1.82,4.92,4.92,0,0,1-1.05-3.62.38.38,0,0,0-.75,0,7,7,0,0,0,.58,3.24,5.68,5.68,0,0,0,2.19,2,7.6,7.6,0,0,1,2.56,2.19,2.86,2.86,0,0,1,.42,1.79,6.7,6.7,0,0,1-.25,1.9c-.16.46.57.66.72.2Z"/><path class="cls-1" d="M248.17,100.18a10.14,10.14,0,0,0-.38,3.76,10.36,10.36,0,0,0,.2,2,8.54,8.54,0,0,0,.61,1.59,8,8,0,0,0,2.25,2.7,7.68,7.68,0,0,0,3.22,1.59c.47.1.67-.62.2-.72a7.5,7.5,0,0,1-5.58-5.45,10.09,10.09,0,0,1-.15-1.82,9.32,9.32,0,0,1,.35-3.45c.17-.46-.56-.66-.72-.2Z"/></g></g></svg>