<svg xmlns="http://www.w3.org/2000/svg" viewBox="0 0 74.02 74.02"><defs><style>.cls-1{fill:#fbf6ea;}.cls-2{fill:#f7a395;}.cls-3{fill:#424f59;}.cls-4{fill:#fff;}</style></defs><g id="Слой_2" data-name="Слой 2"><g id="low_panel"><circle class="cls-1" cx="37.01" cy="37.01" r="37.01"/><path class="cls-2" d="M56.39,15.16,56.12,15l-.28-.16a4,4,0,0,0-3.7,0l-.27.16-.27.16a4,4,0,0,1-3.7,0L47.62,15l-.27-.16a4,4,0,0,0-3.7,0l-.27.16-.27.16a4,4,0,0,1-3.71,0L39.13,15l-.27-.16a4,4,0,0,0-3.7,0l-.28.16-.27.16a4,4,0,0,1-3.7,0L30.64,15l-.27-.16a4,4,0,0,0-3.71,0l-.27.16-.27.16a4,4,0,0,1-3.7,0L22.15,15l-.28-.16a4,4,0,0,0-3.7,0L17.9,15l-.27.16a3.69,3.69,0,0,1-1.84.45V58.28a3.69,3.69,0,0,0,1.84-.45l.54-.32a4,4,0,0,1,3.7,0l.55.32a4,4,0,0,0,3.7,0l.54-.32a4,4,0,0,1,3.71,0l.54.32a4,4,0,0,0,3.7,0l.55-.32a4,4,0,0,1,3.7,0l.54.32a4,4,0,0,0,3.71,0l.54-.32a4,4,0,0,1,3.7,0l.55.32a4,4,0,0,0,3.7,0l.54-.32a4,4,0,0,1,3.7,0l.55.32a3.68,3.68,0,0,0,1.83.45V15.61A3.68,3.68,0,0,1,56.39,15.16Z"/><path class="cls-3" d="M58.22,58.51h0A3.91,3.91,0,0,1,56.27,58l-.54-.32a3.79,3.79,0,0,0-3.47,0l-.54.32a4.28,4.28,0,0,1-3.94,0l-.55-.32a3.77,3.77,0,0,0-3.46,0l-.55.32a4.26,4.26,0,0,1-3.93,0l-.55-.32a3.77,3.77,0,0,0-3.46,0l-.55.32a4.28,4.28,0,0,1-3.94,0l-.54-.32a3.79,3.79,0,0,0-3.47,0l-.54.32a4.28,4.28,0,0,1-3.94,0l-.55-.32a3.77,3.77,0,0,0-3.46,0l-.55.32a3.86,3.86,0,0,1-1.95.48h0a.24.24,0,0,1-.23-.23V55.63a.23.23,0,0,1,.46,0V58a3.38,3.38,0,0,0,1.49-.41l.54-.33a4.28,4.28,0,0,1,3.94,0l.55.33a3.83,3.83,0,0,0,3.46,0l.55-.33a4.26,4.26,0,0,1,3.93,0l.55.33a3.83,3.83,0,0,0,3.46,0L35,57.3a4.28,4.28,0,0,1,3.94,0l.54.33a3.86,3.86,0,0,0,3.47,0l.54-.33a4.28,4.28,0,0,1,3.94,0l.55.33a3.83,3.83,0,0,0,3.46,0L52,57.3a4.26,4.26,0,0,1,3.93,0l.55.33A3.38,3.38,0,0,0,58,58V55.63a.24.24,0,0,1,.47,0v2.65a.24.24,0,0,1-.07.16A.21.21,0,0,1,58.22,58.51Z"/><path class="cls-3" d="M58.22,18.4a.24.24,0,0,1-.23-.24V15.84a3.72,3.72,0,0,1-1.72-.48L55.73,15a3.86,3.86,0,0,0-3.47,0l-.54.32a4.22,4.22,0,0,1-3.94,0L47.23,15a3.83,3.83,0,0,0-3.46,0l-.55.32a4.2,4.2,0,0,1-3.93,0L38.74,15a3.83,3.83,0,0,0-3.46,0l-.55.32a4.22,4.22,0,0,1-3.94,0L30.25,15a3.86,3.86,0,0,0-3.47,0l-.54.32a4.22,4.22,0,0,1-3.94,0L21.75,15a3.83,3.83,0,0,0-3.46,0l-.55.32a3.69,3.69,0,0,1-1.72.48v2.32a.23.23,0,1,1-.46,0V15.61a.23.23,0,0,1,.23-.23A3.45,3.45,0,0,0,17.51,15l.54-.32a4.28,4.28,0,0,1,3.94,0l.55.32A3.77,3.77,0,0,0,26,15l.55-.32a4.26,4.26,0,0,1,3.93,0L31,15a3.77,3.77,0,0,0,3.46,0l.55-.32a4.28,4.28,0,0,1,3.94,0l.54.32A3.79,3.79,0,0,0,43,15l.54-.32a4.28,4.28,0,0,1,3.94,0L48,15a3.77,3.77,0,0,0,3.46,0l.55-.32a4.26,4.26,0,0,1,3.93,0l.55.32a3.4,3.4,0,0,0,1.72.42.24.24,0,0,1,.23.23v2.55A.24.24,0,0,1,58.22,18.4Z"/><path class="cls-1" d="M52.79,36.33A15.78,15.78,0,1,1,37,20.55,15.79,15.79,0,0,1,52.79,36.33Z"/><path class="cls-3" d="M37,52.35a16,16,0,1,1,16-16A16,16,0,0,1,37,52.35Zm0-31.56A15.55,15.55,0,1,0,52.56,36.33,15.56,15.56,0,0,0,37,20.79Z"/><path class="cls-4" d="M48.15,36.33A11.15,11.15,0,1,1,37,25.19,11.15,11.15,0,0,1,48.15,36.33Z"/><path class="cls-3" d="M37,47.71A11.38,11.38,0,1,1,48.39,36.33,11.39,11.39,0,0,1,37,47.71Zm0-22.29A10.92,10.92,0,1,0,47.92,36.33,10.92,10.92,0,0,0,37,25.42Z"/><path class="cls-3" d="M27.54,36.57a.23.23,0,0,1-.23-.24A9.71,9.71,0,0,1,37,26.64a.23.23,0,1,1,0,.46,9.24,9.24,0,0,0-9.23,9.23A.24.24,0,0,1,27.54,36.57Z"/><path class="cls-1" d="M56.12,23.4V36.78h1.53l-.48,15.7a1.08,1.08,0,1,0,2.15,0V20.13A3.27,3.27,0,0,0,56.12,23.4Z"/><path class="cls-3" d="M58.25,53.79a1.31,1.31,0,0,1-1.31-1.31L57.41,37H56.12a.23.23,0,0,1-.23-.23V23.4a3.54,3.54,0,0,1,3.43-3.51.26.26,0,0,1,.16.07.21.21,0,0,1,.07.17V52.48A1.31,1.31,0,0,1,58.25,53.79Zm-1.9-17.25h1.3a.24.24,0,0,1,.23.24L57.4,52.49a.85.85,0,0,0,1.69,0V20.37a3.07,3.07,0,0,0-2.74,3Z"/><line class="cls-4" x1="57.04" y1="36.78" x2="57.04" y2="30.07"/><path class="cls-3" d="M57,37a.24.24,0,0,1-.24-.23V30.07a.24.24,0,0,1,.47,0v6.71A.24.24,0,0,1,57,37Z"/><line class="cls-4" x1="57.04" y1="28.96" x2="57.04" y2="25.42"/><path class="cls-3" d="M57,29.2A.24.24,0,0,1,56.8,29V25.42a.24.24,0,0,1,.47,0V29A.24.24,0,0,1,57,29.2Z"/><path class="cls-1" d="M15.36,32.23l1.13,0,.75,19.93s-.89,1.57-1.45,1.45-1.44-1.44-1.44-1.44Z"/><path class="cls-3" d="M15.79,53.57a1.44,1.44,0,0,1-1.44-1.44L14.9,32a.23.23,0,0,1,.27-.23,3.23,3.23,0,0,0,1.24,0,.23.23,0,0,1,.27.23l.56,20.16A1.45,1.45,0,0,1,15.79,53.57Zm-.43-21.34-.55,19.9a1,1,0,0,0,2,0l-.54-19.9A4.22,4.22,0,0,1,15.36,32.23Z"/><path class="cls-1" d="M19.8,28a4.21,4.21,0,0,0,0-.5,12,12,0,0,0-2.07-6.24,2.55,2.55,0,0,0-1.9-1.07,2.38,2.38,0,0,0-1.89,1.07,11.92,11.92,0,0,0-2.08,6.24,4.19,4.19,0,0,0,0,.5v.22h0A4,4,0,0,0,15.13,32a3.68,3.68,0,0,0,.66.06,3.52,3.52,0,0,0,.66-.06,4,4,0,0,0,3.34-3.72h0s0-.06,0-.1S19.8,28.06,19.8,28Z"/><path class="cls-3" d="M15.79,32.25a4.41,4.41,0,0,1-.7-.06,4.27,4.27,0,0,1-3.53-3.88s0,0,0-.07v-.06c0-.07,0-.12,0-.16a4.55,4.55,0,0,1,0-.52,12.08,12.08,0,0,1,2.12-6.36,2.68,2.68,0,0,1,2-1.16h.06a2.76,2.76,0,0,1,2.06,1.15A12.26,12.26,0,0,1,20,27.51,4.36,4.36,0,0,1,20,28v.22a.22.22,0,0,1,0,.08,4.26,4.26,0,0,1-3.53,3.87A4.41,4.41,0,0,1,15.79,32.25ZM12,28.2s0,0,0,0a3.77,3.77,0,0,0,3.14,3.5,3.23,3.23,0,0,0,1.24,0,3.79,3.79,0,0,0,3.15-3.5V28a3.59,3.59,0,0,0,0-.47,11.89,11.89,0,0,0-2-6.12,2.35,2.35,0,0,0-1.69-1h-.06a2.24,2.24,0,0,0-1.67,1,11.88,11.88,0,0,0-2,6.11A3.87,3.87,0,0,0,12,28v.18Z"/><path class="cls-3" d="M16.3,31.28a.23.23,0,0,1-.23-.2.24.24,0,0,1,.19-.27,2.85,2.85,0,0,0,2.37-2.63.22.22,0,0,1,.24-.22.24.24,0,0,1,.22.25,3.31,3.31,0,0,1-2.75,3.06Z"/></g></g></svg>