<svg id="Layer_1" data-name="Layer 1" xmlns="http://www.w3.org/2000/svg" viewBox="0 0 361.43 282.57"><defs><style>.cls-1{fill:#48505a;}.cls-2{fill:#e0effa;}.cls-3{fill:#f4a799;}.cls-14,.cls-4,.cls-6{fill:none;stroke-miterlimit:10;}.cls-4{stroke:#545450;}.cls-5{fill:#8ecaea;}.cls-14,.cls-6{stroke:#48505a;}.cls-7{fill:#fff;}.cls-8{fill:#fbcf67;}.cls-9{fill:#f7fbff;}.cls-10{fill:#545450;}.cls-11{fill:#474f55;}.cls-12{fill:#f29896;}.cls-13{isolation:isolate;}.cls-14{stroke-width:2px;}</style></defs><title>scheduler_b_icon</title><g id="Слой_2" data-name="Слой 2"><g id="Слой_1-2" data-name="Слой 1-2"><path class="cls-1" d="M105,181.85H79a1.6,1.6,0,0,1-.26-3.19H105a1.6,1.6,0,0,1,.25,3.19,1,1,0,0,1-.25,0" transform="translate(0)"/><path class="cls-1" d="M66.79,181.85H57.61a1.6,1.6,0,0,1,0-3.19h9.18a1.6,1.6,0,0,1,.25,3.19,1,1,0,0,1-.25,0" transform="translate(0)"/><path class="cls-1" d="M289.33,181.85h-9.18a1.6,1.6,0,0,1,0-3.19h9.18a1.6,1.6,0,0,1,.25,3.19,1,1,0,0,1-.25,0" transform="translate(0)"/><path class="cls-2" d="M313.48,181.37a121.63,121.63,0,1,0-239.13,0Z" transform="translate(0)"/><rect class="cls-3" x="267.94" y="75.4" width="21.14" height="103.99"/><rect class="cls-4" x="267.94" y="75.4" width="21.14" height="103.99"/><path class="cls-5" d="M329.06,123.21H339.2v56.43H328s1.09-57.07,1.09-56.43" transform="translate(0)"/><path class="cls-6" d="M329.06,123.21H339.2v56.43H328S329.06,122.57,329.06,123.21Z" transform="translate(0)"/><rect class="cls-7" x="329.66" y="128.1" width="4.23" height="49.32"/><polygon class="cls-8" points="282.77 116.97 330.27 116.97 330.27 178.69 282.62 178.69 282.77 116.97"/><polygon class="cls-4" points="282.77 116.97 330.27 116.97 330.27 178.69 282.62 178.69 282.77 116.97"/><path class="cls-1" d="M139.44,99.46A4.56,4.56,0,1,1,144,94.9h0a4.58,4.58,0,0,1-4.56,4.56m0-7.61a3.05,3.05,0,1,0,3,3.1v-.1a3,3,0,0,0-3-3h0" transform="translate(0)"/><path class="cls-1" d="M308.94,88.14a3.44,3.44,0,1,1,3.44-3.44,3.44,3.44,0,0,1-3.44,3.44h0m0-5.36a1.92,1.92,0,1,0,1.92,1.92,1.92,1.92,0,0,0-1.92-1.92h0" transform="translate(0)"/><path class="cls-9" d="M95.47,69.19l1.08,2.19a.36.36,0,0,0,.27.19l2.42.35a.35.35,0,0,1,.29.42h0a.34.34,0,0,1-.09.19l-1.75,1.7a.37.37,0,0,0-.1.32L98,77a.37.37,0,0,1-.3.42.41.41,0,0,1-.22,0l-2.15-1.13a.34.34,0,0,0-.34,0l-2.16,1.13a.37.37,0,0,1-.49-.15.31.31,0,0,1,0-.23l.41-2.4a.32.32,0,0,0-.1-.32l-1.75-1.7a.37.37,0,0,1,0-.52.35.35,0,0,1,.19-.1l2.42-.35a.32.32,0,0,0,.27-.19l1.08-2.19a.33.33,0,0,1,.39-.28h0a.39.39,0,0,1,.18.18" transform="translate(0)"/><rect class="cls-7" x="292.19" y="132.63" width="28.74" height="16.06"/><rect class="cls-4" x="292.19" y="132.63" width="28.74" height="16.06"/><path class="cls-1" d="M288.08,88.76h-8.46a1,1,0,0,1,0-2h8.46a1,1,0,0,1,0,2" transform="translate(0)"/><path class="cls-1" d="M288.08,111.17h-8.46a1.18,1.18,0,0,1-1.32-1c0-.56.59-1,1.32-1h8.46c.73,0,1.32.44,1.32,1a1.18,1.18,0,0,1-1.32,1" transform="translate(0)"/><path class="cls-1" d="M288.08,96h-5.92c-.73,0-1.33-.45-1.33-1s.6-1,1.33-1h5.92a1,1,0,0,1,0,2" transform="translate(0)"/><path class="cls-1" d="M288.08,101.87h-5.92c-.73,0-1.33-.45-1.33-1s.6-1,1.33-1h5.92c.73,0,1.32.44,1.32,1a1.18,1.18,0,0,1-1.32,1" transform="translate(0)"/><path class="cls-3" d="M44.33,112v67.4H72.77L69.62,119v-9H44.33s-12.73-.63-12.73,12H43.41" transform="translate(0)"/><path class="cls-6" d="M44.33,112v67.4H72.77L69.62,119v-9H44.33s-12.73-.63-12.73,12H43.41" transform="translate(0)"/><path class="cls-1" d="M67.08,129.85h-11c-1.15,0-2.08-.44-2.08-1s.93-1,2.08-1h11c1.15,0,2.08.45,2.08,1s-.93,1-2.08,1" transform="translate(0)"/><path class="cls-1" d="M67.08,139.58h-11c-1.15,0-2.08-.45-2.08-1s.93-1,2.08-1h11c1.15,0,2.08.44,2.08,1s-.93,1-2.08,1" transform="translate(0)"/><path class="cls-1" d="M60.74,150.57H56.09c-1.15,0-2.08-.45-2.08-1s.93-1,2.08-1h4.65c1.15,0,2.08.45,2.08,1s-.93,1-2.08,1" transform="translate(0)"/><path class="cls-10" d="M219,112.3a2.86,2.86,0,1,1-2.87-2.85h0A2.87,2.87,0,0,1,219,112.3" transform="translate(0)"/><path class="cls-10" d="M168.57,97.49a2.86,2.86,0,1,1-2.87-2.85h0a2.87,2.87,0,0,1,2.85,2.85" transform="translate(0)"/><path class="cls-10" d="M145.42,112.94a1.43,1.43,0,1,1-1.43-1.43h0a1.43,1.43,0,0,1,1.42,1.43" transform="translate(0)"/><path class="cls-10" d="M205.16,101.19a2.32,2.32,0,1,1-2.32-2.32,2.32,2.32,0,0,1,2.32,2.32h0" transform="translate(0)"/><path class="cls-11" d="M303.75,105.45a2.38,2.38,0,1,1-2.39-2.37h0a2.38,2.38,0,0,1,2.38,2.37" transform="translate(0)"/><path class="cls-1" d="M116.85,73c-4.06,0-6.26-9-6.26-17.54s2.2-17.54,6.26-17.54,6.25,9,6.25,17.54S120.91,73,116.85,73m0-33.39c-1.91,0-4.56,6-4.56,15.85s2.65,15.85,4.56,15.85,4.56-6,4.56-15.85-2.66-15.85-4.56-15.85" transform="translate(0)"/><path class="cls-1" d="M116.85,61.73c-8.52,0-17.52-2.19-17.52-6.25s9-6.25,17.54-6.25,17.54,2.19,17.54,6.25-9,6.25-17.54,6.25m0-10.81c-9.82,0-15.85,2.65-15.85,4.56S107,60,116.87,60s15.85-2.65,15.85-4.56-6-4.56-15.85-4.56" transform="translate(0)"/><path class="cls-1" d="M126.9,68.74c-3.37,0-9.19-3.55-14.47-8.84-6-6-10.86-13.95-8-16.82a3.14,3.14,0,0,1,2.35-.86c3.38,0,9.19,3.55,14.48,8.84,6,6,10.85,14,8,16.82a3.14,3.14,0,0,1-2.35.86M106.79,43.91a1.55,1.55,0,0,0-1.15.36c-1.35,1.35,1,7.49,8,14.44C118.53,63.62,124,67,126.9,67a1.57,1.57,0,0,0,1.16-.36c1.34-1.35-1-7.49-8-14.44-4.91-4.91-10.37-8.34-13.28-8.34" transform="translate(0)"/><path class="cls-1" d="M106.79,68.74a3.14,3.14,0,0,1-2.35-.86c-2.87-2.87,2-10.81,8-16.82,5.28-5.29,11.1-8.84,14.47-8.84a3.22,3.22,0,0,1,2.35.86c2.87,2.87-2,10.81-8,16.82-5.28,5.29-11.1,8.84-14.48,8.84m20.11-24.83c-2.91,0-8.37,3.43-13.28,8.34-6.94,7-9.33,13.09-8,14.44a1.55,1.55,0,0,0,1.15.36c2.91,0,8.37-3.43,13.29-8.34,6.94-7,9.32-13.09,8-14.44a1.57,1.57,0,0,0-1.16-.36" transform="translate(0)"/><path class="cls-9" d="M118.52,55.55a1.38,1.38,0,1,1-1.39-1.37h0a1.38,1.38,0,0,1,1.38,1.37" transform="translate(0)"/><path class="cls-3" d="M127.38,67.71a1.89,1.89,0,1,1-1.89-1.89h0a1.89,1.89,0,0,1,1.89,1.89" transform="translate(0)"/><path class="cls-5" d="M117.24,39.82a1.89,1.89,0,1,1-1.91-1.89,1.89,1.89,0,0,1,1.91,1.89v0" transform="translate(0)"/><path class="cls-1" d="M359.73,181.86H1.6a1.6,1.6,0,0,1,0-3.2H359.73a1.6,1.6,0,0,1,0,3.2" transform="translate(0)"/><path class="cls-1" d="M359.73,282.57H1.6a1.6,1.6,0,0,1,0-3.19H359.73a1.6,1.6,0,0,1,.25,3.19h-.25" transform="translate(0)"/><polygon class="cls-7" points="250.78 82.7 226.89 82.7 226.89 127.49 258.93 127.49 258.93 90.85 250.78 82.7"/><path class="cls-1" d="M258.93,128.12h-32a.64.64,0,0,1-.62-.63V82.7a.62.62,0,0,1,.62-.62h23.89a.67.67,0,0,1,.44.18l8.15,8.15a.67.67,0,0,1,.18.44v36.64a.65.65,0,0,1-.62.63m-31.42-1.25h30.78V91.1l-7.79-7.78h-23Z" transform="translate(0)"/><polygon class="cls-7" points="250.78 90.85 258.93 90.85 250.78 82.7 250.78 90.85"/><path class="cls-1" d="M258.93,91.47h-8.15a.62.62,0,0,1-.62-.62V82.7a.62.62,0,0,1,1.06-.44l8.15,8.15a.65.65,0,0,1,.13.68.62.62,0,0,1-.57.38m-7.53-1.24h6l-6-6Z" transform="translate(0)"/><rect class="cls-12" x="231.97" y="94.86" width="18.14" height="4.35"/><rect class="cls-12" x="231.97" y="105.1" width="18.14" height="4.35"/><rect class="cls-12" x="231.97" y="115.34" width="18.14" height="4.35"/><path class="cls-1" d="M253.84,95.48H232a.62.62,0,0,1,0-1.24h21.87a.62.62,0,0,1,0,1.24" transform="translate(0)"/><path class="cls-1" d="M253.84,105.72H232a.62.62,0,1,1,0-1.24h21.87a.62.62,0,1,1,0,1.24h0" transform="translate(0)"/><path class="cls-1" d="M253.84,116H232a.62.62,0,1,1,0-1.24h21.87a.62.62,0,1,1,0,1.24" transform="translate(0)"/><g class="cls-13"><path class="cls-1" d="M24.77,214.09c6.05,0,9.36,2,9.36,9.89,0,8.69-4.65,10.75-9.12,10.75h-.33v12c0,1-.05,1-5.38,1V215.05c0-.67.14-1,1-1Zm.87,15.7c1.48,0,2.44-1.11,2.44-6.49,0-3.07-.62-4.56-2.11-4.56H24.68v11Z" transform="translate(0)"/></g><g class="cls-13"><path class="cls-1" d="M55,246.83c.15.62-.24,1-2.4,1-.72,0-1.72,0-3.12-.1l-1.58-7.63H41.52l-1.39,6.72c-.14.67-.29,1-2.45,1a32,32,0,0,1-3.4-.2l8-32.59c.15-.72.92-1,2.16-1a13.74,13.74,0,0,1,2.55.19ZM46.9,235.21,46,230.75c-.53-2.55-1-6.05-1.25-9.08-.33,3-.77,6.53-1.3,9.08l-.91,4.46Z" transform="translate(0)"/></g><g class="cls-13"><path class="cls-1" d="M71.67,216.2a7.48,7.48,0,0,1-.77,3.22,4.11,4.11,0,0,0-2.49-.82c-2.74,0-5.24,2.5-5.24,13,0,8.35,1.06,10.85,3.75,10.85a8.36,8.36,0,0,0,3.74-.72,7.83,7.83,0,0,1,.72,3.17c0,2.25-2.21,3.55-5.85,3.55-5.43,0-8-3-8-16.42,0-15.74,5.28-18.62,9.6-18.62C71.19,213.37,71.67,214.76,71.67,216.2Z" transform="translate(0)"/><path class="cls-1" d="M85.93,219.13H81.41v27.6c0,1,0,1-5.37,1V215.05c0-1,.09-1,5.37-1H91.3v32.64c0,1,0,1-5.37,1Z" transform="translate(0)"/><path class="cls-1" d="M102.34,246.39c-.53,1.3-.43,1.3-5.66,1.3V215.05c0-1-.1-1,5.37-1v12.62c0,2-.33,6.87-.57,9.84.81-3,2.16-8.25,2.59-9.45l4.61-11.72c.53-1.29.57-1.29,5.76-1.29v32.64c0,1,.09,1-5.38,1V235.35c0-2.11.34-8.11.67-11a106,106,0,0,1-2.83,10.47Z" transform="translate(0)"/></g><g class="cls-13"><path class="cls-1" d="M133.44,216.2a7.48,7.48,0,0,1-.77,3.22,4.11,4.11,0,0,0-2.49-.82c-2.74,0-5.24,2.5-5.24,13,0,8.35,1.06,10.85,3.75,10.85a8.36,8.36,0,0,0,3.74-.72,7.83,7.83,0,0,1,.72,3.17c0,2.25-2.21,3.55-5.85,3.55-5.43,0-8-3-8-16.42,0-15.74,5.28-18.62,9.6-18.62C133,213.37,133.44,214.76,133.44,216.2Z" transform="translate(0)"/></g><g class="cls-13"><path class="cls-1" d="M157.11,246.83c.15.62-.24,1-2.4,1-.72,0-1.72,0-3.12-.1L150,240.06h-6.39l-1.39,6.72c-.14.67-.29,1-2.45,1a32,32,0,0,1-3.4-.2l8-32.59c.15-.72.91-1,2.16-1a13.88,13.88,0,0,1,2.55.19ZM149,235.21l-.91-4.46c-.53-2.55-1-6.05-1.25-9.08-.34,3-.77,6.53-1.3,9.08l-.91,4.46Z" transform="translate(0)"/><path class="cls-1" d="M176.51,246.73c0,1,.09,1-5.38,1v-15.5h-4.61v14.54c0,1,.1,1-5.38,1V215.05c0-1-.09-1,5.38-1v13.2h4.61V215.05c0-1-.1-1,5.38-1Z" transform="translate(0)"/><path class="cls-1" d="M187.54,246.39c-.52,1.3-.43,1.3-5.66,1.3V215.05c0-1-.1-1,5.38-1v12.62c0,2-.34,6.87-.58,9.84.82-3,2.16-8.25,2.59-9.45l4.61-11.72c.53-1.29.58-1.29,5.76-1.29v32.64c0,1,.1,1-5.38,1V235.35c0-2.11.34-8.11.68-11-.58,2.5-2.12,8.83-2.84,10.47Z" transform="translate(0)"/><path class="cls-1" d="M210.34,242.89h6.77c0,4.51,0,4.8-1,4.8H205V215.05a1,1,0,0,1,1-1h11.52c0,4.32,0,4.8-1,4.8h-6.15v8.16h5.81c0,4,0,4.9-.91,4.9h-4.9Z" transform="translate(0)"/></g><g class="cls-13"><path class="cls-1" d="M235.06,214.09l2,8.69c.68,4.7,1.54,9,1.92,12.14a95.11,95.11,0,0,1,1.44-12.14l1.15-6.92c.25-1.2.53-1.77,1.78-1.77h3.84c0,.57-4.66,23.81-5.18,26.16-.91,4.66-1.54,7.73-5.28,7.68-2.12,0-4.08-.72-4.28-1.78a7.2,7.2,0,0,1,.92-3.84,6.59,6.59,0,0,0,2.35.87c.77,0,1.1-1.11,1.25-2.26-1.44-3.41-5.43-18.48-6.77-24a10,10,0,0,1-.43-2.06c0-.63.48-.77,1.44-.77Z" transform="translate(0)"/></g><g class="cls-13"><path class="cls-1" d="M256.7,214.09c6.05,0,9.36,2,9.36,9.89,0,8.69-4.65,10.75-9.12,10.75h-.33v12c0,1-.05,1-5.38,1V215.05c0-.67.14-1,1-1Zm.87,15.7c1.48,0,2.44-1.11,2.44-6.49,0-3.07-.62-4.56-2.11-4.56h-1.29v11Z" transform="translate(0)"/><path class="cls-1" d="M279.07,213.66c6.24,0,8.55,3.6,8.55,16.84,0,13.49-2.79,17.62-9.08,17.62s-8.64-3.21-8.64-17.42C269.9,217.64,272.88,213.66,279.07,213.66Zm-.24,28.89c2.35,0,2.88-3.36,2.88-11.85s-.24-11.52-2.83-11.52c-2.21,0-2.83,3.31-2.83,12.72C276.05,239.39,276.38,242.55,278.83,242.55Z" transform="translate(0)"/></g><g class="cls-13"><path class="cls-1" d="M303,214.42a17,17,0,0,1,3.46-.38c1.92,0,2.68.38,2.3,1.34l-5.47,13.06c3.5,3.27,5.18,9.75,5.18,18.24,0,.87-.33,1.11-2.25,1.11-1.2,0-2.5,0-3.84-.15,0-5.85-.44-11.57-3.17-14.64A4.33,4.33,0,0,0,297.8,232v14.78c0,1,0,1-5.48,1V215.05c0-1,0-1,5.48-1v13.73Z" transform="translate(0)"/></g><g class="cls-13"><path class="cls-1" d="M321.12,213.66c6.24,0,8.54,3.6,8.54,16.84,0,13.49-2.78,17.62-9.07,17.62S312,244.91,312,230.7C312,217.64,314.93,213.66,321.12,213.66Zm-.24,28.89c2.35,0,2.88-3.36,2.88-11.85s-.24-11.52-2.83-11.52c-2.21,0-2.84,3.31-2.84,12.72C318.09,239.39,318.43,242.55,320.88,242.55Z" transform="translate(0)"/></g><g class="cls-13"><path class="cls-1" d="M334.46,215.05c0-.63.29-1,1.34-1h4.71c4,0,8.11,1.29,8.11,7.53,0,4.9-2.3,7.4-4.41,7.68,2.35.24,5.52,1.35,5.52,7,0,6.33-2.5,11.42-9,11.42h-6.29Zm5.47,12.29h.91c1.16,0,1.83-1.83,1.83-4.56,0-3.36-.77-4-1.63-4h-1.11Zm0,15.69h1c1.49,0,2.4-2.35,2.4-6.28,0-4.33-.81-4.9-2.3-4.9h-1.06Z" transform="translate(0)"/></g><polyline class="cls-7" points="201.36 50.89 214.73 59.19 214.73 70.26 201.36 70.26"/><polyline class="cls-14" points="201.36 50.89 214.73 59.19 214.73 70.26 201.36 70.26"/><polyline class="cls-7" points="171.39 50.43 158.02 58.73 158.02 69.8 171.39 69.8"/><polyline class="cls-14" points="171.39 50.43 158.02 58.73 158.02 69.8 171.39 69.8"/><polyline class="cls-7" points="171.06 21.21 186.16 1 186.32 1 201.42 21.21"/><polyline class="cls-14" points="171.06 21.21 186.16 1 186.32 1 201.42 21.21"/><polygon class="cls-8" points="186.18 2.25 180.76 9.5 191.71 9.5 186.3 2.25 186.18 2.25"/><rect class="cls-3" x="171.62" y="21.31" width="29.28" height="53.62"/><rect class="cls-14" x="171.62" y="21.31" width="29.28" height="53.62"/><rect class="cls-8" x="180.67" y="21.31" width="20.23" height="53.62"/><rect class="cls-14" x="180.67" y="21.31" width="20.23" height="53.62"/><rect class="cls-5" x="191.14" y="21.31" width="9.76" height="53.62"/><rect class="cls-14" x="191.14" y="21.31" width="9.76" height="53.62"/><line class="cls-14" x1="200.9" y1="65.39" x2="171.62" y2="65.39"/><path class="cls-1" d="M175.72,85.78a1.43,1.43,0,0,1-1.44-1.42v0h0V76.25a1.44,1.44,0,0,1,2.88,0v8.09a1.43,1.43,0,0,1-1.44,1.44h0" transform="translate(0)"/><path class="cls-1" d="M175.72,95.92a1.43,1.43,0,0,1-1.44-1.4V88.78a1.44,1.44,0,0,1,2.88,0h0v5.7a1.44,1.44,0,0,1-1.42,1.44h0" transform="translate(0)"/><path class="cls-1" d="M186.24,105.15a1.45,1.45,0,0,1-1.45-1.45V99.62a1.45,1.45,0,0,1,2.89,0v4.08a1.47,1.47,0,0,1-1.44,1.45" transform="translate(0)"/><path class="cls-1" d="M196,81.74a1.43,1.43,0,0,1-1.44-1.42v0h0v-4a1.45,1.45,0,0,1,1.32-1.57h0a1.46,1.46,0,0,1,1.57,1.33V80.3A1.45,1.45,0,0,1,196,81.74" transform="translate(0)"/><path class="cls-1" d="M186.26,95.92a1.43,1.43,0,0,1-1.44-1.4V76.25a1.45,1.45,0,0,1,1.32-1.57h0A1.45,1.45,0,0,1,187.71,76V94.48a1.43,1.43,0,0,1-1.44,1.44h0" transform="translate(0)"/><rect class="cls-3" x="172.51" y="66.38" width="8.16" height="7.5"/><rect class="cls-8" x="180.67" y="66.38" width="10.47" height="7.5"/><rect class="cls-5" x="191.14" y="66.38" width="9.19" height="7.5"/><path class="cls-5" d="M110.91,179.39H77.33a7.76,7.76,0,0,1-7.75-7.75V105.13a7.79,7.79,0,0,1,7.75-7.75h33.54a7.79,7.79,0,0,1,7.75,7.75v66.51a7.76,7.76,0,0,1-7.75,7.75" transform="translate(0)"/><rect class="cls-6" x="69.62" y="97.38" width="49.04" height="82.01" rx="7.75"/><path class="cls-7" d="M105.21,166.24H83.06a5.45,5.45,0,0,1-5.41-5.42V112.15a5.45,5.45,0,0,1,5.41-5.42h22.15a5.45,5.45,0,0,1,5.41,5.42v48.67a5.45,5.45,0,0,1-5.41,5.42" transform="translate(0)"/><rect class="cls-6" x="77.65" y="106.73" width="32.97" height="59.5" rx="5.41"/><path class="cls-8" d="M102.13,136a8.38,8.38,0,1,1-8.39-8.37h0a8.37,8.37,0,0,1,8.37,8.37h0" transform="translate(0)"/><polygon class="cls-1" points="91.89 139.41 91.89 132.48 97.91 135.94 91.89 139.41"/><polygon class="cls-6" points="91.89 139.41 91.89 132.48 97.91 135.94 91.89 139.41"/><path class="cls-7" d="M282.17,180.42a12.64,12.64,0,0,0-12.86-10,4.36,4.36,0,0,0-1.14.1,22.13,22.13,0,0,0-22.07-20.65H245A22.12,22.12,0,0,0,213.43,134a40.28,40.28,0,0,0-76.32,18v.17a22.41,22.41,0,0,0-5.53-.7,22.11,22.11,0,0,0-21.89,19H109a12.64,12.64,0,0,0-11.88,10Z" transform="translate(0)"/><path class="cls-14" d="M282.17,180.42a12.64,12.64,0,0,0-12.86-10,4.36,4.36,0,0,0-1.14.1,22.13,22.13,0,0,0-22.07-20.65H245A22.12,22.12,0,0,0,213.43,134a40.28,40.28,0,0,0-76.32,18v.17a22.41,22.41,0,0,0-5.53-.7,22.11,22.11,0,0,0-21.89,19H109a12.64,12.64,0,0,0-11.88,10Z" transform="translate(0)"/><path class="cls-10" d="M185.51,143a3.38,3.38,0,1,1-3.38-3.38,3.38,3.38,0,0,1,3.38,3.38h0" transform="translate(0)"/><path class="cls-10" d="M230.74,167.13a1.69,1.69,0,1,1-1.69-1.69,1.68,1.68,0,0,1,1.69,1.67h0" transform="translate(0)"/><path class="cls-10" d="M163.25,151.21a3.38,3.38,0,1,1-3.38-3.38,3.38,3.38,0,0,1,3.38,3.38h0" transform="translate(0)"/><path class="cls-10" d="M197.63,141.35a1.69,1.69,0,1,1-1.69-1.69,1.69,1.69,0,0,1,1.69,1.69h0" transform="translate(0)"/><path class="cls-10" d="M240,166.29a1.69,1.69,0,1,1-1.69-1.69,1.69,1.69,0,0,1,1.69,1.69h0" transform="translate(0)"/><path class="cls-10" d="M162.05,142.41a1.69,1.69,0,1,1-1.69-1.7,1.69,1.69,0,0,1,1.69,1.7h0" transform="translate(0)"/><path class="cls-10" d="M220.18,154a3.39,3.39,0,1,1-3.4-3.38h0a3.38,3.38,0,0,1,3.39,3.37h0" transform="translate(0)"/><path class="cls-10" d="M191.26,153a1.27,1.27,0,1,1-1.27-1.27,1.27,1.27,0,0,1,1.27,1.27h0" transform="translate(0)"/><path class="cls-10" d="M142,165.87a1.27,1.27,0,1,1-1.27-1.27,1.27,1.27,0,0,1,1.27,1.27h0" transform="translate(0)"/></g></g></svg>