<svg xmlns="http://www.w3.org/2000/svg" viewBox="0 0 74.02 74.02"><defs><style>.cls-1{fill:#fbf6ea;}.cls-2{fill:#fff;}.cls-3{fill:#424f59;}.cls-4{fill:#f7a395;}.cls-5{fill:#f9cc6c;}.cls-6{fill:#7fc6e6;}.cls-7{fill:#de7345;}.cls-8{fill:#deedd5;}</style></defs><g id="Слой_2" data-name="Слой 2"><g id="low_panel"><circle class="cls-1" cx="37.01" cy="37.01" r="37.01"/><polyline class="cls-2" points="46.22 40.77 53.65 45.38 53.65 51.54 46.22 51.54"/><path class="cls-3" d="M53.65,52.34H46.22a.8.8,0,0,1,0-1.6h6.63V45.83L45.8,41.45a.8.8,0,1,1,.84-1.36l7.44,4.61a.83.83,0,0,1,.38.69v6.15A.8.8,0,0,1,53.65,52.34Z"/><polyline class="cls-2" points="29.56 40.51 22.12 45.13 22.12 51.28 29.56 51.28"/><path class="cls-3" d="M29.56,52.08H22.12a.8.8,0,0,1-.8-.8V45.13a.78.78,0,0,1,.38-.68l7.43-4.62A.81.81,0,1,1,30,41.2l-7.06,4.38v4.9h6.64a.8.8,0,0,1,0,1.6Z"/><rect class="cls-4" x="29.69" y="22.1" width="16.28" height="29.81" transform="translate(75.65 74.02) rotate(180)"/><rect class="cls-5" x="34.38" y="22.1" width="11.58" height="29.81" transform="translate(80.35 74.02) rotate(180)"/><rect class="cls-6" x="40.54" y="22.1" width="5.43" height="29.81" transform="translate(86.5 74.02) rotate(180)"/><line class="cls-7" x1="45.96" y1="46.61" x2="29.69" y2="46.61"/><line class="cls-7" x1="40.69" y1="46.61" x2="40.69" y2="22.1"/><line class="cls-7" x1="35.05" y1="46.61" x2="35.05" y2="22.1"/><polyline class="cls-2" points="29.37 21.49 37.77 10.25 37.85 10.25 46.25 21.49"/><polygon class="cls-5" points="37.77 10.25 33.71 15.68 41.91 15.68 37.85 10.25 37.77 10.25"/><line class="cls-8" x1="31.96" y1="52.65" x2="31.96" y2="57.14"/><path class="cls-3" d="M32,57.94a.8.8,0,0,1-.8-.8v-4.5a.81.81,0,0,1,1.61,0v4.5A.8.8,0,0,1,32,57.94Z"/><line class="cls-8" x1="31.96" y1="59.61" x2="31.96" y2="62.78"/><path class="cls-3" d="M32,63.58a.8.8,0,0,1-.8-.8V59.61a.81.81,0,0,1,1.61,0v3.17A.8.8,0,0,1,32,63.58Z"/><line class="cls-8" x1="37.81" y1="65.64" x2="37.81" y2="67.91"/><path class="cls-3" d="M37.81,68.71a.8.8,0,0,1-.8-.8V65.64a.8.8,0,1,1,1.6,0v2.27A.8.8,0,0,1,37.81,68.71Z"/><line class="cls-8" x1="43.25" y1="52.65" x2="43.25" y2="54.89"/><path class="cls-3" d="M43.25,55.7a.8.8,0,0,1-.8-.81V52.64a.8.8,0,0,1,1.6,0v2.25A.8.8,0,0,1,43.25,55.7Z"/><line class="cls-8" x1="37.82" y1="52.65" x2="37.82" y2="62.78"/><path class="cls-3" d="M37.82,63.58a.8.8,0,0,1-.8-.8V52.64a.81.81,0,0,1,1.61,0V62.78A.8.8,0,0,1,37.82,63.58Z"/><path class="cls-3" d="M28.15,53.42H47.5V20.56h0L38.63,8.71H37L28.14,20.57h0Zm17.56-8.35H41.2v-23h4.51ZM38,10.35l7.35,10.21H30.18ZM39.92,22.1v23H35v-23Zm-10,0h3.82v23H29.94Zm0,24.57H45.71v4.95H29.94Z"/></g></g></svg>