<svg xmlns="http://www.w3.org/2000/svg" viewBox="0 0 361.32 265.08"><defs><style>.cls-1{fill:#424f59;}.cls-2{fill:#434e53;}.cls-3{fill:#d7eaf5;}.cls-4{fill:#f2fafe;}.cls-5{fill:#bd90c2;}.cls-6,.cls-7{fill:#fef6b1;}.cls-6,.cls-8{stroke:#424f59;stroke-miterlimit:10;}.cls-8{fill:none;}.cls-9{fill:#f2f2f2;}.cls-10{fill:#f7a395;}.cls-11{fill:#fff;}.cls-12{fill:#f6948b;}.cls-13{fill:#010101;}.cls-14{font-size:48px;fill:#595a5c;font-family:YanoneKaffeesatz-Bold, Yanone Kaffeesatz;font-weight:700;letter-spacing:0.05em;}.cls-15{letter-spacing:0.03em;}.cls-16{letter-spacing:0.05em;}</style></defs><g id="Слой_2" data-name="Слой 2"><g id="_5" data-name="5"><path class="cls-1" d="M187.67,31.1A2.29,2.29,0,1,1,190,28.81,2.29,2.29,0,0,1,187.67,31.1Zm0-3.82a1.53,1.53,0,1,0,1.53,1.53A1.54,1.54,0,0,0,187.67,27.28Z"/><circle class="cls-2" cx="131.9" cy="4.03" r="4.03" transform="translate(97.57 131.45) rotate(-76.67)"/><path class="cls-3" d="M302.7,183a121.63,121.63,0,1,0-239.13,0Z"/><path class="cls-1" d="M127.69,95.82a2.5,2.5,0,1,1,2.5-2.5A2.5,2.5,0,0,1,127.69,95.82Zm0-4.17a1.67,1.67,0,1,0,1.67,1.67A1.67,1.67,0,0,0,127.69,91.65Z"/><path class="cls-1" d="M118.83,88.68a2.75,2.75,0,1,1,2.75-2.75A2.75,2.75,0,0,1,118.83,88.68Zm0-4.58a1.84,1.84,0,1,0,1.84,1.83A1.84,1.84,0,0,0,118.83,84.1Z"/><path class="cls-1" d="M107.56,83.16a3,3,0,1,1,3-3A3,3,0,0,1,107.56,83.16Zm0-5a2,2,0,1,0,2,2A2,2,0,0,0,107.56,78.16Z"/><path class="cls-1" d="M267.71,107.66a4.15,4.15,0,1,1,4.14-4.15A4.15,4.15,0,0,1,267.71,107.66Zm0-6.46a2.32,2.32,0,1,0,2.32,2.31A2.32,2.32,0,0,0,267.71,101.2Z"/><path class="cls-4" d="M66.67,68.87,68,71.51a.42.42,0,0,0,.33.24l2.91.42a.43.43,0,0,1,.24.74l-2.11,2a.43.43,0,0,0-.12.39l.49,2.9a.43.43,0,0,1-.62.46l-2.61-1.37a.41.41,0,0,0-.4,0l-2.61,1.37a.44.44,0,0,1-.63-.46l.5-2.9a.46.46,0,0,0-.12-.39l-2.11-2a.43.43,0,0,1,.24-.74l2.91-.42a.45.45,0,0,0,.33-.24l1.3-2.64A.44.44,0,0,1,66.67,68.87Z"/><path class="cls-1" d="M174.86,72.41a1.72,1.72,0,1,1-1.72-1.72A1.72,1.72,0,0,1,174.86,72.41Z"/><path class="cls-5" d="M244.82,171.27h0V144l-3.59-21.5H207.06l11.1,8.3V144l-7.16-5.3v2.61h-2.13v30h-2.22V138.39h2.13v-3.95h-3.29l-24.9-18.33-24.06,18.77h-2.92v4H156v32.42h-2.34V141.71h-2.39v-1.65l-5.1,4.23V130.87l10.21-8.37H119L115.46,144v27.27h-1.75v10.3h135v-10.3ZM133.22,166H121.33v-6.51h11.89Zm0-10.39H121.33v-6.5h11.89ZM138.15,166v-6.51H150V166Zm0-10.39v-6.5H150v6.5ZM181,124.16a4.71,4.71,0,1,1-4.71,4.71A4.72,4.72,0,0,1,181,124.16Zm19.13,47.1h-2.61V141.58H163.8v29.68h-2.36V138.83h2.27v-1.52h35v1.08h1.47Zm22.74-6H211v-6.5h11.88Zm0-10.39H211v-6.5h11.88Zm16.81,10.39H227.84v-6.5h11.88Zm0-10.39H227.84v-6.5h11.88Zm-59-49.9H180V85.57h1.51v.37c1.67.72,5.69,2.1,7.95-.36,2.91-3.14,8,0,8,0v9s-4.11-3.39-8,0c-2.94,2.57-6.44,1.23-7.95.44v10h-.78L216,131.34v7.5l-35.67-26.37-31.76,26.37v-7.5Z"/><rect class="cls-6" x="164.02" y="142.37" width="33.29" height="41.08"/><rect class="cls-6" x="209.08" y="172.05" width="39.88" height="10.31"/><rect class="cls-6" x="114.08" y="172.05" width="39.88" height="10.31"/><polygon class="cls-7" points="148.73 132.13 181.69 105.76 216.16 132.13 216.16 139.63 180.59 113.11 148.73 139.63 148.73 132.13"/><path class="cls-8" d="M245,172.05h0V144.78l-3.59-21.5H207.27l11.11,8.3v13.16l-7.17-5.3v2.61h-2.13v30h-2.21V139.17H209v-3.95h-3.28L180.8,116.89l-24.06,18.78h-2.91v4h2.39v32.43h-2.33V142.5h-2.4v-1.66l-5.09,4.23V131.65l10.2-8.37H119.26l-3.59,21.51v27.26h-1.75v10.31H249V172.05Zm-111.6-5.32H121.55v-6.5h11.88Zm0-10.39H121.55v-6.5h11.88Zm4.93,10.39v-6.5h11.88v6.5Zm0-10.39v-6.5h11.88v6.5ZM181.25,125a4.71,4.71,0,1,1-4.71,4.71A4.71,4.71,0,0,1,181.25,125Zm19.14,47.1h-2.61V142.37H164v29.68h-2.37V139.62h2.27v-1.53h35v1.08h1.48Zm22.73-6H211.24v-6.51h11.88Zm0-10.39H211.24v-6.5h11.88Zm16.82,10.39H228.06v-6.51h11.88Zm0-10.39H228.06v-6.5h11.88Zm-59-49.91h-.73V86.35h1.52v.37c1.66.73,5.68,2.1,7.95-.35,2.9-3.15,8,0,8,0v8.95s-4.11-3.38-8,0c-2.95,2.57-6.44,1.23-7.95.44v10h-.79l35.26,26.37v7.5L180.5,113.25l-31.77,26.38v-7.5Z"/><rect class="cls-9" x="42.95" y="90.92" width="4.9" height="88.93"/><path class="cls-1" d="M47.85,180.46H43a.61.61,0,0,1-.62-.61V90.92A.62.62,0,0,1,43,90.3h4.9a.62.62,0,0,1,.62.62v88.93A.61.61,0,0,1,47.85,180.46Zm-4.28-1.23h3.67V91.53H43.57Z"/><polygon class="cls-7" points="71.97 118.2 47.85 118.2 47.85 97.84 71.97 97.84 83.01 108.02 71.97 118.2"/><path class="cls-1" d="M72,118.81H47.85a.61.61,0,0,1-.61-.61V97.84a.61.61,0,0,1,.61-.62H72a.59.59,0,0,1,.42.17l11,10.17a.62.62,0,0,1,0,.91l-11,10.18A.58.58,0,0,1,72,118.81Zm-23.5-1.23H71.73L82.1,108,71.73,98.46H48.47Z"/><polygon class="cls-5" points="18.83 110 42.95 110 42.95 130.36 18.83 130.36 7.79 120.18 18.83 110"/><path class="cls-1" d="M43,131H18.83a.63.63,0,0,1-.42-.17l-11-10.18a.61.61,0,0,1,0-.9l11-10.18a.61.61,0,0,1,.42-.16H43a.61.61,0,0,1,.62.61v20.36A.62.62,0,0,1,43,131Zm-23.88-1.24H42.33V110.62H19.07L8.71,120.18Z"/><polygon class="cls-10" points="85.06 142.52 47.85 142.52 47.85 122.17 85.06 122.17 96.09 132.34 85.06 142.52"/><path class="cls-1" d="M85.05,143.14H47.85a.61.61,0,0,1-.61-.62V122.17a.61.61,0,0,1,.61-.62h37.2a.63.63,0,0,1,.42.16l11,10.18a.62.62,0,0,1,0,.91L85.47,143A.63.63,0,0,1,85.05,143.14ZM48.47,141.9H84.81l10.37-9.56-10.37-9.56H48.47Z"/><path class="cls-11" d="M62.09,179.85a19.53,19.53,0,0,0-33.37,0Z"/><path class="cls-1" d="M62.09,180.46H28.72a.62.62,0,0,1-.53-.94,20.17,20.17,0,0,1,34.43,0,.64.64,0,0,1,0,.63A.63.63,0,0,1,62.09,180.46Zm-32.24-1.23H61a18.92,18.92,0,0,0-31.1,0Z"/><line class="cls-11" x1="91.22" y1="136.84" x2="62.09" y2="136.84"/><path class="cls-1" d="M91.22,137.45H62.09a.61.61,0,0,1-.62-.61.62.62,0,0,1,.62-.62H91.22a.62.62,0,0,1,.62.62A.61.61,0,0,1,91.22,137.45Z"/><line class="cls-11" x1="62.09" y1="112.55" x2="77.83" y2="112.55"/><path class="cls-1" d="M77.83,113.17H62.09a.62.62,0,0,1,0-1.24H77.83a.62.62,0,0,1,0,1.24Z"/><line class="cls-11" x1="42.95" y1="122.17" x2="31.5" y2="122.17"/><path class="cls-1" d="M43,122.78H31.5a.62.62,0,1,1,0-1.23H43a.62.62,0,1,1,0,1.23Z"/><path class="cls-1" d="M83,168.47H65.43a.62.62,0,1,1,0-1.23H83a.62.62,0,1,1,0,1.23Z"/><path class="cls-1" d="M72,157.36H65.43a.62.62,0,0,1,0-1.24H72a.62.62,0,0,1,0,1.24Z"/><path class="cls-1" d="M102,113.17H91.22a.62.62,0,0,1,0-1.24H102a.62.62,0,0,1,0,1.24Z"/><circle class="cls-7" cx="236.88" cy="61.53" r="31.26"/><path class="cls-1" d="M236.88,93.21a31.68,31.68,0,1,1,31.68-31.68A31.72,31.72,0,0,1,236.88,93.21Zm0-62.52a30.84,30.84,0,1,0,30.83,30.84A30.87,30.87,0,0,0,236.88,30.69Z"/><circle class="cls-11" cx="236.88" cy="61.53" r="26.07" transform="translate(174.16 298.09) rotate(-89.71)"/><path class="cls-1" d="M236.88,88a26.5,26.5,0,1,1,26.5-26.49A26.52,26.52,0,0,1,236.88,88Zm0-52.14a25.65,25.65,0,1,0,25.65,25.65A25.68,25.68,0,0,0,236.88,35.88Z"/><polygon class="cls-10" points="249.4 49.01 231.21 55.86 224.36 74.05 242.54 67.19 249.4 49.01"/><path class="cls-1" d="M224.36,74.47a.42.42,0,0,1-.4-.57l6.85-18.19a.39.39,0,0,1,.25-.25l18.19-6.85a.44.44,0,0,1,.45.09.42.42,0,0,1,.09.45l-6.85,18.19a.4.4,0,0,1-.24.25l-18.19,6.85A.4.4,0,0,1,224.36,74.47Zm7.18-18.28-6.45,17.13,17.13-6.45,6.45-17.14Z"/><path class="cls-11" d="M240.86,61.53a4,4,0,1,1-4-4A4,4,0,0,1,240.86,61.53Z"/><path class="cls-1" d="M236.88,65.93a4.41,4.41,0,1,1,4.4-4.4A4.42,4.42,0,0,1,236.88,65.93Zm0-8a3.56,3.56,0,1,0,3.55,3.56A3.57,3.57,0,0,0,236.88,58Z"/><polygon class="cls-12" points="165.4 10.99 154.46 11.03 154.42 1.4 165.36 1.35 163.23 6.18 165.4 10.99"/><path class="cls-1" d="M165.42,11.55h0l-10.94,0a.56.56,0,0,1-.56-.55l0-9.64a.56.56,0,0,1,.56-.56l10.94,0a.53.53,0,0,1,.47.25.56.56,0,0,1,0,.53l-2,4.6,2,4.45A.57.57,0,0,1,166,11,.56.56,0,0,1,165.42,11.55ZM155,10.47l9.52,0-1.81-4a.54.54,0,0,1,0-.45l1.79-4L155,2Z"/><path class="cls-1" d="M144.78,16a.57.57,0,0,1,.19-.73c.94-.61,1.89-1.21,2.87-1.79a.56.56,0,0,1,.77.19.55.55,0,0,1-.19.76c-1,.58-1.91,1.17-2.83,1.78a.57.57,0,0,1-.78-.17Z"/><path class="cls-1" d="M81.35,66a.52.52,0,0,1-.07-.22,36.31,36.31,0,0,1,.14-6.7.55.55,0,0,1,.62-.49.56.56,0,0,1,.49.62,34.93,34.93,0,0,0-.13,6.49.56.56,0,0,1-.52.6A.57.57,0,0,1,81.35,66ZM82.6,54a.58.58,0,0,1,0-.43,30.45,30.45,0,0,1,2.67-6.16.56.56,0,0,1,.76-.22.57.57,0,0,1,.21.77,28.8,28.8,0,0,0-2.56,5.94.57.57,0,0,1-.7.37A.56.56,0,0,1,82.6,54Zm5.72-10.59a.56.56,0,0,1,.06-.62A43.38,43.38,0,0,1,93,38a.56.56,0,0,1,.75.83,42,42,0,0,0-4.51,4.7.56.56,0,0,1-.79.08A.46.46,0,0,1,88.32,43.39Zm8.85-8.23a.56.56,0,0,1,.16-.72c.89-.65,1.85-1.32,2.84-2s1.8-1.16,2.73-1.68a.55.55,0,0,1,.76.21h0a.57.57,0,0,1-.22.75c-.9.51-1.79,1.07-2.66,1.64s-1.92,1.32-2.8,2a.56.56,0,0,1-.78-.12Zm10.46-6a.14.14,0,0,1,0-.06.55.55,0,0,1,.3-.72,38.47,38.47,0,0,1,6.41-2,.55.55,0,0,1,.66.43.57.57,0,0,1-.43.67,37.37,37.37,0,0,0-6.22,1.9A.55.55,0,0,1,107.63,29.12Zm19,27.93,0,0a21.39,21.39,0,0,1-1.45-6.6.56.56,0,0,1,1.12-.08,20.29,20.29,0,0,0,1.36,6.25.55.55,0,0,1-.3.73A.56.56,0,0,1,126.66,57.05Zm3,4.58a.55.55,0,0,1,.09-.66.56.56,0,0,1,.79,0,12.88,12.88,0,0,0,2.79,2.09,14.56,14.56,0,0,0,2.61,1.12.56.56,0,1,1-.34,1.07A15.82,15.82,0,0,1,132.79,64a13.4,13.4,0,0,1-3-2.27A.38.38,0,0,1,129.66,61.63Zm-4.27-16.51a.53.53,0,0,1-.06-.33,39.08,39.08,0,0,1,1.28-6.57.57.57,0,0,1,.69-.39.57.57,0,0,1,.39.7,38.87,38.87,0,0,0-1.25,6.38.56.56,0,0,1-.62.5A.54.54,0,0,1,125.39,45.12Zm-6-18.67a.62.62,0,0,1-.07-.23.56.56,0,0,1,.53-.59,34.8,34.8,0,0,1,6.7.25.55.55,0,0,1,.48.63.56.56,0,0,1-.63.48,34.24,34.24,0,0,0-6.49-.25A.55.55,0,0,1,119.39,26.45ZM140.72,65.6a.57.57,0,0,1-.07-.22.58.58,0,0,1,.52-.61,13.56,13.56,0,0,0,5.36-1.58q.32-.16.63-.36a.56.56,0,0,1,.58,1l-.69.39a14.8,14.8,0,0,1-5.79,1.71A.55.55,0,0,1,140.72,65.6ZM128.54,33.46a.56.56,0,0,1,0-.49,34.31,34.31,0,0,1,2.85-5.09.57.57,0,0,1-.05-.44,1.4,1.4,0,0,1,1.33-.41.54.54,0,0,1,.21.31,34.22,34.22,0,0,1,5.35,2.3.56.56,0,1,1-.53,1,32.54,32.54,0,0,0-5.29-2.27,33.61,33.61,0,0,0-2.85,5.07.56.56,0,0,1-.74.28A.49.49,0,0,1,128.54,33.46ZM151,59.9a.57.57,0,0,1,0-.6,12.14,12.14,0,0,0,2.3-5.81A.55.55,0,0,1,154,53a.56.56,0,0,1,.5.62A13.29,13.29,0,0,1,152,60a.56.56,0,0,1-.79.12A.55.55,0,0,1,151,59.9ZM135.36,23.52a.56.56,0,0,1,.09-.65,46.76,46.76,0,0,1,5-4.44.56.56,0,0,1,.79.1.57.57,0,0,1-.1.78,46.78,46.78,0,0,0-4.88,4.34.56.56,0,0,1-.79,0A.45.45,0,0,1,135.36,23.52Zm6.71,9.87a.53.53,0,0,1,.05-.6.55.55,0,0,1,.78-.1,32.69,32.69,0,0,1,4.86,4.62.55.55,0,0,1-.06.79.57.57,0,0,1-.79-.06,32,32,0,0,0-4.69-4.47A.43.43,0,0,1,142.07,33.39Zm10.78,15a.3.3,0,0,1,0-.1c-.1-.32-.22-.64-.34-1a32.45,32.45,0,0,0-2.39-4.88.52.52,0,0,1,.19-.77.54.54,0,0,1,.76.19,31.64,31.64,0,0,1,2.48,5.06c.14.35.26.69.37,1a.56.56,0,0,1-1,.43Z"/><path class="cls-1" d="M82.9,74.81a.33.33,0,0,1-.05-.12c-.3-1.11-.56-2.22-.78-3.3a.56.56,0,0,1,.44-.66.54.54,0,0,1,.65.44c.22,1,.48,2.14.77,3.23a.57.57,0,0,1-.39.69A.55.55,0,0,1,82.9,74.81Z"/><path class="cls-1" d="M303.48,170.9a.64.64,0,0,1-.22-.48V132a.64.64,0,0,1,.5-.62l29.75-6.33a.65.65,0,0,1,.75.47l9.81,38.4a.59.59,0,0,1-.08.5.64.64,0,0,1-.43.28L304,171h-.1A.61.61,0,0,1,303.48,170.9Zm29.7-44.47-28.66,6.1v37.15l38.16-6.11Z"/><polygon class="cls-11" points="274.14 125.68 303.89 132.01 303.89 170.42 264.32 164.09 274.14 125.68"/><path class="cls-1" d="M303.79,171l-39.57-6.33a.64.64,0,0,1-.43-.28.63.63,0,0,1-.09-.5l9.82-38.4a.65.65,0,0,1,.75-.47L304,131.39a.64.64,0,0,1,.5.62v38.41a.64.64,0,0,1-.22.48.61.61,0,0,1-.41.15ZM274.6,126.43l-9.5,37.14,38.16,6.11V132.53Z"/><path class="cls-11" d="M309,112.92a7.81,7.81,0,1,0,8.45,7.11A7.81,7.81,0,0,0,309,112.92Z"/><path class="cls-1" d="M309.62,129.15a8.44,8.44,0,1,1,6.47-3,8.37,8.37,0,0,1-5.73,3A6.23,6.23,0,0,1,309.62,129.15Zm0-15.62c-.21,0-.42,0-.63,0a7.18,7.18,0,1,0,1.24,14.3,7.18,7.18,0,0,0,6.53-7.76A7.22,7.22,0,0,0,309.64,113.53Z"/><path class="cls-10" d="M308.36,106a14.73,14.73,0,0,0-5.91,27.53L312,148.38l6.89-16.24A14.73,14.73,0,0,0,308.36,106Zm1.94,22.45a7.81,7.81,0,1,1,7.11-8.45A7.8,7.8,0,0,1,310.3,128.48Z"/><path class="cls-1" d="M312,149a.62.62,0,0,1-.53-.29L302,134a15.36,15.36,0,1,1,17.44-1.52l-6.83,16.11a.61.61,0,0,1-.53.38Zm-2.38-42.41c-.41,0-.82,0-1.24,0A14.1,14.1,0,0,0,302.75,133a.66.66,0,0,1,.23.21L311.91,147l6.42-15.15a.67.67,0,0,1,.19-.25,14.09,14.09,0,0,0-8.87-25Zm0,22.54a8.44,8.44,0,1,1,6.47-3,8.37,8.37,0,0,1-5.73,3A6.23,6.23,0,0,1,309.62,129.15Zm0-15.62c-.21,0-.42,0-.63,0a7.18,7.18,0,1,0,1.24,14.3,7.18,7.18,0,0,0,6.53-7.76A7.22,7.22,0,0,0,309.64,113.53Z"/><path class="cls-1" d="M355.42,142.39h-8.67a.63.63,0,1,1,0-1.26h8.67a.63.63,0,0,1,0,1.26Z"/><path class="cls-1" d="M288.51,65h-8.67a.63.63,0,1,1,0-1.26h8.67a.63.63,0,1,1,0,1.26Z"/><path class="cls-1" d="M278.51,45h-8.67a.63.63,0,1,1,0-1.26h8.67a.63.63,0,1,1,0,1.26Z"/><path class="cls-1" d="M292.78,51.32H273.54c-.78,0-1.41-.28-1.41-.63s.63-.63,1.41-.63h19.24c.78,0,1.4.28,1.4.63S293.56,51.32,292.78,51.32Z"/><path class="cls-1" d="M124.13,104.77h0a.42.42,0,0,1,.28-.39l10.29-3.66,3.07-10.48a.42.42,0,0,1,.38-.29.41.41,0,0,1,.4.25l9.17,22.31a.42.42,0,0,1-.08.44.43.43,0,0,1-.44.11l-22.79-7.9A.43.43,0,0,1,124.13,104.77Zm14.1-13.18-2.8,9.55a.45.45,0,0,1-.26.28l-9.38,3.33L146.61,112Z"/><path class="cls-11" d="M83.72,48.13a6.91,6.91,0,1,0,6.81,7A6.91,6.91,0,0,0,83.72,48.13Z"/><path class="cls-13" d="M82.88,62.46a7.46,7.46,0,1,1,8.21-7.32,7.46,7.46,0,0,1-7.56,7.36A4.63,4.63,0,0,1,82.88,62.46Zm1.39-13.74a5.07,5.07,0,0,0-.55,0,6.35,6.35,0,1,0-.18,12.69A6.35,6.35,0,0,0,90,55.12,6.38,6.38,0,0,0,84.27,48.72Z"/><path class="cls-7" d="M83.8,42a13,13,0,0,0-7.63,23.71L83.29,79.6l7.5-13.69a13,13,0,0,0-7-23.9Zm-.27,19.93a6.91,6.91,0,1,1,7-6.81A6.9,6.9,0,0,1,83.53,61.94Z"/><path class="cls-13" d="M83.24,80.16a.54.54,0,0,1-.44-.3L75.74,66.09a13.58,13.58,0,1,1,15.47.21L83.78,79.87a.55.55,0,0,1-.49.29Zm1.65-37.53c-.36,0-.73-.05-1.09-.06a12.47,12.47,0,0,0-7.31,22.69.49.49,0,0,1,.18.2l6.64,13,7-12.77a.55.55,0,0,1,.18-.19,12.47,12.47,0,0,0-5.59-22.82Zm-2,19.83a7.46,7.46,0,1,1,8.21-7.32,7.46,7.46,0,0,1-7.56,7.36A4.63,4.63,0,0,1,82.88,62.46Zm1.39-13.74a5.07,5.07,0,0,0-.55,0,6.35,6.35,0,1,0-.18,12.69A6.35,6.35,0,0,0,90,55.12,6.38,6.38,0,0,0,84.27,48.72Z"/><path class="cls-1" d="M342.68,118.5a5,5,0,1,1,5-5A5,5,0,0,1,342.68,118.5Zm0-8.68a3.71,3.71,0,1,0,3.7,3.71A3.71,3.71,0,0,0,342.68,109.82Z"/><path class="cls-1" d="M359.72,265.08H1.6a1.6,1.6,0,1,1,0-3.19H359.72a1.6,1.6,0,1,1,0,3.19Z"/><path class="cls-1" d="M359.72,184.43H1.6a1.6,1.6,0,1,1,0-3.19H359.72a1.6,1.6,0,1,1,0,3.19Z"/><text class="cls-14" transform="translate(64.81 241.04)">СХЕМА Ш<tspan class="cls-15" x="143.37" y="0">КО</tspan><tspan class="cls-16" x="184.51" y="0">ЛЫ</tspan></text></g></g></svg>