<svg xmlns="http://www.w3.org/2000/svg" viewBox="0 0 74.02 74.02"><defs><style>.cls-1{fill:#fbf6ea;}.cls-2{fill:#fef6b1;}.cls-3,.cls-4{fill:#bd90c2;}.cls-4,.cls-5{stroke:#424f59;stroke-miterlimit:10;}.cls-4{stroke-width:0.75px;}.cls-5{fill:none;stroke-width:0.5px;}</style></defs><g id="Слой_2" data-name="Слой 2"><g id="low_panel"><circle class="cls-1" cx="37.01" cy="37.01" r="37.01"/><path class="cls-2" d="M63.87,46.89h0V35.35l-1.52-9.1H47.89l4.7,3.51v5.57l-3-2.24v1.1h-.9v12.7h-.94V33h.9V31.31H47.23L36.69,23.55,26.51,31.49H25.28v1.68h1V46.89h-1V34.38h-1v-.7l-2.16,1.79V29.79l4.32-3.54H10.65l-1.52,9.1V46.89H8.39v4.36H65.53V46.89ZM16.65,44.64h-5V41.89h5Zm0-4.4h-5V37.49h5Zm2.08,4.4V41.89h5v2.75Zm0-4.4V37.49h5v2.75ZM36.88,27a2,2,0,1,1-2,2A2,2,0,0,1,36.88,27ZM45,46.89H43.87V34.33H29.59V46.89h-1V33.17h1v-.65h14.8V33H45Zm9.62-2.54h-5V41.6h5Zm0-4.4h-5V37.2h5Zm7.11,4.4h-5V41.6h5Zm0-4.4h-5V37.2h5Zm-25-21.11h-.31V10.63h.64v.15c.71.31,2.41.89,3.37-.15,1.23-1.33,3.38,0,3.38,0v3.79a2.65,2.65,0,0,0-3.38,0,3,3,0,0,1-3.37.19v4.23h-.33L51.65,30v3.17L36.56,22,23.12,33.17V30Z"/><rect class="cls-3" x="29.68" y="34.66" width="14.08" height="16.38"/><rect class="cls-4" x="48.75" y="47.22" width="16.88" height="4.36"/><rect class="cls-4" x="8.55" y="47.22" width="16.88" height="4.36"/><polygon class="cls-3" points="23.21 30.33 37.16 19.17 51.74 30.33 51.74 33.5 36.69 22.28 23.21 33.5 23.21 30.33"/><path class="cls-5" d="M64,47.22h0V35.68l-1.52-9.1H48l4.7,3.52v5.56l-3-2.24v1.1h-.9v12.7h-.94V33.31h.9V31.64H47.32L36.78,23.88l-10.18,8H25.37V33.5h1V47.22h-1V34.72h-1V34L22.22,35.8V30.13l4.32-3.54H10.74L9.22,35.68V47.22H8.48v4.36H65.62V47.22ZM16.74,45h-5V42.22h5Zm0-4.4h-5V37.82h5ZM18.82,45V42.22h5V45Zm0-4.4V37.82h5v2.75ZM37,27.29a2,2,0,1,1-2,2A2,2,0,0,1,37,27.29Zm8.1,19.93H44V34.66H29.68V47.22h-1V33.5h1v-.65h14.8v.46h.63Zm9.62-2.54h-5V41.93h5Zm0-4.39h-5V37.54h5Zm7.11,4.39h-5V41.93h5Zm0-4.39h-5V37.54h5Zm-25-21.12h-.31V11h.65v.16c.7.3,2.4.88,3.36-.16,1.23-1.33,3.38,0,3.38,0v3.79a2.65,2.65,0,0,0-3.38,0,2.92,2.92,0,0,1-3.36.19v4.23h-.34L51.74,30.33V33.5L36.65,22.34,23.21,33.5V30.33Z"/></g></g></svg>