<svg xmlns="http://www.w3.org/2000/svg" viewBox="0 0 361.57 247.21"><defs><style>.cls-1{fill:#d2e3c3;}.cls-2{fill:#48505a;}.cls-3{fill:#fff;}.cls-4{fill:#4aa334;}.cls-5{fill:#f0c87e;}.cls-6{fill:#dadadb;}.cls-7{fill:#2b2523;}.cls-8{fill:#13110c;}.cls-9{fill:#eeeeed;}.cls-10{fill:#f7f7f7;}.cls-11{fill:#ececec;}.cls-12{fill:#e9b13d;}</style></defs><g id="Слой_2" data-name="Слой 2"><g id="Слой_1-2" data-name="Слой 1"><path class="cls-1" d="M305.43,144A121.63,121.63,0,1,0,66.3,144Z"/><path class="cls-2" d="M359.85,145.57H1.73a1.6,1.6,0,1,1,0-3.2H359.85a1.6,1.6,0,0,1,0,3.2"/><path class="cls-2" d="M359.85,247.21H1.73A1.6,1.6,0,0,1,1.47,244a1.13,1.13,0,0,1,.26,0H359.85a1.6,1.6,0,1,1,.25,3.19h-.25"/><rect class="cls-3" x="24.76" y="71.4" width="82.57" height="51.66"/><path class="cls-2" d="M107.32,123.44H24.76a.38.38,0,0,1-.39-.38V71.36a.38.38,0,0,1,.39-.38h82.56a.4.4,0,0,1,.39.38v51.7a.4.4,0,0,1-.39.38m-82.18-.76h81.8V71.79H25.14Z"/><path class="cls-2" d="M97.55,83.15H34.49a.38.38,0,0,1-.38-.38.37.37,0,0,1,.37-.38h63a.38.38,0,1,1,0,.76h0"/><path class="cls-2" d="M74.07,92.79H34.49a.38.38,0,0,1-.38-.38.37.37,0,0,1,.37-.38H74.07a.38.38,0,0,1,.38.38.39.39,0,0,1-.38.38"/><path class="cls-2" d="M74.07,102.44H34.49a.4.4,0,0,1-.33-.45.4.4,0,0,1,.33-.32H74.07a.39.39,0,0,1,.32.45.41.41,0,0,1-.32.32"/><path class="cls-2" d="M74.07,112.08H34.49a.38.38,0,0,1-.38-.38.37.37,0,0,1,.37-.38H74.07a.38.38,0,1,1,0,.76h0"/><rect class="cls-4" x="82.39" y="92.41" width="15.36" height="19.29"/><path class="cls-2" d="M97.75,112.08H82.39a.38.38,0,0,1-.39-.37h0V92.41a.38.38,0,0,1,.38-.38H97.75a.38.38,0,0,1,.38.38h0V111.7a.38.38,0,0,1-.38.38h0m-15-.76h14.6V92.79H82.75Z"/><path class="cls-5" d="M60.25,127.14a5.53,5.53,0,0,0-3.93,3.5,2.58,2.58,0,0,1-4.45,1.26,4.83,4.83,0,0,0-1.74-.94l-.84,2.72,7.4,24,4.48-6.53L68.54,154Z"/><path class="cls-2" d="M56.69,158.08h0a.38.38,0,0,1-.31-.27l-7.41-24a.41.41,0,0,1,0-.22l.84-2.73a.35.35,0,0,1,.19-.22.37.37,0,0,1,.29,0,5.34,5.34,0,0,1,1.88,1,2.73,2.73,0,0,0,1.76.75A2.27,2.27,0,0,0,56,130.56a6,6,0,0,1,4.21-3.75.37.37,0,0,1,.45.25L69,154a.42.42,0,0,1-.11.4.39.39,0,0,1-.4.07l-7.09-2.77L57.06,158a.37.37,0,0,1-.32.17m-7-24.4,7.14,23.15,4-5.88a.38.38,0,0,1,.46-.14l6.6,2.51-8-25.79a5.14,5.14,0,0,0-3.31,3.15,3,3,0,0,1-2.8,2.35,3.5,3.5,0,0,1-2.26-.93,4.31,4.31,0,0,0-1.24-.73Z"/><path class="cls-5" d="M48.37,130.7a5.25,5.25,0,0,0-3,.94A2.58,2.58,0,0,1,41,130a5.46,5.46,0,0,0-2.55-3.3l-8.41,27.31,7.37-2.88,4.48,6.53,7.4-24,.84-2.72a5.56,5.56,0,0,0-1.76-.26"/><path class="cls-2" d="M41.89,158.08a.37.37,0,0,1-.32-.17l-4.3-6.28-7.09,2.73a.36.36,0,0,1-.4-.07.4.4,0,0,1-.11-.4l8.42-27.3a.37.37,0,0,1,.23-.24.32.32,0,0,1,.33,0,5.91,5.91,0,0,1,2.72,3.54,2.23,2.23,0,0,0,2.09,2,2.93,2.93,0,0,0,1.65-.61,5.63,5.63,0,0,1,3.26-1h0a6.27,6.27,0,0,1,1.87.27.38.38,0,0,1,.25.47h0l-8.24,26.74a.4.4,0,0,1-.31.27h0m-4.48-7.3a.37.37,0,0,1,.32.17l4,5.88,7.89-25.61a5.73,5.73,0,0,0-1.23-.14,4.87,4.87,0,0,0-2.86.87,3.66,3.66,0,0,1-2.1.76,3,3,0,0,1-2.83-2.58,5,5,0,0,0-2-2.79l-8,26.06,6.63-2.59h.14"/><path class="cls-3" d="M67.06,112.62a5.52,5.52,0,0,1-1.78-6.26,2.58,2.58,0,0,0-2.56-3.85,5.51,5.51,0,0,1-5.14-4.05c-.53-2.23-2.48-2.95-4.34-1.59a5.53,5.53,0,0,1-6.53-.26c-1.75-1.5-3.75-.93-4.45,1.26a5.53,5.53,0,0,1-5.44,3.63,2.58,2.58,0,0,0-3.06,2,2.62,2.62,0,0,0,.2,1.63,5.55,5.55,0,0,1-2.26,6.14,2.57,2.57,0,0,0-.18,4.61,5.53,5.53,0,0,1,1.77,6.3,2.58,2.58,0,0,0,1,3.52,2.61,2.61,0,0,0,1.62.32,5.06,5.06,0,0,1,2.59.75,5.46,5.46,0,0,1,2.55,3.3,2.57,2.57,0,0,0,2.84,2.28,2.6,2.6,0,0,0,1.49-.68,5.25,5.25,0,0,1,3-.94,5.56,5.56,0,0,1,1.76.26,4.83,4.83,0,0,1,1.74.94c1.74,1.49,3.74.93,4.45-1.26a5.53,5.53,0,0,1,3.93-3.5,4.79,4.79,0,0,1,1.51-.14c2.29.19,3.57-1.44,2.86-3.62a5.52,5.52,0,0,1,2.26-6.14c2-1.2,2-3.27.18-4.62m-8.51,9a11.88,11.88,0,1,1,2.35-5,11.84,11.84,0,0,1-2.35,5"/><path class="cls-2" d="M53.88,133.11a3.5,3.5,0,0,1-2.26-.93,4.37,4.37,0,0,0-1.6-.86,5.44,5.44,0,0,0-1.6-.24,4.87,4.87,0,0,0-2.86.87,3.66,3.66,0,0,1-2.1.76,3,3,0,0,1-2.83-2.58,5.09,5.09,0,0,0-2.37-3.06,4.62,4.62,0,0,0-2.39-.7,3,3,0,0,1-3.26-2.72,3,3,0,0,1,.33-1.65,5.14,5.14,0,0,0-1.65-5.84,3,3,0,0,1,.21-5.25,5.15,5.15,0,0,0,2.1-5.69,3,3,0,0,1,3.3-4.15,5.16,5.16,0,0,0,5-3.37,3,3,0,0,1,2.8-2.36,3.52,3.52,0,0,1,2.26.93,5.19,5.19,0,0,0,6.06.22,3.55,3.55,0,0,1,2.1-.76A3,3,0,0,1,58,98.36a5.11,5.11,0,0,0,4.75,3.75A3,3,0,0,1,66,104.82a3.08,3.08,0,0,1-.32,1.66,5.11,5.11,0,0,0,1.65,5.88,3,3,0,0,1-.21,5.25,5.13,5.13,0,0,0-2.1,5.7,3.29,3.29,0,0,1-.3,3,3,3,0,0,1-2.57,1h-.38a4.06,4.06,0,0,0-1.39.12,5.15,5.15,0,0,0-3.66,3.25,3,3,0,0,1-2.8,2.35m-5.51-2.72a6.27,6.27,0,0,1,1.87.27,5.26,5.26,0,0,1,1.88,1,2.73,2.73,0,0,0,1.76.75A2.27,2.27,0,0,0,56,130.55a6,6,0,0,1,4.21-3.75,5,5,0,0,1,1.63-.15h.32a2.31,2.31,0,0,0,2-.86,2.49,2.49,0,0,0,.19-2.28,5.92,5.92,0,0,1,2.43-6.59,2.2,2.2,0,0,0,.16-4,5.91,5.91,0,0,1-1.91-6.75,2.19,2.19,0,0,0-2.2-3.31,5.93,5.93,0,0,1-5.52-4.35,2.25,2.25,0,0,0-2.09-2,2.91,2.91,0,0,0-1.65.62,5.65,5.65,0,0,1-3.3,1,5.76,5.76,0,0,1-3.68-1.26,2.77,2.77,0,0,0-1.76-.74A2.28,2.28,0,0,0,42.65,98a6,6,0,0,1-5.83,3.9A2.2,2.2,0,0,0,34.36,105a5.91,5.91,0,0,1-2.43,6.58,2.2,2.2,0,0,0-.16,4,6,6,0,0,1,1.91,6.76,2.2,2.2,0,0,0,.75,3,2.22,2.22,0,0,0,1.45.29,5.57,5.57,0,0,1,2.8.8A5.91,5.91,0,0,1,41.4,130a2.23,2.23,0,0,0,2.09,2,2.93,2.93,0,0,0,1.65-.61,5.49,5.49,0,0,1,3.26-1Zm.92-3.84a13,13,0,0,1-2.49-.25,12.29,12.29,0,0,1-7.07-4.35,12,12,0,0,1-2.68-7.64,12.24,12.24,0,1,1,24.48,0h0a12.14,12.14,0,0,1-2.68,7.64,12.29,12.29,0,0,1-7.07,4.35,13.06,13.06,0,0,1-2.49.25m0-23.72a11.48,11.48,0,0,0-11.48,11.48,11.21,11.21,0,0,0,2.52,7.08A11.45,11.45,0,0,0,47,125.44a11.89,11.89,0,0,0,4.68,0,11.51,11.51,0,0,0,6.62-4.08,11.33,11.33,0,0,0,2.52-7.16,11.49,11.49,0,0,0-11.48-11.44"/><path class="cls-5" d="M49.29,102.36a11.85,11.85,0,1,0,11.86,11.86,11.84,11.84,0,0,0-11.86-11.86h0"/><path class="cls-2" d="M49.29,126.48a13,13,0,0,1-2.49-.25,12.29,12.29,0,0,1-7.07-4.35,12,12,0,0,1-2.68-7.64,12.23,12.23,0,1,1,14.73,12,13.06,13.06,0,0,1-2.49.25m0-23.72a11.48,11.48,0,0,0-11.48,11.48A11.52,11.52,0,0,0,47,125.44a11.89,11.89,0,0,0,4.68,0,11.51,11.51,0,0,0,6.62-4.08,11.33,11.33,0,0,0,2.52-7.16,11.49,11.49,0,0,0-11.48-11.44"/><path class="cls-5" d="M244.38,125.76H230.49l-1.83,4.78h-6.9l13-32.17h5.33l13,32.17H246.2Zm-11.76-5.51h9.65l-4.78-12.5Z"/><path class="cls-2" d="M253.12,130.83h-6.9a.28.28,0,0,1-.27-.18l-1.77-4.59H230.71l-1.77,4.59a.29.29,0,0,1-.27.18h-6.9a.28.28,0,0,1-.24-.13.32.32,0,0,1,0-.27l13-32.17a.28.28,0,0,1,.27-.18h5.33a.29.29,0,0,1,.27.18l13,32.1a.28.28,0,0,1,.06.18.29.29,0,0,1-.29.29h0m-6.7-.58h6.26L240,98.67H235l-12.77,31.58h6.24l1.76-4.59a.27.27,0,0,1,.27-.19H244.4a.3.3,0,0,1,.28.19Zm-4.15-9.71h-9.65a.28.28,0,0,1-.24-.13.26.26,0,0,1,0-.27l4.82-12.5a.3.3,0,0,1,.41-.13.29.29,0,0,1,.14.13l4.82,12.5a.26.26,0,0,1,0,.27.31.31,0,0,1-.24.13m-9.22-.59h8.79l-4.45-11.39Z"/><path class="cls-2" d="M261.49,130.83a.29.29,0,0,1-.29-.29h0V98.36a.28.28,0,0,1,.28-.29.3.3,0,0,1,.3.29h0v32.17a.29.29,0,0,1-.29.29h0"/><path class="cls-2" d="M264.49,98.67h-5.94a.3.3,0,0,1-.29-.3.29.29,0,0,1,.29-.29h5.94a.29.29,0,0,1,.29.29h0a.31.31,0,0,1-.29.3"/><path class="cls-2" d="M264.49,130.83h-5.94a.29.29,0,1,1,0-.58h5.94a.29.29,0,1,1,0,.58"/><path class="cls-6" d="M308.94,70.1l-20.35,68.32,29.34-63.67a13.35,13.35,0,0,1-9-4.65"/><path class="cls-2" d="M288.59,139h-.2a.58.58,0,0,1-.35-.69L308.4,70a.56.56,0,0,1,1-.21A12.85,12.85,0,0,0,318,74.23a.55.55,0,0,1,.44.28.59.59,0,0,1,0,.52L289.1,138.66a.57.57,0,0,1-.51.33M309.2,71.22l-17.79,59.72,25.67-55.72a13.84,13.84,0,0,1-7.88-4"/><path class="cls-6" d="M320.36,74.75l29.34,63.67L329.34,70.1a13.4,13.4,0,0,1-9,4.65"/><path class="cls-2" d="M349.7,139a.56.56,0,0,1-.52-.33L319.84,75a.59.59,0,0,1,0-.52.54.54,0,0,1,.44-.28,12.77,12.77,0,0,0,8.6-4.46.57.57,0,0,1,.8-.1.58.58,0,0,1,.2.31l20.35,68.32a.57.57,0,0,1-.34.69.67.67,0,0,1-.2,0m-28.5-63.77,25.68,55.72-17.8-59.72a13.81,13.81,0,0,1-7.88,4"/><path class="cls-2" d="M322.69,49h-.15a12.63,12.63,0,0,0-6.79,0,.56.56,0,0,1-.5-.1.54.54,0,0,1-.22-.45V29.83a.55.55,0,0,1,.55-.57h7.11a.57.57,0,0,1,.57.57h0V48.46a.56.56,0,0,1-.23.45.54.54,0,0,1-.34.12m-6.52-18.67V47.71a13.28,13.28,0,0,1,5.95,0V30.36Z"/><path class="cls-2" d="M319.14,75.36a8.79,8.79,0,0,1-1.26-.06,14,14,0,1,1,2.53,0c-.42,0-.84.06-1.27.06m0-26.84a12.9,12.9,0,1,0,3.4.47,12.62,12.62,0,0,0-3.4-.47"/><path class="cls-6" d="M326.35,61.36a7.21,7.21,0,1,1-7.22-7.2h0a7.22,7.22,0,0,1,7.21,7.2"/><path class="cls-2" d="M319.14,69.16a7.77,7.77,0,1,1,7.77-7.77h0a7.78,7.78,0,0,1-7.77,7.77m0-14.4a6.64,6.64,0,1,0,6.64,6.64h0a6.65,6.65,0,0,0-6.64-6.63"/><path class="cls-2" d="M299.31,126.64H287a.57.57,0,0,1-.64-.49.56.56,0,0,1,.49-.64.38.38,0,0,1,.15,0h12.33a.57.57,0,0,1,.49.64.58.58,0,0,1-.49.49"/><path class="cls-2" d="M351.3,126.64H339a.57.57,0,0,1-.64-.49.56.56,0,0,1,.49-.64.38.38,0,0,1,.15,0H351.3a.57.57,0,1,1,.15,1.13.38.38,0,0,1-.15,0"/><path class="cls-7" d="M169.94,134.45h-.09a.24.24,0,0,1-.14-.32l3.21-8.86a.2.2,0,0,1,.13-.14.23.23,0,0,1,.2,0l8.45,3.55,3.13-8.62a.25.25,0,0,1,.13-.14.23.23,0,0,1,.2,0l8.45,3.55,3.13-8.62a.26.26,0,0,1,.32-.15.26.26,0,0,1,.14.32L194,123.88a.24.24,0,0,1-.14.14.31.31,0,0,1-.19,0l-8.45-3.56-3.13,8.62a.29.29,0,0,1-.13.14.23.23,0,0,1-.2,0l-8.45-3.55-3.13,8.62a.26.26,0,0,1-.23.16"/><path class="cls-7" d="M198.59,118.87a.27.27,0,0,1-.23-.15l-1.51-3.47-3.48,1.52a.25.25,0,0,1-.32-.12h0a.23.23,0,0,1,.1-.31h0l3.69-1.62a.21.21,0,0,1,.19,0,.43.43,0,0,1,.14.13l1.62,3.7a.26.26,0,0,1-.13.33h-.1"/><path class="cls-3" d="M192.73,130.41a2.15,2.15,0,1,1-2.15-2.15h0a2.15,2.15,0,0,1,2.15,2.15"/><path class="cls-8" d="M190.58,132.8a2.4,2.4,0,1,1,2.4-2.4h0a2.4,2.4,0,0,1-2.4,2.39m0-4.3a1.91,1.91,0,1,0,1.91,1.91,1.9,1.9,0,0,0-1.91-1.91h0"/><path class="cls-3" d="M168.2,109.44a1.64,1.64,0,1,1-1.64-1.64h0a1.64,1.64,0,0,1,1.64,1.64"/><path class="cls-8" d="M166.56,111.36a1.89,1.89,0,1,1,1.89-1.89h0a1.89,1.89,0,0,1-1.89,1.88m0-3.28a1.4,1.4,0,0,0,0,2.8,1.41,1.41,0,0,0,1.41-1.39h0a1.4,1.4,0,0,0-1.39-1.4"/><path class="cls-7" d="M201.54,130.65h-3.76a.25.25,0,0,1-.3-.2.25.25,0,0,1,.2-.29h3.86a.25.25,0,0,1,.29.19.25.25,0,0,1-.19.3h-.1"/><path class="cls-7" d="M176.24,115.81h-7.35a.25.25,0,0,1-.3-.2.25.25,0,0,1,.2-.29h7.45a.25.25,0,0,1,.29.19.25.25,0,0,1-.19.3h-.1"/><path class="cls-7" d="M202.49,123.59h-4.66a.25.25,0,0,1-.3-.2.25.25,0,0,1,.2-.29h4.76a.25.25,0,0,1,.19.29.26.26,0,0,1-.19.2"/><path class="cls-7" d="M168.89,121.92h-4.66a.25.25,0,0,1-.3-.2.25.25,0,0,1,.2-.29.17.17,0,0,1,.1,0h4.66a.25.25,0,0,1,.29.19.25.25,0,0,1-.19.3.17.17,0,0,1-.1,0"/><path class="cls-2" d="M245.32,76.49a.44.44,0,0,1-.25-.08c-.24-.14-5.87-3.55-6.8-7.71-.62-2.76.51-4.27,1.76-4.77,1.44-.57,3.63-.07,5.29,2.24,1.67-2.31,3.86-2.81,5.3-2.24,1.25.5,2.38,2,1.76,4.77-.93,4.16-6.56,7.57-6.8,7.71a.5.5,0,0,1-.26.08M241.2,64.72a2,2,0,0,0-.8.14c-1.13.45-1.56,1.8-1.15,3.63.73,3.26,5,6.2,6.07,6.91,1.1-.71,5.35-3.65,6.08-6.91.41-1.83,0-3.18-1.15-3.63s-3.16.22-4.5,2.48a.51.51,0,0,1-.43.24.5.5,0,0,1-.43-.24,4.62,4.62,0,0,0-3.69-2.62"/><path class="cls-2" d="M258.11,65.64l-1.67.54a1,1,0,0,1-.3,0,.59.59,0,0,1-.58-.58.6.6,0,0,1,.48-.58l2-.68a2.28,2.28,0,0,1,.74-.16h0a.66.66,0,0,1,.67.65V75.74a.67.67,0,0,1-.65.69h0a.69.69,0,0,1-.67-.69Z"/><path class="cls-2" d="M262.25,75.08l4.09-3.61c1.85-1.64,2.5-2.57,2.5-3.76a2.3,2.3,0,0,0-2.3-2.3h-.12a3.56,3.56,0,0,0-3,1.75.65.65,0,0,1-.5.24.61.61,0,0,1-.61-.61h0a.54.54,0,0,1,.13-.37,4.54,4.54,0,0,1,4.06-2.21,3.46,3.46,0,0,1,3.7,3.18c0,.07,0,.14,0,.21h0c0,1.74-.93,2.82-3,4.65L264,75.08h5.8a.64.64,0,0,1,.63.62.63.63,0,0,1-.63.61h-7.2a.63.63,0,0,1-.68-.58v0a.72.72,0,0,1,.32-.63"/><path class="cls-2" d="M272.89,64.44a.66.66,0,0,1,.57-.74.68.68,0,0,1,.74.58v8.27L279,67.67a.64.64,0,0,1,.52-.25.6.6,0,0,1,.6.6h0a.67.67,0,0,1-.26.51L277,71.36l3.16,4a.66.66,0,0,1,.17.44.62.62,0,0,1-.6.62h0a.63.63,0,0,1-.56-.31L276,72.24l-1.84,1.82v1.69a.65.65,0,0,1-.61.67h0a.66.66,0,0,1-.67-.65V64.44Z"/><polygon class="cls-4" points="298.83 10.3 298.83 41.32 275.54 41.32 273.36 42.65 271.18 41.32 247.89 41.32 247.89 10.3 245.98 10.3 245.98 43.34 270.15 43.34 270.15 45.18 276.57 45.18 276.57 43.34 300.74 43.34 300.74 10.3 298.83 10.3"/><path class="cls-2" d="M276.57,45.49h-6.42a.31.31,0,0,1-.31-.31V43.65H246a.31.31,0,0,1-.31-.31v-33A.31.31,0,0,1,246,10h1.91a.31.31,0,0,1,.31.31V41.05h23a.22.22,0,0,1,.16,0l2,1.24,2-1.24a.22.22,0,0,1,.16,0h23V10.3a.31.31,0,0,1,.31-.31h1.91a.31.31,0,0,1,.31.31v33a.31.31,0,0,1-.31.31H276.89v1.53a.31.31,0,0,1-.31.31h0m-6.11-.62h5.8V43.36a.31.31,0,0,1,.31-.31h23.86V10.61h-1.29V41.36a.31.31,0,0,1-.31.31h-23.2l-2.14,1.25a.31.31,0,0,1-.32,0l-2.11-1.29H247.89a.31.31,0,0,1-.31-.31V10.61h-1.29V43h23.86a.31.31,0,0,1,.31.31Z"/><polygon class="cls-9" points="271.07 8.57 271.18 41.32 273.36 42.65 273.36 10.86 271.07 8.57"/><path class="cls-2" d="M273.36,43h-.16L271,41.63a.28.28,0,0,1-.15-.26l-.12-32.75a.31.31,0,0,1,.33-.31.33.33,0,0,1,.21.09l2.29,2.29a.36.36,0,0,1,.09.22V42.7a.33.33,0,0,1-.16.28.38.38,0,0,1-.15,0m-1.87-1.84,1.56,1V11l-1.67-1.63Z"/><polygon class="cls-3" points="247.89 8.58 247.89 10.3 247.89 41.32 271.18 41.32 271.07 8.57 247.89 8.58"/><path class="cls-2" d="M271.18,41.63H247.89a.31.31,0,0,1-.31-.31V8.58a.31.31,0,0,1,.31-.31h23.18a.31.31,0,0,1,.31.31l.11,32.78a.31.31,0,0,1-.31.31m-23-.62h22.67l-.11-32.13H248.2Z"/><polygon class="cls-10" points="275.66 8.57 275.54 41.32 298.83 41.32 298.83 10.3 298.83 8.58 275.66 8.57"/><path class="cls-2" d="M298.83,41.63H275.54a.31.31,0,0,1-.31-.31l.11-32.75a.31.31,0,0,1,.31-.31h23.18a.31.31,0,0,1,.31.31V41.36a.31.31,0,0,1-.31.31m-23-.62h22.66V8.89H276Z"/><polygon class="cls-3" points="273.36 10.86 273.36 42.65 275.54 41.32 275.66 8.57 273.36 10.86"/><path class="cls-2" d="M273.36,43h-.15a.33.33,0,0,1-.16-.28V10.86a.31.31,0,0,1,.09-.22l2.35-2.28a.29.29,0,0,1,.33-.07.3.3,0,0,1,.2.29l-.17,32.78a.36.36,0,0,1-.15.27l-2.21,1.29h-.16m.31-32V42l1.56-1,.14-31.67Z"/><rect class="cls-9" x="251.46" y="12.88" width="15.96" height="6.39"/><path class="cls-2" d="M267.43,19.58H251.49a.31.31,0,0,1-.31-.31h0V12.88a.31.31,0,0,1,.31-.31h16a.31.31,0,0,1,.31.31v6.38a.32.32,0,0,1-.3.32h0M251.84,19h15.33V13.19H251.78Z"/><path class="cls-2" d="M267,24.79H251.89a.31.31,0,1,1,0-.62H267a.31.31,0,1,1,0,.62"/><path class="cls-2" d="M267,30.36H251.89a.31.31,0,1,1,0-.62H267a.31.31,0,1,1,0,.62"/><path class="cls-2" d="M267,36H251.89a.32.32,0,0,1-.26-.37.31.31,0,0,1,.26-.26H267a.32.32,0,0,1,.26.37A.33.33,0,0,1,267,36"/><rect class="cls-9" x="279.7" y="13.31" width="13.69" height="3.07"/><rect class="cls-9" x="279.7" y="18.88" width="13.69" height="3.07"/><rect class="cls-9" x="279.7" y="24.45" width="13.69" height="3.07"/><rect class="cls-9" x="279.7" y="30.02" width="13.69" height="3.07"/><rect class="cls-9" x="279.7" y="35.6" width="13.69" height="3.07"/><path class="cls-2" d="M294.81,13.62H279.7a.31.31,0,0,1,0-.62h15.11a.31.31,0,1,1,0,.62"/><path class="cls-2" d="M294.81,24.79H279.7a.31.31,0,0,1,0-.62h15.11a.31.31,0,1,1,0,.62"/><path class="cls-2" d="M294.81,30.36H279.7a.31.31,0,0,1,0-.62h15.11a.31.31,0,1,1,0,.62"/><path class="cls-2" d="M294.81,19.21H279.7a.32.32,0,0,1-.26-.37.31.31,0,0,1,.26-.26h15.11a.32.32,0,0,1,.26.37.33.33,0,0,1-.26.26"/><path class="cls-2" d="M294.81,36H279.7a.32.32,0,0,1-.26-.37.31.31,0,0,1,.26-.26h15.11a.32.32,0,0,1,.26.37.33.33,0,0,1-.26.26"/><path class="cls-2" d="M146.24,107.25H125.49a7.4,7.4,0,1,1,0-14.8h1A9.32,9.32,0,0,1,135.65,85h.41a9.34,9.34,0,0,1,9.17,7.45h1a7.4,7.4,0,1,1,0,14.8M125.49,93.36a6.5,6.5,0,0,0,0,13h20.79a6.5,6.5,0,0,0,0-13h-1.4a.45.45,0,0,1-.45-.39,8.43,8.43,0,0,0-8.34-7.07h-.41A8.42,8.42,0,0,0,127.34,93a.46.46,0,0,1-.45.39Z"/><path class="cls-2" d="M135.84,104.36a.46.46,0,0,1-.32-.13L130.24,99a.46.46,0,0,1,0-.65.48.48,0,0,1,.65,0l5,5,5-5a.48.48,0,0,1,.65,0,.46.46,0,0,1,0,.65l-5.28,5.28a.51.51,0,0,1-.33.13"/><path class="cls-2" d="M135.84,104.36a.45.45,0,0,1-.45-.45V91.31a.45.45,0,0,1,.45-.45.46.46,0,0,1,.46.45v12.6a.46.46,0,0,1-.46.45"/><rect class="cls-11" x="58.19" y="20.85" width="54.4" height="27.75"/><path class="cls-2" d="M112.59,49H58.19a.41.41,0,0,1-.41-.41h0V20.85a.41.41,0,0,1,.41-.41h54.4a.41.41,0,0,1,.41.41h0V48.6a.41.41,0,0,1-.41.41h0m-54-.82h53.58V21.26H58.6Z"/><path class="cls-2" d="M112.59,21.26H58.19a.41.41,0,0,1-.41-.41h0V19a2.85,2.85,0,0,1,2.86-2.85h49.5A2.86,2.86,0,0,1,113,19v1.87a.41.41,0,0,1-.41.41h0m-54-.82h53.58V19a2,2,0,0,0-2-2H60.64a2,2,0,0,0-2,2Z"/><path class="cls-4" d="M50.49,51.36V53.8a3.15,3.15,0,0,0,3.15,3.14h63.48a3.16,3.16,0,0,0,3.15-3.14V51.36Z"/><path class="cls-2" d="M117.13,57.36H53.65a3.55,3.55,0,0,1-3.55-3.55h0V51.36a.4.4,0,0,1,.39-.41h69.79a.4.4,0,0,1,.4.4h0V53.8a3.55,3.55,0,0,1-3.55,3.55h0M50.91,51.77v2a2.74,2.74,0,0,0,2.74,2.73h63.48a2.74,2.74,0,0,0,2.74-2.73v-2Z"/><rect class="cls-10" x="77.9" y="51.39" width="14.97" height="2.25"/><path class="cls-2" d="M92.88,54h-15a.4.4,0,0,1-.4-.4h0V51.36a.4.4,0,0,1,.39-.41h15a.41.41,0,0,1,.41.41h0v2.25a.42.42,0,0,1-.41.4M78.31,53.2H92.49V51.77H78.31Z"/><path class="cls-12" d="M94.37,35a9.58,9.58,0,1,1-9.58-9.58h0A9.57,9.57,0,0,1,94.37,35h0"/><path class="cls-2" d="M84.8,44.86A9.86,9.86,0,1,1,94.65,35v0a9.87,9.87,0,0,1-9.85,9.85m0-19.16A9.31,9.31,0,1,0,94.1,35h0a9.32,9.32,0,0,0-9.3-9.31"/><polygon class="cls-3" points="81.33 29.36 91.11 35.01 81.33 40.65 81.33 29.36"/><path class="cls-2" d="M81.33,40.93H81.2a.27.27,0,0,1-.14-.24V29.36a.23.23,0,0,1,.14-.23.26.26,0,0,1,.27,0l9.78,5.64a.28.28,0,0,1,.09.38.22.22,0,0,1-.09.1l-9.76,5.64h-.14m.28-11.09V40.14l9-5.17Z"/><path class="cls-2" d="M97,35.28h-2.6A.27.27,0,0,1,94.1,35a.28.28,0,0,1,.27-.28H97a.28.28,0,0,1,.28.28.27.27,0,0,1-.27.27h0"/><path class="cls-2" d="M97,38.77H93.72a.28.28,0,1,1,0-.55H97a.28.28,0,0,1,.28.28.27.27,0,0,1-.27.27h0"/><path class="cls-2" d="M97,42.15H91.49a.28.28,0,1,1-.11-.55H97a.27.27,0,0,1,.32.22.28.28,0,0,1-.22.33H97"/><path class="cls-2" d="M76.61,30.3H71.67a.28.28,0,0,1,0-.55h4.94a.28.28,0,0,1,0,.55"/><path class="cls-2" d="M75.36,33.63H71.67a.28.28,0,0,1-.27-.28.27.27,0,0,1,.27-.27h3.69a.27.27,0,0,1,.27.27.28.28,0,0,1-.27.28"/><path class="cls-12" d="M58.6,20.44h53.58V19a2,2,0,0,0-2-2H60.64a2,2,0,0,0-2,2Z"/></g></g></svg>