<?xml version="1.0" encoding="utf-8"?>
<!-- Generator: Adobe Illustrator 17.0.0, SVG Export Plug-In . SVG Version: 6.00 Build 0)  -->
<!DOCTYPE svg PUBLIC "-//W3C//DTD SVG 1.1//EN" "http://www.w3.org/Graphics/SVG/1.1/DTD/svg11.dtd">
<svg version="1.1" id="Слой_1" xmlns="http://www.w3.org/2000/svg" xmlns:xlink="http://www.w3.org/1999/xlink" x="0px" y="0px"
	 width="116.812px" height="181px" viewBox="0 0 116.812 181" enable-background="new 0 0 116.812 181" xml:space="preserve">
<path fill="#B17169" d="M67.758,6.331c-0.306-0.05-0.57,0.006-0.81,0.101c-4.167-1.197-8.552-1.877-13.022-2.126
	c-13.479-0.753-33.44,0.006-42.619,11.516c-4.24,5.317-5.686,12.153-7.21,18.623C1.69,44.647-0.644,55.206,0.163,65.759
	c2.797,36.464,44.421,57.267,74.674,36.871c-0.819,13.095,0.501,25.833-10.953,35.286c-3.093,2.551-7.088,4.605-11.258,5.572
	c-0.161-0.076-0.324-0.145-0.488-0.214c0.491-0.614,0.485-1.591-0.517-1.789c-6.01-1.178-3.232-6.949-6.574-10.03
	c-1.005-0.929-2.451-1.285-3.701-1.736c-2.671-0.964-5.336-1.934-8.001-2.907c-0.35-0.129-0.661,0.009-0.866,0.255
	c-0.126-0.044-0.265-0.069-0.419-0.069c-8.017-0.098-16.065-0.381-24.079,0.025c-0.381-0.542-1.367-0.617-1.666,0.041
	c-0.006,0.013-0.009,0.025-0.013,0.038c-0.343,0.022-0.684,0.022-1.027,0.047c-0.91,0.066-0.888,1.307,0,1.402
	c0.173,0.019,0.35,0.025,0.523,0.041c-1.802,5.913,0.079,14.169,2.904,19.489c0.857,3.824,2.596,7.138,4.98,9.979
	c12.78,18.954,34.974,24.321,56.93,21.036c11.375-1.701,22.214-5.276,29.676-14.452c7.888-9.699,11.668-22.8,13.74-34.886
	c0.898-5.238,1.638-11.17,2.132-17.511c0.23-0.277,0.29-0.696,0.079-1.077C119.204,70.588,111.745,13.598,67.758,6.331
	 M113.94,94.723c-1.266-0.954-2.618-1.821-3.903-2.722c-1.978-1.386-3.906-2.851-5.912-4.196c-0.044-1.521-0.101-3.011-0.164-4.486
	c1.326,1.068,2.652,2.139,3.985,3.2c1.821,1.452,3.572,3.2,5.752,4.07c0.047,0.019,0.094,0.019,0.145,0.028
	C113.884,91.992,113.925,93.365,113.94,94.723 M113.745,87.976c-1.307-1.26-2.907-2.252-4.36-3.32
	c-1.846-1.354-3.698-2.706-5.553-4.054c-0.088-1.707-0.195-3.355-0.306-4.968c1.288,1.225,2.602,2.422,3.969,3.559
	c1.795,1.493,3.777,3.443,5.994,4.256C113.591,84.961,113.679,86.47,113.745,87.976 M113.276,80.661
	c-1.424-1.121-3.134-2.032-4.536-3.078c-1.871-1.402-3.654-2.907-5.399-4.46c-0.123-1.572-0.271-3.166-0.432-4.766
	c1.521,1.418,3.181,2.718,4.772,4.048c1.635,1.364,3.257,3.062,5.191,3.988C113.024,77.814,113.162,79.238,113.276,80.661
	 M111.698,67.734c0.299,1.836,0.573,3.679,0.806,5.528c-1.125-0.92-2.381-1.729-3.503-2.564c-1.931-1.436-3.815-3.015-5.868-4.268
	c-0.148-0.088-0.293-0.11-0.435-0.101c-0.23-2.073-0.501-4.161-0.81-6.256c1.102,0.954,2.199,1.912,3.32,2.848
	c1.918,1.594,3.793,3.537,6.02,4.681C111.392,67.686,111.546,67.721,111.698,67.734 M109.823,58.299
	c0.482,2.019,0.923,4.06,1.307,6.12c-1.402-1.228-3.03-2.277-4.473-3.38c-1.732-1.323-3.493-2.605-5.251-3.893
	c-0.331-2.003-0.724-4-1.147-5.991c1.065,0.85,2.114,1.72,3.185,2.564c2.013,1.588,4.019,3.408,6.313,4.558
	C109.782,58.29,109.801,58.29,109.823,58.299 M106.708,47.671c0.866,2.457,1.647,4.971,2.334,7.535
	c-1.373-1.137-2.882-2.145-4.297-3.172c-1.682-1.222-3.383-2.419-5.087-3.613c-0.394-1.676-0.838-3.336-1.304-4.99
	c0.536,0.41,1.058,0.832,1.607,1.229c1.799,1.301,3.821,3.163,6.095,3.339C106.324,48.021,106.544,47.87,106.708,47.671
	 M103.064,38.962c1.084,2.236,2.098,4.53,2.989,6.905c-1.298-1.232-3.118-1.997-4.605-2.942c-1.395-0.888-2.75-1.833-4.095-2.797
	c-0.611-1.906-1.301-3.774-2.032-5.62c0.652,0.532,1.295,1.074,1.947,1.607c1.443,1.181,2.86,2.473,4.523,3.333
	C102.345,39.737,102.89,39.422,103.064,38.962 M98.49,34.533c-1.499-1.08-2.989-2.17-4.511-3.219
	c-0.494-1.099-1.046-2.161-1.588-3.232c1.944,1.377,3.73,2.93,5.708,4.347c0.432,0.309,0.926,0.069,1.162-0.321
	c1.125,1.767,2.177,3.591,3.144,5.484C101.227,36.435,99.822,35.497,98.49,34.533 M96.502,28.119
	c-1.827-1.528-4.016-2.706-6.098-3.657c-0.003,0-0.006,0-0.01,0c-0.507-0.86-0.986-1.736-1.534-2.564
	c-1.292-1.947-2.731-3.685-4.278-5.27C89.229,19.791,93.16,23.687,96.502,28.119 M48.329,143.242
	c0.271,0.139,0.551,0.255,0.847,0.343c0.195,0.126,0.391,0.246,0.586,0.372c-2.24,0.224-4.482,0.129-6.624-0.473
	c-2.407-0.674-3.972-1.814-5.109-3.219c1.062,0.416,2.12,0.844,3.185,1.254c2.032,0.778,4.098,1.818,6.24,2.177
	C47.844,143.759,48.178,143.538,48.329,143.242 M46.244,141.472c-2.942-1.317-6.306-2.196-9.409-3.055
	c-0.558-1.058-1.005-2.192-1.424-3.37c2.863,1.361,5.815,2.788,8.77,3.465c0.18,0.041,0.34,0.013,0.482-0.047
	C45.018,139.547,45.551,140.593,46.244,141.472 M33.247,128.683c2.397,1.068,4.794,2.126,7.176,3.222
	c1.44,0.661,2.778,1.238,3.443,2.829c0.265,0.636,0.35,1.386,0.45,2.123c-2.914-1.603-6.344-2.627-9.582-3.695
	c-0.485-1.329-1.03-2.659-1.792-3.915C33.096,129.093,33.19,128.894,33.247,128.683 M10.532,135.591
	c0.035-0.926-1.408-1.143-1.635-0.246c0.006-0.151,0.003-0.302,0.013-0.454c0.088-1.953,0.661-4.048,0.12-5.931
	c-0.016-0.05-0.063-0.069-0.085-0.117c7.264,0.561,14.572,0.595,21.855,0.731c1.266,7.377,0.028,13.113,8.363,16.805
	c6.662,2.952,14.925,1.559,21.222-1.584c17.016-8.489,19.212-27.191,16.89-44.141c0.605-1.276-0.624-3.024-2.092-2.076
	c-17.331,11.214-39.778,12.424-56.076-1.594C2.16,82.416,1.501,61.453,5.851,41.031c1.881-8.823,3.276-18.44,9.935-24.945
	c6.823-6.662,16.522-7.992,25.717-8.788c18.191-1.578,36.735,1.871,46.633,18.73c2.363,4.026,4.262,8.319,5.865,12.748
	c-0.233,0.337-0.287,0.803,0.066,1.125c0.157,0.142,0.324,0.271,0.482,0.41c0.797,2.337,1.54,4.7,2.17,7.103
	c-0.192,0.302-0.22,0.699,0.104,0.97c0.066,0.057,0.135,0.107,0.202,0.164c0.665,2.646,1.235,5.324,1.723,8.01
	c-0.148,0.321-0.142,0.702,0.17,0.973c0.863,4.933,1.487,9.9,1.893,14.811c-0.082,0.195-0.072,0.416,0.05,0.627
	c0.176,2.205,0.315,4.397,0.425,6.565c0.009,0.186,0.016,0.375,0.025,0.561c-0.224,0.346-0.261,0.787,0.054,1.112
	c0.822,17.18,1.036,35.545-3.802,52.104c-6.331,21.653-22.318,34.965-45.136,34.694c-9.614-0.117-20.803-0.079-29.197-5.264
	C13.811,156.926,10.135,146.162,10.532,135.591 M21.979,164.842c3.49,2,7.453,3.515,11.642,4.608
	c1.72,1.723,4.029,3.002,6.061,4.287c0.321,0.205,0.652,0.425,0.98,0.639C33.899,172.433,27.539,169.309,21.979,164.842
	 M47.028,175.829c-1.865-1.572-4.221-2.646-6.297-3.89c-0.75-0.447-1.496-0.939-2.246-1.43c1.717,0.302,3.459,0.52,5.207,0.69
	c0,0,0,0.003,0.003,0.003c2.97,1.594,5.736,3.512,8.577,5.298C50.512,176.339,48.761,176.132,47.028,175.829 M55.114,176.717
	c-2.52-2.177-5.506-3.881-8.54-5.317c1.994,0.11,3.985,0.113,5.96,0.063c0,0.151,0.05,0.302,0.214,0.41
	c2.526,1.657,5.018,3.478,7.683,4.901C58.655,176.818,56.881,176.806,55.114,176.717 M61.477,176.73
	c0.202-0.271,0.211-0.693-0.157-0.958c-2.29-1.632-4.829-2.961-7.286-4.344c1.603-0.076,3.188-0.214,4.747-0.397
	c2.633,1.739,5.301,3.758,8.121,5.27C65.097,176.5,63.289,176.661,61.477,176.73 M69.595,175.98
	c-0.028-0.032-0.041-0.063-0.076-0.091c-2.507-2.06-5.522-3.6-8.414-5.172c2.158-0.334,4.24-0.778,6.231-1.31
	c2.646,1.944,5.374,4.133,8.348,5.39C73.668,175.265,71.642,175.678,69.595,175.98 M77.583,174.352
	c-0.117,0.032-0.236,0.054-0.353,0.082c0.054-0.255,0.006-0.532-0.189-0.731c-1.985-2.044-4.656-3.569-7.248-5.037
	c1.421-0.463,2.797-0.961,4.073-1.534c0.117-0.054,0.224-0.113,0.337-0.167c2.432,2.268,5.286,4.621,8.303,5.758
	C80.941,173.347,79.306,173.901,77.583,174.352 M84.189,171.955c-0.047-0.195-0.157-0.381-0.337-0.517
	c-1.54-1.172-3.377-1.966-5.008-3.018c-1.071-0.69-2.095-1.443-3.096-2.224c1.241-0.639,2.41-1.345,3.55-2.082
	c2.369,2.243,5.043,4.86,8.001,6.237C86.29,170.915,85.269,171.466,84.189,171.955 M89.043,169.287
	c-0.019-0.028-0.028-0.06-0.054-0.085c-1.222-1.269-2.822-2.151-4.262-3.15c-1.345-0.929-2.637-1.937-3.925-2.948
	c1.323-0.942,2.555-1.969,3.739-3.043c2.385,2.34,5.119,4.98,8.149,6.568C91.531,167.57,90.328,168.471,89.043,169.287
	 M94.467,165.107c-1.244-1.005-2.633-1.833-3.938-2.763c-1.588-1.131-3.093-2.363-4.552-3.654c1.099-1.099,2.126-2.268,3.106-3.478
	c2.551,2.328,5.289,4.993,8.385,6.379c0.104,0.047,0.217,0.06,0.331,0.06C96.748,162.857,95.655,164.026,94.467,165.107
	 M98.669,160.652c-0.025-0.06-0.041-0.117-0.085-0.173c-2.085-2.772-5.333-4.908-8.228-6.924c0.765-1.036,1.458-2.136,2.145-3.235
	c1.15,1.181,2.312,2.35,3.487,3.509c1.251,1.235,2.485,2.816,4.101,3.572c0.384,0.18,0.787,0.098,1.071-0.123
	C100.373,158.438,99.554,159.572,98.669,160.652 M101.482,156.803c0.057-0.211,0.044-0.45-0.094-0.699
	c-0.873-1.572-2.504-2.671-3.834-3.843c-1.351-1.188-2.712-2.366-4.092-3.522c0.863-1.493,1.644-3.049,2.385-4.64
	c1.188,1.2,2.369,2.403,3.582,3.582c1.197,1.159,2.403,2.488,3.909,3.241c0.778,0.391,1.726-0.419,1.238-1.235
	c-0.869-1.452-2.249-2.542-3.503-3.651c-1.351-1.197-2.731-2.359-4.104-3.531c-0.113-0.094-0.23-0.158-0.35-0.198
	c0.573-1.339,1.106-2.709,1.6-4.101c1.301,1.44,2.608,2.873,3.931,4.293c1.225,1.317,2.435,2.996,4.152,3.645
	c0.236,0.091,0.476,0.019,0.687-0.107C105.473,149.845,103.684,153.486,101.482,156.803 M107.417,144.918
	c-0.668-1.679-2.303-2.879-3.594-4.092c-1.537-1.44-3.084-2.863-4.643-4.281c-0.113-0.101-0.23-0.167-0.346-0.208
	c0.35-1.068,0.668-2.151,0.976-3.241c1.474,1.408,2.951,2.816,4.423,4.224c1.389,1.323,2.766,2.791,4.602,3.449
	C108.393,142.168,107.93,143.557,107.417,144.918 M109.439,138.754c-0.929-1.392-2.35-2.46-3.619-3.525
	c-1.647-1.38-3.292-2.759-4.939-4.139c-0.151-0.126-0.312-0.195-0.472-0.236c0.425-1.654,0.794-3.336,1.14-5.027
	c1.301,1.21,2.599,2.422,3.906,3.626c1.496,1.377,2.964,2.964,4.712,4.013c0.202,0.123,0.394,0.154,0.576,0.154
	C110.353,135.345,109.924,137.062,109.439,138.754 M111.197,131.402c-1.282-1.418-2.974-2.577-4.454-3.758
	c-1.597-1.273-3.197-2.539-4.797-3.808c0.381-2.07,0.703-4.161,0.98-6.262c1.458,1.465,2.958,2.882,4.464,4.297
	c1.446,1.358,2.835,2.844,4.52,3.9c0.088,0.057,0.173,0.079,0.258,0.104C111.884,127.719,111.569,129.565,111.197,131.402
	 M112.507,123.59c-1.159-1.276-2.561-2.363-3.859-3.484c-1.534-1.326-3.071-2.646-4.656-3.919c-0.29-0.233-0.617-0.249-0.895-0.148
	c0.239-1.978,0.428-3.966,0.589-5.95c1.162,1.49,2.397,2.914,3.827,4.164c1.556,1.358,3.506,3.213,5.591,3.582
	C112.942,119.75,112.766,121.665,112.507,123.59 M113.336,115.245c-1.307-1.106-2.98-1.928-4.275-2.999
	c-1.67-1.386-3.2-2.923-4.59-4.59c-0.17-0.205-0.384-0.287-0.605-0.309c0.101-1.591,0.176-3.182,0.236-4.763
	c1.638,1.733,3.367,3.383,5.106,5.012c1.392,1.304,2.781,2.775,4.36,3.909C113.496,112.769,113.421,114.02,113.336,115.245
	 M113.714,108.605c-1.125-0.936-2.318-1.808-3.405-2.718c-1.994-1.67-3.912-3.43-5.922-5.081c-0.072-0.063-0.151-0.101-0.23-0.129
	c0.041-1.446,0.06-2.876,0.069-4.3c1.61,1.462,3.241,2.898,4.942,4.253c1.493,1.194,3.021,2.545,4.703,3.484
	C113.83,105.628,113.78,107.131,113.714,108.605 M113.934,101.288c-1.033-0.731-2.114-1.408-3.125-2.139
	c-1.953-1.414-3.878-2.863-5.761-4.369c-0.261-0.211-0.554-0.233-0.816-0.164c0-1.764-0.022-3.509-0.06-5.229
	c1.585,1.348,3.216,2.646,4.807,3.985c1.622,1.361,3.207,2.851,4.971,4.035C113.95,98.705,113.956,100.009,113.934,101.288"/>
<path fill="#B17169" d="M52.31,27.21c-31.201-1.411-28.589,58.149-2.501,56.741c0.221,0.658,0.743,1.188,1.55,1.118
	c14.37-1.235,26.208-12.861,26.684-27.559C78.486,43.776,66.897,27.868,52.31,27.21 M59.592,32.905
	c3.131,1.55,5.868,3.739,8.133,6.331c-2.066-1.162-4.215-1.732-6.347-1.84c-1.37-0.939-2.844-1.748-4.212-2.693
	c-1.71-1.181-3.282-2.495-4.848-3.834C54.581,30.999,57.003,31.623,59.592,32.905 M50.168,30.899
	c1.896,2.344,4.413,4.93,7.173,6.858c-1.014,0.236-2.013,0.561-2.974,0.989c-1.329-1.049-2.895-1.862-4.303-2.753
	c-1.799-1.131-3.597-2.268-5.412-3.377C46.324,31.667,48.174,31.084,50.168,30.899 M43.118,33.614
	c1.959,1.399,3.953,2.744,5.938,4.104c1.036,0.712,2.066,1.493,3.144,2.183c-0.788,0.491-1.553,1.03-2.268,1.651
	c-2.268-2.577-5.875-4.394-9.176-5.85C41.489,34.924,42.283,34.228,43.118,33.614 M39.543,37.11c1.455,0.847,2.895,1.723,4.29,2.659
	c1.553,1.036,3.002,2.293,4.64,3.185c-0.608,0.649-1.188,1.332-1.714,2.07c-1.824-0.825-3.72-1.477-5.506-2.4
	c-1.329-0.687-2.592-1.474-3.83-2.306C38.056,39.167,38.768,38.099,39.543,37.11 M36.761,41.561
	c2.693,2.123,5.755,4.108,8.965,5.062c-0.394,0.674-0.762,1.364-1.077,2.092c-0.132,0.309-0.217,0.643-0.337,0.961
	c-1.61-0.797-3.336-1.383-4.964-2.12c-1.414-0.639-2.781-1.367-4.145-2.101C35.643,44.1,36.163,42.796,36.761,41.561 M34.755,46.979
	c2.731,1.849,5.821,3.686,8.877,4.624c-0.334,1.156-0.605,2.337-0.787,3.55c-1.298-0.649-2.722-1.109-4.013-1.72
	c-1.676-0.791-3.311-1.66-4.927-2.567C34.112,49.543,34.408,48.249,34.755,46.979 M33.743,52.026
	c1.418,0.942,2.854,1.855,4.331,2.703c1.405,0.806,2.961,1.846,4.564,2.369c-0.129,1.477-0.189,2.97-0.11,4.47
	c-1.288-0.476-2.614-0.876-3.862-1.424c-1.811-0.794-3.484-1.786-5.191-2.756C33.432,55.595,33.526,53.799,33.743,52.026
	 M33.551,58.978c2.558,2.085,5.966,4.136,9.17,4.801c0.129,1.055,0.287,2.104,0.513,3.141c-1.462-0.52-3.024-0.907-4.372-1.496
	c-1.688-0.737-3.273-1.632-4.826-2.596C33.8,61.561,33.643,60.272,33.551,58.978 M34.427,64.6c1.292,0.898,2.614,1.748,4.007,2.482
	c1.578,0.835,3.563,1.944,5.462,2.309c0.447,1.474,0.964,2.923,1.622,4.297c-3.008-1.673-6.391-3.015-9.459-4.35
	C35.372,67.835,34.837,66.242,34.427,64.6 M37.473,71.956c3.216,1.969,6.583,3.991,10.017,5.175c0.967,1.44,2.054,2.785,3.292,3.963
	C44.646,79.957,40.292,76.52,37.473,71.956 M53.683,81.106c-6.054-5.872-8.726-15.095-8.058-23.458
	c0.873-10.987,11.003-22.466,22.28-14.578c0.432,0.302,0.838,0.318,1.191,0.192c0.299,0.268,0.583,0.542,0.917,0.797
	c0.441,0.337,1.033,0.778,1.654,1.077c2.816,5.629,3.749,12.172,2.035,18.387C71.024,73.25,62.912,78.854,53.683,81.106"/>
</svg>
