<?xml version="1.0" encoding="utf-8"?>
<!-- Generator: Adobe Illustrator 17.0.0, SVG Export Plug-In . SVG Version: 6.00 Build 0)  -->
<!DOCTYPE svg PUBLIC "-//W3C//DTD SVG 1.1//EN" "http://www.w3.org/Graphics/SVG/1.1/DTD/svg11.dtd">
<svg version="1.1" id="Слой_1" xmlns="http://www.w3.org/2000/svg" xmlns:xlink="http://www.w3.org/1999/xlink" x="0px" y="0px"
	 width="102.696px" height="181px" viewBox="0 0 102.696 181" enable-background="new 0 0 102.696 181" xml:space="preserve">
<path fill="#B17169" d="M102.041,148.09c-0.091-0.639-0.658-0.948-1.238-0.951c-1.805-1.72-4.202-2.964-6.268-4.325
	c-1.849-1.216-3.673-2.495-5.544-3.689c-0.088-0.164-0.192-0.312-0.321-0.432c-0.022-0.709-0.567-1.506-1.358-1.61
	c-9.664-1.288-19.968-1.43-30.199-1.102c3.049-2.564,6.174-5.506,9.293-8.722c0.409,0.035,0.709-0.356,0.724-0.756
	c10.823-11.334,21.433-26.154,28.063-41.665c0.246-0.17,0.369-0.447,0.315-0.769c9.434-22.554,10.351-46.472-8.811-63.221
	c-0.258-0.34-0.476-0.687-0.747-1.024C61.012-11.312-4.439,3.436,0.708,48.238c0.006,0.035,0.022,0.057,0.028,0.088
	c-0.655,0.261-1.043,1.178-0.428,1.802c3.263,3.32,7.1,6.555,10.893,9.302c0.057,0.098,0.167,0.161,0.287,0.217
	c0.041,0.028,0.079,0.06,0.117,0.085c0.394,0.28,0.806,0.306,1.181,0.183c3.449,0.598,7.053,0.334,10.534,0.211
	c3.903-0.139,8.174,0.243,11.898-1.027c1.131-0.384,1.38-2.076,0.28-2.586c5.761-9.242,15.186-20.154,26.599-12.137
	c0.378,0.265,0.769,0.312,1.14,0.249c3.493,12.543-5.21,25.417-12.672,34.883c-10.127,12.846-20.595,25.424-30.813,38.2
	c-1.805,1.468-3.522,3.103-5.163,4.794c-0.195,0.076-0.387,0.198-0.561,0.4c-1.052,1.228-2.322,2.485-3.367,3.843
	c-0.167,0.192-0.334,0.384-0.501,0.573c-0.964-0.022-1.947,0.586-1.981,1.843c-0.347,12.635-0.769,25.398-0.082,38.027
	c0.054,0.964,0.813,1.355,1.518,1.26c1.726,1.824,3.553,3.556,5.352,5.314c1.789,1.748,3.497,3.673,5.522,5.15
	c0.863,0.63,1.707,0.183,2.12-0.554c4.476,0.702,9.006,1.203,13.551,1.619c0.123,0.091,0.23,0.208,0.356,0.293
	c0.387,0.261,0.8,0.123,1.052-0.167c20.45,1.736,41.413,0.797,61.56-1.496c0.715-0.079,1.213-0.469,1.531-0.964
	c0.513,0.202,1.166-0.044,1.206-0.8C102.378,167.582,103.351,157.282,102.041,148.09 M98.966,166.811
	c-1.112-1.036-2.378-1.966-3.465-2.986c-1.477-1.395-2.895-2.863-4.287-4.344c0.032-1.232,0.019-2.476-0.006-3.723
	c0.788,0.832,1.578,1.66,2.363,2.498c1.673,1.786,3.27,3.755,5.188,5.279C98.818,164.628,98.878,165.724,98.966,166.811
	 M98.648,160.255c-1.181-1.181-2.466-2.284-3.67-3.411c-1.301-1.219-2.589-2.448-3.884-3.679c-0.063-1.238-0.195-2.463-0.312-3.692
	c1.21,1.247,2.448,2.466,3.749,3.626c1.323,1.175,2.621,2.419,4.139,3.295C98.636,157.672,98.623,158.961,98.648,160.255
	 M92.937,144.887c1.994,1.644,3.972,3.711,6.272,4.905c-0.176,1.159-0.29,2.344-0.381,3.537c-1.074-0.8-2.208-1.54-3.241-2.363
	c-1.796-1.433-3.506-2.964-5.16-4.555c-0.186-1.361-0.375-2.725-0.639-4.038C90.839,143.208,91.901,144.033,92.937,144.887
	 M56.148,133.232c-0.759-0.778-1.641-1.446-2.507-2.104c-1.351-1.03-2.788-1.928-4.265-2.766c1.301-1.241,2.615-2.533,3.934-3.849
	l3.018,3.377c0.791,0.882,1.553,1.84,2.429,2.652C57.878,131.461,57.005,132.365,56.148,133.232 M44.411,132.983
	c1.266-1.147,2.558-2.347,3.862-3.578c1.477,0.977,2.904,2.019,4.265,3.153c0.775,0.646,1.496,1.367,2.265,2.019
	c-0.529,0.523-1.062,1.052-1.578,1.553c-1.424,0.06-2.838,0.139-4.252,0.211C47.483,135.194,45.917,134.114,44.411,132.983
	 M46.182,136.486c-2.066,0.117-4.123,0.243-6.155,0.375c1.109-0.954,2.249-1.962,3.402-2.996
	C44.311,134.75,45.227,135.641,46.182,136.486 M60.105,129.118c-0.769-0.891-1.676-1.685-2.504-2.498
	c-1.077-1.055-2.155-2.11-3.235-3.166c1.153-1.165,2.309-2.366,3.468-3.582c0.022,0.044,0.035,0.088,0.072,0.132
	c1.55,1.865,3.38,3.975,5.462,5.544C62.272,126.768,61.182,127.968,60.105,129.118 M64.625,124.131
	c-0.643-0.457-1.295-0.907-1.903-1.405c-1.383-1.125-2.671-2.35-3.89-3.651c-0.047-0.047-0.094-0.072-0.145-0.101
	c0.932-0.992,1.865-2.007,2.794-3.03c0.759,0.633,1.506,1.282,2.214,1.969c1.143,1.103,2.148,2.378,3.339,3.427
	C66.232,122.288,65.428,123.221,64.625,124.131 M68.185,119.976c-1.383-2.016-3.553-3.745-5.705-5.138
	c1.143-1.273,2.277-2.57,3.402-3.887c1.606,1.912,3.506,3.676,5.686,4.86C70.446,117.23,69.319,118.619,68.185,119.976
	 M72.913,114.092c-2.07-1.392-4.076-2.769-5.894-4.482c1.506-1.792,2.989-3.622,4.448-5.484l2.299,2.602
	c0.835,0.939,1.638,1.953,2.533,2.857C75.184,111.115,74.053,112.618,72.913,114.092 M77.354,108.11
	c-0.803-0.854-1.692-1.647-2.511-2.46c-0.857-0.851-1.717-1.701-2.574-2.552c1.251-1.622,2.466-3.276,3.663-4.939
	c1.304,1.937,2.778,3.871,4.536,5.437C79.452,105.121,78.413,106.627,77.354,108.11 M81.635,101.829
	c-1.603-1.638-3.273-3.222-4.794-4.952c1.273-1.808,2.495-3.648,3.685-5.497c1.37,1.748,2.854,3.481,4.451,5.031
	C83.897,98.235,82.791,100.049,81.635,101.829 M85.985,94.685c-1.427-1.638-3.011-3.178-4.618-4.612
	c0.989-1.578,1.934-3.175,2.848-4.775c1.355,1.682,2.725,3.348,4.205,4.92C87.639,91.718,86.833,93.208,85.985,94.685 M89.34,88.426
	c-1.323-1.67-2.715-3.279-4.133-4.867c0.939-1.707,1.821-3.424,2.659-5.147c1.055,1.156,2.12,2.303,3.204,3.433
	c0.296,0.309,0.589,0.636,0.888,0.967C91.142,84.693,90.272,86.567,89.34,88.426 M98.336,59.159
	c-1.09-1.109-2.073-2.306-2.819-3.789c-0.063-0.123-0.139-0.217-0.224-0.287c0.312-2.271,0.482-4.536,0.507-6.788l0.869,1.339
	c0.558,0.857,1.102,1.751,1.755,2.545C98.554,54.485,98.532,56.809,98.336,59.159 M97.936,47.517
	c-0.718-1.005-1.44-2.013-2.158-3.018c-0.028-0.041-0.069-0.06-0.101-0.094c-0.195-2.778-0.627-5.531-1.358-8.24
	C96.131,39.815,97.303,43.617,97.936,47.517 M94.862,57.751c0.838,1.468,1.903,2.829,3.207,3.878
	c-0.208,1.616-0.457,3.238-0.797,4.867c-0.148-0.183-0.293-0.372-0.441-0.551c-0.929-1.131-1.981-2.117-3.112-3.024
	C94.178,61.194,94.547,59.471,94.862,57.751 M93.073,65.286c0.627,0.627,1.232,1.269,1.789,1.956
	c0.595,0.734,1.099,1.597,1.676,2.385c-0.321,1.251-0.668,2.501-1.055,3.752c-1.225-1.288-2.567-2.479-3.893-3.667
	C92.131,68.238,92.625,66.763,93.073,65.286 M94.84,75.379c-0.621,1.836-1.307,3.67-2.06,5.5c-0.132-0.12-0.265-0.236-0.391-0.356
	c-1.162-1.102-2.337-2.186-3.525-3.26c-0.117-0.104-0.239-0.154-0.362-0.18c0.895-1.906,1.714-3.818,2.463-5.739
	C92.2,72.748,93.466,74.131,94.84,75.379 M13.872,57.723c-0.079-0.17-0.189-0.331-0.35-0.476c-2.482-2.192-5.242-4.347-8.055-6.306
	c1.865,0.06,3.752,0.117,5.648,0.151c1.109,1.241,2.262,2.441,3.506,3.553c0.879,0.784,1.944,1.855,3.096,2.47
	C16.421,57.254,15.129,57.43,13.872,57.723 M19.76,56.92c-0.009-0.072-0.006-0.148-0.05-0.224c-0.813-1.503-2.709-2.46-3.997-3.55
	c-0.769-0.649-1.506-1.329-2.224-2.029c1.405,0.006,2.803-0.025,4.199-0.076c0.98,1.282,2,2.529,3.128,3.701
	c0.532,0.554,1.153,1.269,1.836,1.966C21.694,56.778,20.733,56.844,19.76,56.92 M25.808,56.425c-0.246-0.183-0.495-0.369-0.75-0.57
	c-0.989-0.787-1.956-1.607-2.885-2.466c-0.851-0.784-1.666-1.603-2.47-2.441c2.013-0.12,3.997-0.343,5.953-0.661
	c0.954,1.162,1.909,2.325,2.879,3.478c0.602,0.718,1.194,1.534,1.827,2.303C28.847,56.12,27.32,56.271,25.808,56.425 M33.213,55.54
	c-0.936-1.181-2.214-2.218-3.219-3.238c-0.832-0.844-1.676-1.679-2.517-2.517c0.45-0.359,0.608-0.917,0.51-1.477
	c0.321-0.491,0.639-0.992,0.958-1.49c0.778,1.269,1.556,2.542,2.388,3.777c0.772,1.143,1.55,2.426,2.574,3.386
	C33.664,54.504,33.424,55.023,33.213,55.54 M35.047,51.751c-0.617-0.879-1.345-1.707-1.972-2.536
	c-1.033-1.367-2.016-2.772-2.98-4.186c0.731-1.14,1.487-2.271,2.265-3.383c1.024,1.38,2.044,2.759,3.068,4.139
	c0.595,0.8,1.175,1.692,1.843,2.482C36.455,49.394,35.711,50.566,35.047,51.751 M38.559,46.585
	c-0.545-0.658-1.156-1.273-1.704-1.903c-1.225-1.402-2.451-2.803-3.676-4.205c0.948-1.282,1.966-2.495,3.065-3.629
	c0.841,1.065,1.685,2.133,2.526,3.2c0.876,1.106,1.72,2.347,2.678,3.434C40.427,44.449,39.457,45.485,38.559,46.585 M42.997,42.112
	c-0.904-1.021-1.934-1.956-2.873-2.914c-1.03-1.049-2.06-2.095-3.087-3.144c1.021-0.958,2.092-1.748,3.191-2.397
	c0.879,1.203,1.783,2.385,2.75,3.515c0.803,0.939,1.695,2.079,2.684,3.033C44.745,40.776,43.854,41.409,42.997,42.112
	 M48.006,38.943c-1.046-1.055-2.337-1.962-3.364-2.967c-1.017-0.992-1.978-2.038-2.914-3.103c1.411-0.643,2.86-1.033,4.306-1.213
	c1.15,1.367,2.296,2.734,3.468,4.086c0.598,0.69,1.184,1.399,1.783,2.092C50.173,38.089,49.077,38.458,48.006,38.943 M54.312,37.475
	c-1.021-1.153-2.174-2.208-3.251-3.289c-0.882-0.888-1.783-1.758-2.674-2.633c0.819,0.035,1.629,0.167,2.429,0.34
	c1.336,1.805,2.655,3.771,4.082,5.613C54.703,37.5,54.507,37.475,54.312,37.475 M58.18,38.048c-1.257-1.783-2.756-3.471-4.253-5.106
	c2.681,1.26,5.078,3.339,6.867,6.146C59.925,38.631,59.053,38.306,58.18,38.048 M10.886,166.077
	c0.929-11.088,1.049-22.296,1.128-33.431c0.45,0.006,0.891-0.164,1.238-0.576c12.981-15.41,25.528-31.223,38.065-46.995
	c8.64-10.877,18.412-23.156,16.764-38.005c-1.121-10.093-8.902-20.188-19.829-20.336c-11.479-0.154-18.15,10.382-21.968,19.895
	c-0.009,0-0.016-0.006-0.025-0.006c-7.68-0.677-15.857,0.63-23.512,1.588C5.437,26.195,20.431,8.753,43.331,7.187
	c20.655-1.411,41.618,9.793,46.311,30.905c8.382,37.702-29.522,76.271-55.314,98.579c-0.447,0.387-0.621,0.828-0.621,1.26
	c-0.378,0.759-0.019,1.846,1.115,1.922c16.462,1.093,34.637,2.148,51.128,0.151c0.318,8.102,1.131,16.569,2.183,24.696
	C62.442,164.621,36.521,164.413,10.886,166.077 M22.472,176.339L22.472,176.339c-1.647-1.871-3.799-3.402-5.695-5.018
	c-0.945-0.806-1.884-1.619-2.832-2.422c1.676,0.079,3.352,0.135,5.031,0.202c1.213,1.38,2.797,2.58,4.057,3.726
	c1.26,1.15,2.523,2.356,3.84,3.481C25.408,176.317,23.943,176.324,22.472,176.339 M29.723,176.286c-1.764-2-3.903-3.786-5.868-5.572
	c-0.513-0.463-1.036-0.97-1.572-1.477c1.695,0.06,3.399,0.069,5.097,0.117c1.109,1.597,2.24,3.182,3.449,4.706
	c0.567,0.715,1.143,1.465,1.733,2.214C31.616,176.279,30.668,176.283,29.723,176.286 M35.582,176.261
	c-0.999-1.121-2.07-2.192-3.015-3.298c-1.002-1.169-1.959-2.375-2.939-3.56c1.093,0.025,2.192,0.025,3.289,0.047
	c1.934,2.211,3.821,4.615,5.875,6.795C37.721,176.251,36.653,176.254,35.582,176.261 M41.652,176.232
	c-2.079-2.394-4.486-4.577-6.791-6.754c1.361,0.025,2.725,0.025,4.089,0.044c2.249,2.268,4.495,4.564,6.876,6.691
	C44.434,176.22,43.044,176.229,41.652,176.232 M48.551,176.201c-2.344-2.359-4.905-4.53-7.484-6.659
	c1.216,0.016,2.432,0.013,3.648,0.022c2.287,2.177,4.586,4.517,7.028,6.606C50.68,176.179,49.615,176.194,48.551,176.201
	 M55.235,176.138c-2.482-2.388-5.364-4.498-8.171-6.561c1.332,0.006,2.662-0.009,3.994-0.006c2.419,2.114,4.826,4.429,7.362,6.527
	C57.358,176.109,56.296,176.128,55.235,176.138 M61.903,176.05c-2.555-2.337-5.449-4.413-8.234-6.483
	c1.77,0,3.541-0.016,5.311-0.022c1.695,1.399,3.389,2.797,5.084,4.196c0.847,0.696,1.698,1.477,2.574,2.224
	C65.06,175.993,63.482,176.027,61.903,176.05 M70.408,175.895c-1.477-1.477-3.377-2.662-5.005-3.89
	c-1.09-0.822-2.18-1.647-3.27-2.47c1.37-0.006,2.734-0.028,4.101-0.035c1.625,1.751,3.345,3.418,5.122,5.005
	c0.479,0.428,0.964,0.879,1.455,1.323C72.012,175.848,71.212,175.876,70.408,175.895 M76.563,175.728
	c-1.254-1.103-2.665-2.063-3.919-3.122c-1.194-1.011-2.344-2.066-3.487-3.131c1.887-0.009,3.767-0.035,5.651-0.047
	c1.531,1.332,3.065,2.652,4.505,4.098c0.649,0.652,1.273,1.336,1.89,2.019C79.657,175.602,78.11,175.681,76.563,175.728
	 M84.599,175.41c-1.717-2.221-3.915-4.268-6.212-6.01c1.184-0.009,2.369-0.022,3.553-0.028c1.796,1.865,3.493,3.966,5.298,5.909
	C86.36,175.322,85.478,175.372,84.599,175.41 M90.644,175.114c-1.676-2.076-3.698-3.966-5.683-5.768
	c1.32-0.013,2.643-0.016,3.96-0.035c0.687-0.009,1.197-0.271,1.562-0.649c1.361,1.118,2.709,2.259,4.016,3.44
	c0.854,0.769,1.707,1.723,2.608,2.608C94.95,174.859,92.795,175.001,90.644,175.114 M95.785,170.206
	c-1.534-1.279-3.131-2.476-4.728-3.673c-0.05-0.255-0.123-0.504-0.246-0.728c0.151-1.351,0.22-2.759,0.293-4.161
	c0.958,1.225,1.944,2.425,3.005,3.572c1.468,1.584,3.027,3.487,4.958,4.514c0.057,0.028,0.113,0.035,0.17,0.057
	c0.123,1.216,0.252,2.422,0.394,3.61C98.428,172.213,96.96,171.183,95.785,170.206"/>
</svg>
