<?xml version="1.0" encoding="utf-8"?>
<!-- Generator: Adobe Illustrator 17.0.0, SVG Export Plug-In . SVG Version: 6.00 Build 0)  -->
<!DOCTYPE svg PUBLIC "-//W3C//DTD SVG 1.1//EN" "http://www.w3.org/Graphics/SVG/1.1/DTD/svg11.dtd">
<svg version="1.1" id="Слой_1" xmlns="http://www.w3.org/2000/svg" xmlns:xlink="http://www.w3.org/1999/xlink" x="0px" y="0px"
	 width="95.302px" height="181px" viewBox="0 0 95.302 181" enable-background="new 0 0 95.302 181" xml:space="preserve">
<path fill="#B17169" d="M95.18,22.286c0.006-0.035,0.013-0.069,0.016-0.101c0.117-0.734-0.249-1.203-0.724-1.395
	c-1.017-1.465-2.718-2.718-3.799-3.928c-2.007-2.249-3.824-4.656-5.525-7.144c-0.195-0.287-0.45-0.438-0.715-0.517
	c0.003-0.028,0.006-0.054,0.006-0.082c0.069-0.939-1.361-1.156-1.666-0.324c-0.154-0.088-0.331-0.154-0.539-0.18
	C68.031,6.861,53.522,7.028,39.227,6.744C26.762,6.499,12.288,4.199,0.217,7.702c-0.29,0.085-0.29,0.504,0,0.589
	c0.602,0.176,1.216,0.331,1.83,0.479C2.013,8.883,1.956,8.975,1.944,9.104C1.03,17.741,0.132,26.678,1.295,35.327
	c0.063,0.482,0.324,0.791,0.646,0.945c-0.06,0.167-0.069,0.353,0.088,0.536c1.827,2.145,3.66,4.259,5.594,6.309
	c1.295,1.373,2.64,3.348,4.36,4.322c0.082,0.154,0.224,0.28,0.441,0.331c0.183,0.041,0.375,0.069,0.558,0.11
	c0.003,0,0.009,0.006,0.016,0.006c0.006,0.003,0.013,0,0.019,0c9.951,2.167,21.3,2.706,31.487,1.065
	c0.252,0.198,0.488,0.419,0.765,0.57c0.548,0.309,1.358-0.208,1.128-0.866c-0.003-0.009-0.01-0.016-0.013-0.025
	c0.261-0.05,0.532-0.082,0.794-0.135c0.044-0.009,0.072-0.035,0.113-0.047C43.218,66.018,39.29,83.62,34.87,101.115
	c-5.563,22.022-12.357,43.813-17.36,65.967c-0.066,0.054-0.135,0.098-0.18,0.186l-0.561,1.118c-0.139,0.277-0.189,0.551-0.176,0.806
	c-0.252,0.403-0.299,0.945,0.082,1.336c1.666,1.714,3.364,3.399,4.99,5.153c1.263,1.364,2.47,3.068,3.944,4.268
	c0.072,0.413,0.375,0.775,0.939,0.797c10.168,0.394,20.349,0.255,30.52,0.069c1.295-0.025,1.72-1.345,1.307-2.24
	C73.219,138.95,82.319,97.423,89.621,55.755c0.101-0.173,0.126-0.372,0.101-0.567c1.824-10.436,3.541-20.881,5.204-31.308
	c0.29-0.284,0.435-0.718,0.356-1.235C95.262,22.523,95.212,22.406,95.18,22.286 M88.093,18.853c1.181,1.55,2.564,3.928,4.41,4.923
	c-0.183,1.345-0.391,2.684-0.589,4.023c-1.017-1.292-2.281-2.444-3.371-3.641c-1.525-1.679-2.986-3.415-4.4-5.188
	c-0.17-0.214-0.388-0.302-0.611-0.334c0.208-1.906,0.406-3.815,0.57-5.724C85.337,14.953,86.644,16.947,88.093,18.853
	 M13.885,46.286c-0.876-1.956-3.112-3.377-4.659-4.772c-1.55-1.405-3.144-2.747-4.75-4.076c1.827,0.217,3.679,0.397,5.55,0.535
	c-0.016,0.12,0.01,0.249,0.11,0.369c1.647,1.918,3.333,3.805,5.068,5.642c0.674,0.715,1.367,1.499,2.088,2.252
	C16.156,46.255,15.016,46.271,13.885,46.286 M19.889,46.201c-1.162-1.14-2.498-2.161-3.663-3.235
	c-1.733-1.6-3.415-3.254-5.075-4.933c1.963,0.129,3.947,0.205,5.938,0.258c1.342,2.186,3.021,4.199,4.816,6.01
	c0.573,0.576,1.203,1.213,1.868,1.846C22.478,46.163,21.181,46.179,19.889,46.201 M27.314,46.104
	c-1.474-1.131-3.062-2.174-4.385-3.421c-1.455-1.373-2.766-2.857-4.064-4.363c1.521,0.022,3.056-0.016,4.586-0.032
	c1.389,1.925,2.948,3.745,4.486,5.544c0.617,0.718,1.241,1.493,1.887,2.262C28.986,46.1,28.152,46.094,27.314,46.104 M32.467,46.085
	c-1.03-1.046-2.148-2.025-3.137-3.033c-1.528-1.562-2.993-3.194-4.505-4.772c1.509-0.028,3.018-0.091,4.527-0.148
	c1.38,1.739,2.753,3.484,4.158,5.207c0.709,0.873,1.411,1.824,2.142,2.75C34.59,46.088,33.532,46.078,32.467,46.085 M38.603,46.091
	c-1.096-1.304-2.366-2.511-3.49-3.726c-1.336-1.446-2.7-2.867-4.057-4.29c1.673-0.079,3.32-0.224,4.983-0.337
	c-0.145,0.255-0.17,0.586,0.057,0.876c1.528,1.966,3.046,3.938,4.599,5.884c0.413,0.517,0.825,1.08,1.244,1.651
	C40.827,46.132,39.718,46.097,38.603,46.091 M46.872,46.233c-0.655-0.022-1.317-0.019-1.969-0.035
	c-0.803-0.98-1.733-1.887-2.533-2.791c-1.707-1.937-3.452-3.837-5.188-5.746c1.474-0.107,2.933-0.236,4.394-0.362
	c1.795,2.816,3.525,5.935,5.881,8.222c0.148,0.142,0.302,0.208,0.46,0.243c-0.069,0.299-0.142,0.602-0.211,0.904
	C47.511,46.422,47.234,46.242,46.872,46.233 M43.839,37.11c2.111-0.198,4.202-0.419,6.259-0.671
	c-0.564,2.366-1.112,4.738-1.663,7.11C47.212,41.281,45.492,39.164,43.839,37.11 M37.983,101.972
	c5.512-21.918,10.94-43.946,15.101-66.166c0.554-0.476,0.68-1.279,0.334-1.84c0.208-1.613-2.189-2.306-2.592-0.63
	c0,0.009-0.003,0.019-0.006,0.028c-15.463-0.123-32.171,0.013-47.408,2.378c0.054-0.123,0.101-0.258,0.12-0.416
	c0.964-8.59,0.942-17.262,1.881-25.868c10.88,1.84,23.058,0.387,33.815,0.643c14.307,0.34,28.703,1.518,43.007,1.021
	c0.006,0,0.006-0.003,0.013-0.003c-5.755,25.836-9.441,52.12-15.227,77.975c-3.594,16.068-7.61,32.029-11.929,47.912
	c-0.346,0.208-0.57,0.633-0.293,1.014c0.003,0.006,0.006,0.009,0.009,0.016c-2.659,9.74-5.402,19.458-8.31,29.131
	c-0.054-0.003-0.098-0.028-0.154-0.025c-4.722,0.202-9.406,0.737-14.137,0.844c-1.777,0.041-9.96,0.847-12.808-0.167
	C27.125,146.431,32.445,124,37.983,101.972 M28.12,178.649c-0.961-2.007-3.137-3.701-4.731-5.197
	c-0.967-0.907-1.959-1.78-2.97-2.627c2.381,0.214,4.801,0.356,7.232,0.428c1.72,2.646,3.865,5.459,6.48,7.078
	C32.127,178.426,30.123,178.523,28.12,178.649 M35.948,178.249c0.016-0.132-0.003-0.274-0.098-0.419
	c-1.074-1.606-2.561-2.889-3.887-4.284c-0.693-0.731-1.367-1.481-2.029-2.246c1.329,0.013,2.659-0.006,3.985-0.044
	c1.024,1.279,2.104,2.523,3.188,3.742c0.832,0.932,1.688,2.12,2.643,3.134C38.484,178.174,37.214,178.199,35.948,178.249
	 M42.686,178.045c-0.97-1.559-2.756-2.848-4.023-4.082c-0.964-0.936-1.94-1.877-2.939-2.794c1.827-0.091,3.648-0.23,5.449-0.428
	c1.087,1.377,2.237,2.715,3.358,4.06c0.838,1.005,1.695,2.148,2.646,3.156C45.681,177.988,44.182,178.004,42.686,178.045
	 M49.931,177.9c-0.926-1.588-2.463-2.955-3.701-4.262c-1.008-1.062-2.016-2.139-3.046-3.194c1.184-0.161,2.372-0.306,3.531-0.526
	c0.419,0.331,0.995,0.479,1.528,0.387c1.115,1.767,2.337,3.484,3.547,5.175c0.504,0.706,0.999,1.55,1.544,2.353
	C52.199,177.859,51.065,177.878,49.931,177.9 M56.41,177.767c-0.762-1.32-2.013-2.536-2.87-3.638
	c-1.298-1.67-2.614-3.355-4.013-4.949c0.006-0.019,0.016-0.035,0.022-0.054c0.306-1.011,0.586-2.032,0.888-3.043
	c0.91,1.373,1.818,2.75,2.725,4.127c1.14,1.726,2.167,3.931,3.944,5.059C56.876,176.101,56.64,176.936,56.41,177.767
	 M57.733,173.027c-0.743-1.531-2.048-2.936-2.989-4.24c-1.206-1.679-2.416-3.355-3.626-5.034c0.435-1.465,0.841-2.939,1.269-4.407
	c0.851,1.251,1.698,2.501,2.555,3.749c1.254,1.818,2.4,3.988,4.029,5.497C58.559,170.069,58.146,171.549,57.733,173.027
	 M59.686,166.037c-0.97-1.44-2.236-2.766-3.27-4.082c-1.162-1.477-2.337-2.945-3.509-4.416c0.728-2.495,1.414-4.999,2.123-7.497
	c0.976,1.512,1.975,3.005,3.033,4.467c1.062,1.468,2.158,3.254,3.6,4.435C61.006,161.309,60.345,163.671,59.686,166.037
	 M62.338,156.53c-0.775-1.008-1.679-1.94-2.47-2.907c-1.481-1.811-2.889-3.679-4.278-5.56c0.608-2.158,1.191-4.325,1.789-6.486
	c0.683,0.939,1.367,1.881,2.051,2.819c1.389,1.906,2.69,4.13,4.464,5.695c0.063,0.054,0.132,0.085,0.198,0.12
	C63.51,152.318,62.924,154.426,62.338,156.53 M64.755,147.823c-1.074-1.654-2.507-3.153-3.742-4.646
	c-1.017-1.232-2.035-2.46-3.056-3.692c0.504-1.83,0.986-3.667,1.481-5.497c1.011,1.383,2.022,2.769,3.037,4.152
	c1.156,1.584,2.255,3.273,3.664,4.646C65.674,144.466,65.221,146.144,64.755,147.823 M66.777,140.452
	c-0.863-1.21-1.859-2.328-2.797-3.471c-1.342-1.635-2.687-3.27-4.029-4.905c0.482-1.792,0.948-3.588,1.421-5.383
	c1.068,1.562,2.133,3.122,3.207,4.678c1.071,1.55,2.073,3.323,3.38,4.719C67.561,137.542,67.174,138.997,66.777,140.452
	 M68.733,133.233c-0.718-1.021-1.512-2-2.23-2.986c-1.446-1.981-2.901-3.953-4.356-5.928c-0.035-0.047-0.082-0.069-0.12-0.11
	c0.381-1.458,0.734-2.923,1.109-4.385c1.181,1.317,2.369,2.624,3.493,4.001c1.15,1.411,2.196,2.996,3.462,4.328
	C69.637,129.846,69.193,131.541,68.733,133.233 M70.781,125.584c-0.658-0.961-1.411-1.865-2.145-2.75
	c-1.503-1.808-3.175-3.547-4.98-5.068c0.633-2.476,1.238-4.958,1.855-7.437c1.055,1.704,2.161,3.374,3.367,4.98
	c1.065,1.418,2.148,2.983,3.512,4.155C71.852,121.505,71.322,123.546,70.781,125.584 M72.929,117.416
	c-0.917-1.043-1.953-2.01-2.848-3.037c-1.499-1.726-2.898-3.541-4.234-5.399c0.463-1.865,0.91-3.733,1.364-5.601
	c1.298,1.679,2.592,3.358,3.89,5.034c1.002,1.298,1.959,2.649,3.182,3.736C73.833,113.904,73.386,115.662,72.929,117.416
	 M74.885,109.819c-0.753-1.008-1.635-1.94-2.444-2.876c-1.358-1.569-2.715-3.141-4.076-4.709c-0.227-0.261-0.548-0.287-0.828-0.176
	c0.422-1.739,0.81-3.487,1.222-5.229c1.049,1.43,2.11,2.848,3.172,4.265c1.241,1.66,2.413,3.553,3.878,5.059
	C75.499,107.374,75.197,108.6,74.885,109.819 M76.501,103.399c-0.951-1.222-2.029-2.378-2.977-3.534
	c-1.414-1.723-2.819-3.456-4.271-5.147c0.403-1.717,0.81-3.434,1.206-5.153c1.052,1.229,2.079,2.482,3.018,3.802
	c1.247,1.751,2.18,3.83,3.645,5.396c0.132,0.142,0.293,0.214,0.46,0.246C77.222,100.469,76.866,101.934,76.501,103.399
	 M78.167,96.633c-0.822-1.607-2.073-3.062-3.182-4.432c-1.273-1.569-2.659-3.015-4.117-4.401c0.324-1.471,0.652-2.945,0.976-4.419
	c0.983,1.465,1.988,2.907,3.049,4.315c1.292,1.714,2.586,3.594,4.205,5.043C78.788,94.037,78.485,95.335,78.167,96.633
	 M79.802,89.816c-1.036-1.178-2.18-2.29-3.175-3.459c-1.487-1.742-2.885-3.553-4.243-5.396c0.422-1.909,0.838-3.827,1.257-5.739
	c1.121,1.301,2.265,2.583,3.389,3.881c1.304,1.512,2.574,3.361,4.212,4.545C80.766,85.705,80.29,87.762,79.802,89.816
	 M81.774,81.355c-1.036-1.269-2.385-2.385-3.487-3.506c-1.424-1.449-2.819-2.936-4.265-4.363c0.501-2.312,0.999-4.63,1.487-6.949
	c0.973,1.172,1.947,2.344,2.92,3.512c1.458,1.755,2.857,3.83,4.675,5.242C82.656,77.314,82.234,79.339,81.774,81.355 M83.576,73.131
	c-1.137-1.553-2.659-2.945-3.906-4.322c-1.257-1.386-2.511-2.769-3.767-4.155c0.397-1.896,0.788-3.796,1.172-5.695
	c1.298,1.745,2.662,3.446,3.985,5.169c1.102,1.436,2.145,3.122,3.484,4.397C84.218,70.059,83.91,71.597,83.576,73.131
	 M85.104,65.864c-0.81-1.002-1.72-1.947-2.533-2.901c-1.698-2.003-3.323-4.086-5.094-6.023c0.321-1.619,0.614-3.244,0.926-4.867
	c1.175,1.477,2.435,2.898,3.654,4.331c1.229,1.44,2.492,3.33,4.026,4.593C85.756,62.619,85.441,64.244,85.104,65.864 M86.65,58.187
	c-0.822-0.917-1.739-1.767-2.551-2.627c-1.739-1.84-3.43-3.808-5.311-5.509c0.28-1.503,0.539-3.008,0.806-4.514
	c1.099,1.783,2.359,3.478,3.654,5.106c1.169,1.465,2.438,3.248,3.997,4.454C87.044,56.127,86.855,57.16,86.65,58.187 M87.737,52.533
	c-0.989-0.97-2.076-1.884-2.955-2.841c-1.764-1.925-3.285-4.004-4.842-6.089c0.362-2.051,0.699-4.108,1.033-6.165
	c0.838,0.942,1.666,1.89,2.504,2.832c1.411,1.581,2.879,3.925,4.823,4.826c0.236,0.11,0.529,0.072,0.775-0.038
	C88.632,47.549,88.209,50.047,87.737,52.533 M89.296,43.826c-0.898-1.833-2.75-3.222-4.183-4.64
	c-1.266-1.254-2.539-2.501-3.811-3.748c0.331-2.098,0.639-4.196,0.936-6.297c2.133,3.506,4.646,7.214,7.692,9.743
	c0.06,0.047,0.126,0.069,0.189,0.104C89.844,40.601,89.583,42.217,89.296,43.826 M87.157,32.559
	c-1.619-1.906-3.122-3.909-4.583-5.941c0.227-1.695,0.428-3.389,0.627-5.087c1.058,1.424,2.123,2.844,3.251,4.212
	c1.399,1.701,2.838,3.638,4.719,4.823c0.101,0.063,0.205,0.098,0.309,0.123c-0.296,1.906-0.605,3.811-0.92,5.714
	C89.451,35.101,88.263,33.86,87.157,32.559"/>
</svg>
