<?xml version="1.0" encoding="utf-8"?>
<!-- Generator: Adobe Illustrator 17.0.0, SVG Export Plug-In . SVG Version: 6.00 Build 0)  -->
<!DOCTYPE svg PUBLIC "-//W3C//DTD SVG 1.1//EN" "http://www.w3.org/Graphics/SVG/1.1/DTD/svg11.dtd">
<svg version="1.1" id="Слой_1" xmlns="http://www.w3.org/2000/svg" xmlns:xlink="http://www.w3.org/1999/xlink" x="0px" y="0px"
	 width="198.235px" height="181px" viewBox="0 0 198.235 181" enable-background="new 0 0 198.235 181" xml:space="preserve">
<path fill="#B17169" d="M196.668,69.344c0.479,0.139,0.747-0.57,0.325-0.825c-0.139-0.085-0.29-0.158-0.432-0.239
	c-0.217-2.114-0.457-4.18-0.693-6.259c0.8-0.12,1.033-1.418,0.305-1.956c-0.18-0.135-0.381-0.249-0.564-0.378
	c-0.05-0.45-0.098-0.917-0.151-1.367c-2.567-21.766-10.978-40.377-29.497-52.889c-0.312-0.211-0.611-0.268-0.895-0.261
	c-4.183-2.621-9.119-3.915-14.978-3.273c-2.602-1.099-5.966-1.096-8.603-0.976c-2.258,0.101-4.895,0.23-7.037,1.184
	C108.909-0.86,96.721,36.789,93.3,56.681c-2.851,16.585-3.106,33.481-2.337,50.252c0.674,14.745,1.43,30.363,7.793,43.949
	c2.772,5.919,6.092,10.316,10.272,13.413c13.687,13.161,33.875,19.379,52.381,13.828c19.924-5.972,30.854-24.46,34.527-43.942
	C199.827,113.548,198.822,90.71,196.668,69.344 M194.094,88.471c-0.876-0.756-1.827-1.449-2.709-2.145
	c-1.2-0.948-2.429-1.855-3.66-2.766c0.022-1.254-0.006-2.504-0.006-3.758c0.964,0.721,1.906,1.471,2.81,2.262
	c1.08,0.945,2.114,2.359,3.408,3.074C193.981,86.25,194.059,87.355,194.094,88.471 M193.77,81.616
	c-0.624-0.495-1.279-0.942-1.84-1.37c-1.345-1.033-2.76-1.94-4.215-2.794c-0.009-1.49-0.044-2.977-0.076-4.467
	c1.862,1.884,3.799,3.786,5.941,5.305C193.64,79.402,193.716,80.504,193.77,81.616 M193.369,74.658
	c-1.748-1.556-3.676-2.97-5.478-4.366c-0.107-0.082-0.224-0.132-0.337-0.173c-0.057-1.616-0.117-3.232-0.214-4.845
	c-0.009-0.173-0.025-0.359-0.035-0.532c0.491,0.343,0.999,0.671,1.515,0.995c0.035,0.028,0.031,0.066,0.076,0.088
	c0.094,0.047,0.192,0.094,0.29,0.142c1.021,0.624,2.082,1.156,3.185,1.553c0.173,0.082,0.343,0.173,0.52,0.255
	C193.07,70.059,193.228,72.355,193.369,74.658 M192.38,61.96c0.12,1.172,0.214,2.353,0.312,3.534
	c-1.84-0.999-3.764-1.855-5.544-2.98c-0.126-1.651-0.29-3.421-0.479-5.242c1.792,1.137,3.638,2.252,5.528,3.226
	C192.254,60.987,192.33,61.469,192.38,61.96 M191.801,57.345c-1.792-0.973-3.632-1.868-5.434-2.718
	c-0.214-1.818-0.479-3.701-0.772-5.61c1.751,1.08,3.512,2.189,5.324,3.153C191.253,53.877,191.552,55.6,191.801,57.345
	 M185.283,46.995c-0.268-1.606-0.589-3.238-0.917-4.87c0.816,0.57,1.628,1.137,2.444,1.707c0.841,0.586,1.666,1.21,2.536,1.751
	c0.375,1.373,0.728,2.759,1.039,4.161C188.701,48.793,186.965,47.908,185.283,46.995 M188.333,42.15
	c-0.132-0.082-0.265-0.164-0.394-0.249c-1.402-0.91-2.807-1.824-4.208-2.734c-0.375-1.666-0.791-3.323-1.235-4.977
	c1.25,0.951,2.542,1.843,3.906,2.614C187.107,38.556,187.75,40.335,188.333,42.15 M184.802,33.226
	c-1.043-0.677-2.082-1.354-3.087-2.088c-0.035-0.025-0.069-0.028-0.104-0.047c-0.917-3.015-1.959-5.963-3.188-8.751
	C180.93,25.757,183.015,29.411,184.802,33.226 M106.209,156.4c-4.574-6.363-7.091-14.021-8.678-21.618
	c-3.178-15.202-3.38-31.604-3.131-47.086c0.435-26.772,6.53-88.95,46.566-81.497c0.277,0.765,0.989,1.326,1.985,0.97
	c19.593-7.034,33.273,11.929,37.296,28.668c3.793,15.775,4.237,33.078,3.925,49.241c-0.331,16.947-2.583,33.844-7.453,50.101
	c-2.936,9.806-6.284,20.207-15.47,25.906c-8.174,5.072-17.996,5.991-27.408,5.783C122.932,166.625,113.186,166.112,106.209,156.4
	 M120.129,169.136c1.824,0.394,3.752,0.677,5.818,0.835c0.428,0.035,0.866,0.06,1.301,0.091c2.047,1.458,4.18,2.8,6.3,4.155
	c0.381,0.246,0.765,0.51,1.15,0.769C129.695,173.675,124.81,171.659,120.129,169.136 M140.024,176.094
	c-1.673-1.37-3.723-2.363-5.557-3.452c-1.342-0.797-2.681-1.606-4.032-2.394c1.654,0.079,3.326,0.126,5.002,0.135
	c3.159,2.151,6.583,4.464,10.118,6.212C143.707,176.526,141.858,176.374,140.024,176.094 M149.414,176.576
	c-2.974-2.46-6.593-4.47-10.149-6.262c2.004-0.072,4.001-0.246,5.982-0.485c3.027,2.148,6.215,4.618,9.585,6.12
	C153.027,176.271,151.219,176.485,149.414,176.576 M157.365,175.42c-0.035-0.145-0.098-0.287-0.224-0.4
	c-2.58-2.325-6.01-3.988-9.293-5.56c1.232-0.205,2.447-0.466,3.657-0.753c1.786,1.09,3.534,2.236,5.229,3.465
	c1.112,0.803,2.177,1.695,3.286,2.514C159.135,174.96,158.25,175.206,157.365,175.42 M162.474,173.845
	c-2.344-2.363-5.503-4.186-8.483-5.805c1.641-0.488,3.232-1.112,4.794-1.802c2.498,2.066,5.235,4.215,8.184,5.591
	C165.476,172.598,163.98,173.278,162.474,173.845 M169.455,170.415c-0.016-0.013-0.022-0.028-0.041-0.041
	c-2.681-1.881-5.569-3.393-8.291-5.223c1.433-0.759,2.797-1.66,4.126-2.637c2.196,2.233,4.911,4.514,7.888,5.374
	C171.965,168.78,170.749,169.633,169.455,170.415 M174.447,166.83c-0.06-0.18-0.17-0.353-0.353-0.482
	c-1.345-0.961-2.857-1.647-4.252-2.542c-1.118-0.718-2.155-1.544-3.156-2.41c0.239-0.198,0.494-0.359,0.728-0.567
	c0.98-0.86,1.877-1.811,2.74-2.794c2.148,2.296,4.763,4.397,7.582,5.727C176.693,164.83,175.613,165.866,174.447,166.83
	 M179.412,161.973c-2.703-1.852-5.305-3.616-7.762-5.749c0.854-1.121,1.638-2.315,2.378-3.547c2.47,2.114,4.942,4.498,7.755,6.048
	c0.047,0.028,0.098,0.031,0.145,0.047C181.132,159.872,180.307,160.946,179.412,161.973 M186.884,150.223
	c-1.043-0.68-2.161-1.241-3.238-1.881c-1.679-0.999-3.238-2.246-5.012-3.074c-0.454-0.214-1.099,0.255-0.756,0.756
	c1.068,1.566,2.599,2.725,4.142,3.799c1.244,0.863,2.545,1.745,3.972,2.271c-0.882,1.72-1.827,3.402-2.892,5.008
	c-0.012-0.016-0.016-0.031-0.028-0.044c-2.344-2.312-5.415-4.032-8.196-5.846c2.101-3.812,3.736-8.026,5.056-12.361
	c1.084,1.115,2.306,2.129,3.506,3.081c1.43,1.134,3.339,3.137,5.286,2.917c0.129-0.016,0.261-0.057,0.384-0.117
	C188.44,146.598,187.718,148.44,186.884,150.223 M189.548,143.504c-0.762-1.685-2.785-2.432-4.271-3.427
	c-1.613-1.08-3.128-2.322-4.725-3.424c0.617-2.214,1.143-4.438,1.635-6.653c2.63,2.69,5.812,5.594,9.163,7.289
	C190.834,139.39,190.235,141.466,189.548,143.504 M191.883,134.946c-1.194-0.743-2.438-1.433-3.594-2.221
	c-2-1.354-3.887-2.863-5.733-4.416c0.346-1.647,0.658-3.263,0.961-4.867c1.172,0.995,2.356,1.978,3.528,2.97
	c1.767,1.493,3.49,3.232,5.56,4.297c0.028,0.016,0.057,0.016,0.085,0.025C192.453,132.145,192.185,133.55,191.883,134.946
	 M193.01,128.539c-1.43-1.392-3.175-2.507-4.772-3.676c-1.458-1.065-2.911-2.148-4.385-3.2c0.258-1.411,0.504-2.791,0.74-4.133
	c1.496,1.156,2.958,2.359,4.331,3.667c1.506,1.436,2.829,3.144,4.435,4.46C193.247,126.617,193.149,127.578,193.01,128.539
	 M193.974,118.559c-0.069,1.465-0.183,2.942-0.318,4.423c-1.184-1.345-2.656-2.526-3.966-3.622
	c-1.537-1.285-3.156-2.457-4.813-3.575c0.242-1.452,0.45-2.911,0.661-4.369c2.715,2.397,5.434,4.823,8.448,6.826
	C193.984,118.348,193.981,118.455,193.974,118.559 M194.097,115.268c-2.511-2.208-5.267-4.152-7.96-6.127
	c-0.082-0.06-0.167-0.082-0.252-0.113c0.28-2.123,0.523-4.252,0.74-6.385c1.172,1.219,2.35,2.432,3.541,3.632
	c1.266,1.269,2.523,2.759,4.032,3.774C194.157,111.787,194.163,113.541,194.097,115.268 M194.255,107.122
	c-0.854-0.803-1.783-1.547-2.636-2.299c-1.588-1.402-3.178-2.8-4.807-4.155c0.233-2.485,0.4-4.974,0.548-7.462
	c1.213,1.203,2.426,2.407,3.641,3.61c1.055,1.046,2.082,2.17,3.263,3.081C194.27,102.309,194.293,104.721,194.255,107.122
	 M192.733,95.082c-1.455-1.279-2.911-2.558-4.363-3.834c-0.284-0.249-0.595-0.306-0.885-0.252c0.091-1.811,0.148-3.622,0.195-5.431
	c0.879,0.759,1.773,1.509,2.63,2.296c1.251,1.14,2.441,2.514,3.846,3.481c0.041,1.692,0.091,3.383,0.11,5.075
	C193.76,95.971,193.24,95.53,192.733,95.082"/>
<path fill="#B17169" d="M158.152,48.087c-1.449-8.76-3.355-18.783-12.987-21.508c-0.129-0.038-0.243-0.032-0.359-0.035
	c-4.857-0.97-8.767,0.302-11.929,3.024c-0.495,0.016-0.869,0.416-0.932,0.885c-10.581,10.568-12.127,38.093-13.003,48.655
	c-1.279,15.413-0.45,30.993,2.344,46.201c1.628,8.855,3.811,20.806,14.669,22.047c24.29,2.778,24.397-39.35,25.011-54.171
	C161.585,78.122,160.609,62.961,158.152,48.087 M139.164,29.854c2.101,1.515,4.149,3.103,6.12,4.788
	c1.14,0.973,2.208,2.044,3.304,3.081c-0.406,0.016-0.816,0.025-1.203,0.066c-1.821-1.455-4.019-2.495-6.023-3.648
	c-1.597-0.917-3.21-1.802-4.816-2.696C137.365,30.796,138.247,30.286,139.164,29.854 M134.832,33.03
	c1.723,1.147,3.443,2.296,5.182,3.415c1.156,0.743,2.296,1.572,3.481,2.322c-1.468,0.605-2.769,1.433-3.918,2.46
	c-1.027-0.787-2.287-1.307-3.475-1.811c-1.537-0.658-3.115-1.184-4.716-1.651C132.41,35.953,133.563,34.372,134.832,33.03
	 M130.451,39.522c1.566,0.592,3.1,1.247,4.58,2.035c0.895,0.479,1.799,1.099,2.737,1.588c-0.967,1.2-1.811,2.542-2.536,4.004
	c-2.089-1.162-4.608-1.928-6.892-2.618C128.973,42.763,129.676,41.084,130.451,39.522 M127.603,46.72
	c2.073,1.002,4.388,2.148,6.615,2.703c-0.75,1.887-1.364,3.893-1.855,5.957c-2.129-0.904-4.344-1.575-6.41-2.652
	C126.434,50.67,126.986,48.657,127.603,46.72 M125.54,54.519c1.969,1.219,4.12,2.325,6.407,2.756
	c-0.359,1.748-0.655,3.512-0.895,5.251c-2.063-1.068-4.419-1.84-6.552-2.558C124.806,58.148,125.152,56.324,125.54,54.519
	 M124.116,62.4c2.076,1.084,4.347,2.255,6.587,2.914c-0.224,1.956-0.397,3.846-0.551,5.598c-2.243-0.923-4.716-1.553-6.842-2.303
	C123.533,66.59,123.801,64.508,124.116,62.4 M123.086,70.704c1.647,0.762,3.292,1.528,4.939,2.281
	c0.633,0.29,1.257,0.58,1.887,0.851c-0.161,1.95-0.302,3.909-0.419,5.878c-2.199-1.033-4.643-1.758-6.961-2.511
	C122.677,75.192,122.856,73,123.086,70.704 M122.081,85.087c0.079-1.644,0.18-3.752,0.334-6.177
	c2.255,1.172,4.583,2.473,6.955,3.219c-0.104,2.133-0.198,4.265-0.252,6.413c-0.803-0.255-1.638-0.447-2.422-0.715
	c-1.606-0.551-3.137-1.26-4.637-2.038C122.069,85.556,122.069,85.32,122.081,85.087 M121.977,88.287
	c1.21,0.69,2.444,1.336,3.73,1.884c1.061,0.45,2.195,0.986,3.348,1.2c-0.022,1.83-0.028,3.663-0.009,5.497
	c-1.128-0.397-2.296-0.696-3.408-1.137c-1.31-0.517-2.532-1.156-3.72-1.874C121.908,92.001,121.933,90.142,121.977,88.287
	 M121.962,95.815c2.177,1.54,4.608,2.955,7.144,3.393c0.035,1.657,0.057,3.314,0.129,4.968c-2.523-0.879-4.889-1.792-7.16-3.267
	C121.999,99.214,121.987,97.513,121.962,95.815 M122.201,103.47c2.174,1.399,4.596,2.463,7.144,2.835
	c0.079,1.443,0.117,2.885,0.227,4.325c-2.262-0.989-4.697-1.748-7.056-2.507C122.387,106.573,122.292,105.02,122.201,103.47
	 M122.752,111.011c-0.044-0.438-0.066-0.879-0.107-1.317c2.312,1.121,4.69,2.252,7.088,3.021c0.208,2.353,0.444,4.703,0.747,7.04
	c-2.227-1.087-4.605-1.906-6.974-2.618C123.212,115.1,122.957,113.059,122.752,111.011 M123.694,118.332
	c2.382,1.087,4.706,2.287,7.072,3.402c0.243,1.72,0.485,3.437,0.784,5.141c-2.432-0.97-4.794-2.07-7.034-3.468
	C124.214,121.721,123.949,120.026,123.694,118.332 M125.023,126.342c-0.019-0.091-0.028-0.183-0.047-0.271
	c2.224,1.323,4.549,2.407,7.024,3.112c0.369,1.934,0.74,3.868,1.188,5.78c-2.233-1.147-4.612-2.066-6.917-3.043
	C125.817,130.072,125.376,128.216,125.023,126.342 M126.576,133.285c-0.016-0.06-0.025-0.123-0.041-0.186
	c2.303,1.247,4.618,2.533,7.037,3.509c0.328,1.314,0.671,2.624,1.036,3.925C129.692,140.703,126.998,138.303,126.576,133.285
	 M155.137,117.034c-0.539,3.522-1.062,7.182-2.004,10.628c-0.747,3.106-1.931,6.048-3.56,8.823
	c-2.863,5.796-6.936,7.28-12.181,4.561c-2.425-16.002-4.986-31.796-5.071-48.075c-0.022-4.268-0.227-11.06,0.151-18.346
	c0.189,0.032,0.375,0.085,0.57,0.104c0.863,0.085,1.414-1.219,0.734-1.773c-0.359-0.293-0.747-0.564-1.15-0.813
	c0.161-2.309,0.4-4.64,0.718-6.939c0.164-0.255,0.221-0.573,0.123-0.885c1.88-12.641,6.552-23.937,17.993-23.364
	c1.792,0.091,1.959-2.189,0.68-2.936c-2.737-3.55-6.854-6.47-10.776-8.952c0.844-0.205,1.71-0.353,2.633-0.369
	c0.129,0.139,0.287,0.258,0.488,0.34c10.738,4.457,11.075,22.258,12.008,31.598c0.81,8.108,1.178,16.254,1.112,24.403
	C157.519,95.734,156.753,106.456,155.137,117.034"/>
<path fill="#B17169" d="M70.959,141.396c-0.296-14.181-0.693-28.363-1.058-42.544c-0.696-26.977-1.162-53.963-1.896-80.942
	c1.147,0.454,2.488-0.665,1.764-1.881c-0.485-0.819-1.143-1.553-1.871-2.243c0-0.006,0-0.013,0-0.019
	c-0.032-1.08-0.926-1.578-1.761-1.518c-0.895-0.731-1.799-1.443-2.58-2.186c-2.214-2.111-4.224-4.445-6.489-6.495
	c-0.296-0.268-0.68-0.284-0.999-0.157c-0.261-0.293-0.639-0.504-1.159-0.52C44.606,2.557,34.123,2.399,23.848,3.313
	c-0.813,0.072-1.147,0.737-1.03,1.32c-0.293,0.183-0.554,0.432-0.706,0.816c-3.808,9.563-7.472,19.184-11.126,28.804
	c-2.523,6.634-5.875,13.457-7.299,20.5C1.769,57.14,0.5,60.753,0.024,63.598c-0.079,0.476,0.041,0.923,0.274,1.295
	c-0.072,0.523,0.161,1.071,0.778,1.172c0.167,0.025,0.34,0.047,0.507,0.072c2.258,2.281,4.523,4.621,6.946,6.725
	c-0.208,0.542,0.076,1.251,0.857,1.317c4.508,0.369,9.022,0.526,13.545,0.611c1.714,0.032,4.123,0.513,5.998,0.016
	c-0.762,13.898-0.384,27.947,0.031,41.782c0.504,16.815,0.857,34.102,3.585,50.724c0.044,0.258,0.145,0.463,0.287,0.621
	c-0.173,0.334-0.18,0.765,0.135,1.159c2.315,2.898,4.593,5.761,6.747,8.782c0.586,0.822,1.575,0.769,2.218,0.321
	c8.086,0.18,17.019,0.567,25.074-0.652c0.249,0.154,0.488,0.334,0.75,0.466c0.624,0.312,1.373-0.176,1.345-0.806
	c0.025-0.003,0.054-0.006,0.079-0.013c0.652-0.126,0.961-0.797,0.914-1.414C72.792,164.782,71.195,152.594,70.959,141.396
	 M67.922,133.877c0.101,2.718,0.211,5.437,0.28,8.152c-1.21-1.219-2.529-2.359-3.701-3.556c-2.186-2.233-4.306-4.527-6.347-6.892
	c-0.101-0.12-0.211-0.183-0.324-0.221c-0.098-2.4-0.164-4.804-0.255-7.204C60.359,128.009,63.846,131.439,67.922,133.877
	 M67.834,131.376c-3.55-2.835-6.832-5.837-9.765-9.384c-0.164-0.198-0.372-0.265-0.58-0.252c-0.113-3.087-0.205-6.174-0.306-9.261
	c3.175,3.777,6.568,7.875,10.316,11.173C67.617,126.226,67.73,128.799,67.834,131.376 M67.365,120.527
	c-2.929-3.226-6.319-6.212-9.466-9.053c-0.258-0.233-0.545-0.198-0.75-0.047c-0.082-2.511-0.148-5.024-0.224-7.535
	c1.55,1.594,3.115,3.178,4.684,4.757c1.742,1.755,3.408,3.638,5.462,5.034C67.17,115.963,67.261,118.237,67.365,120.527
	 M63.138,107.121c-2.013-1.852-4.013-3.717-6.064-5.528c-0.069-0.063-0.145-0.094-0.221-0.129c-0.072-2.637-0.12-5.276-0.18-7.913
	c1.704,1.777,3.408,3.556,5.116,5.333c1.562,1.629,3.128,3.481,4.936,4.892c0.076,2.312,0.126,4.612,0.221,6.936
	C65.749,109.446,64.42,108.302,63.138,107.121 M62.057,39.346c-1.871-1.584-3.629-3.285-5.314-5.068
	c0.003-1.433-0.006-2.87-0.009-4.306c1.062,1.118,2.117,2.243,3.216,3.33c1.354,1.339,2.621,3.002,4.404,3.742
	c0.353,0.145,0.658-0.013,0.841-0.277c0.038,1.679,0.069,3.355,0.107,5.034C64.221,40.943,63.03,40.171,62.057,39.346
	 M65.368,45.013c0.038,1.704,0.069,3.411,0.107,5.119c-1.285-1.143-2.744-2.155-3.988-3.301c-1.688-1.553-3.27-3.21-4.775-4.936
	c0.013-1.758,0.016-3.519,0.022-5.276c1.298,1.556,2.64,3.078,4.079,4.508C62.107,42.414,63.632,44.162,65.368,45.013 M60.706,31.54
	c-1.301-1.08-2.64-2.107-3.975-3.137c-0.009-2.123-0.054-4.243-0.085-6.366c0.869,0.97,1.761,1.922,2.684,2.841
	c1.493,1.477,3.181,3.522,5.248,4.13c0.161,0.047,0.309,0.013,0.454-0.016c0.047,2.227,0.091,4.454,0.142,6.681
	C64.183,33.981,62.186,32.768,60.706,31.54 M56.689,44.269c1.08,1.364,2.189,2.703,3.383,3.975c1.6,1.707,3.355,3.742,5.465,4.838
	c0.041,1.846,0.076,3.695,0.117,5.541c-0.145-0.035-0.296-0.038-0.444,0c-0.498-0.369-1.008-0.948-1.364-1.266
	c-0.825-0.743-1.622-1.518-2.391-2.322c-1.556-1.629-3.002-3.38-4.36-5.175c-0.126-0.167-0.283-0.255-0.45-0.299
	C56.664,47.797,56.674,46.033,56.689,44.269 M60.618,57.288c1.137,1.257,3.115,4.164,5.09,3.676c0.047,2.07,0.091,4.136,0.139,6.206
	c-1.184-0.734-2.444-1.354-3.638-2.076c-1.862-1.121-3.645-2.362-5.368-3.689c-0.104-0.079-0.214-0.107-0.321-0.113
	c0.031-3.106,0.066-6.212,0.101-9.315C57.814,53.848,59.118,55.631,60.618,57.288 M65.9,69.57c0.063,2.747,0.126,5.494,0.186,8.244
	c-0.932-0.734-1.899-1.43-2.788-2.142c-2.205-1.77-4.426-3.522-6.646-5.27c-0.066-0.047-0.132-0.069-0.199-0.101
	c0.01-2.432,0.028-4.864,0.05-7.299C59.213,65.469,62.441,68.348,65.9,69.57 M64.977,26.428c-1.181-1.336-2.892-2.403-4.18-3.528
	c-1.452-1.266-2.829-2.618-4.19-3.982c-0.032-1.528-0.072-3.056-0.113-4.586c0.841,1.181,1.729,2.328,2.678,3.43
	c1.569,1.821,3.478,4.199,5.733,5.242C64.93,24.144,64.952,25.287,64.977,26.428 M61.767,77.202
	c1.418,1.235,2.826,2.741,4.391,3.884c0.066,2.936,0.139,5.868,0.198,8.804c-1.112-1.112-2.385-2.12-3.49-3.137l-5.89-5.415
	c-0.164-0.148-0.34-0.202-0.513-0.208c-0.022-2.873-0.025-5.746-0.016-8.622C58.214,74.081,59.981,75.649,61.767,77.202
	 M61.421,88.202c1.553,1.594,3.093,3.591,5.002,4.794c0.025,1.244,0.06,2.485,0.082,3.73c0.022,1.257,0.085,2.539,0.12,3.799
	c-1.118-1.058-2.322-2.048-3.43-3.046c-2.186-1.966-4.379-3.925-6.565-5.891c-0.041-1.83-0.098-3.657-0.126-5.487
	c-0.016-0.992-0.013-1.981-0.025-2.974C58.126,84.819,59.773,86.511,61.421,88.202 M56.189,5.483
	c1.559,2.167,3.396,4.142,5.194,6.102c1.055,1.15,2.155,2.577,3.361,3.834c0.025,1.414,0.06,2.829,0.088,4.243
	c-1.235-1.099-2.64-2.088-3.774-3.207c-1.714-1.685-3.235-3.525-4.662-5.449c-0.06-1.836-0.126-3.673-0.214-5.509
	C56.185,5.493,56.185,5.486,56.189,5.483 M11.632,72.106c-0.069-0.113-0.132-0.233-0.246-0.34c-1.915-1.814-4.013-3.474-6.121-5.103
	c1.767,0.23,3.578,0.416,5.409,0.558c0.734,1.169,1.581,2.281,2.498,3.304c0.435,0.485,0.914,0.973,1.421,1.436
	C13.604,72.014,12.618,72.04,11.632,72.106 M18.946,71.743c-0.359,0.009-0.718,0.041-1.077,0.054
	c-0.91-1.065-2.082-1.918-3.106-2.867c-0.536-0.491-1.027-1.021-1.512-1.556c1.005,0.047,2.01,0.05,3.015,0.06
	c0.973,1.506,2.129,3.024,3.465,4.328C19.384,71.747,19.113,71.74,18.946,71.743 M23.344,71.942
	c-0.847-0.646-1.704-1.276-2.504-1.988c-0.882-0.784-1.692-1.647-2.463-2.539c1.408-0.038,2.8-0.135,4.18-0.274
	c1.131,1.169,2.218,2.381,3.219,3.667c0.261,0.334,0.523,0.747,0.803,1.169C25.631,72.011,24.478,71.986,23.344,71.942
	 M29.165,70.937c-0.52-0.649-1.14-1.241-1.578-1.72c-0.772-0.838-1.588-1.635-2.419-2.41c1.503-0.239,2.983-0.535,4.404-0.951
	C29.41,67.548,29.284,69.242,29.165,70.937 M32.532,114.486c-0.501-17.501,0.362-35.031-0.252-52.517
	c-0.054-1.531-2.158-1.458-2.328,0c-0.05,0.441-0.082,0.885-0.129,1.326c-0.038-0.003-0.066-0.022-0.104-0.022
	c-8.622-0.302-17.319,0.759-26.013,0.655c0.992-2.221,1.789-4.857,1.912-7.358c3.644-5.931,5.632-12.984,8.108-19.439
	c3.925-10.241,7.821-20.497,11.567-30.804c0.088-0.249,0.12-0.479,0.101-0.687c9.412,0.806,18.979,0.775,28.413,0.548
	c-2.463,26.41-1.405,53.427-0.973,79.912c0.435,26.614,1.484,53.204,2.863,79.786c-6.533-0.482-13.624,0.302-20.147,0.687
	C35.04,149.208,33.03,131.88,32.532,114.486 M42.174,176.26c-1.742-2.344-3.689-4.659-5.796-6.738
	c1.235,0.135,2.507,0.255,3.793,0.365c1.131,1.134,2.325,2.224,3.503,3.295c0.891,0.813,1.843,1.751,2.907,2.407
	C45.091,175.807,43.614,176.03,42.174,176.26 M48.547,175.312c-0.013-0.041-0.003-0.085-0.022-0.123
	c-0.794-1.578-2.511-2.788-3.859-3.881c-0.488-0.394-0.973-0.797-1.455-1.197c1.074,0.063,2.155,0.101,3.232,0.126
	c0.904,1.175,1.896,2.303,2.892,3.37c0.438,0.469,0.904,0.961,1.383,1.446C49.993,175.142,49.265,175.215,48.547,175.312
	 M53.798,174.711c-0.882-0.828-1.821-1.61-2.684-2.429c-0.696-0.665-1.361-1.358-2.025-2.051c1.342-0.019,2.671-0.088,3.978-0.198
	c1.203,1.087,2.403,2.18,3.588,3.292c0.372,0.346,0.75,0.718,1.134,1.087C56.46,174.487,55.127,174.581,53.798,174.711
	 M60.718,174.289c-0.762-0.898-1.764-1.629-2.681-2.328c-0.989-0.759-2.025-1.446-3.056-2.142c1.039-0.135,2.066-0.302,3.059-0.532
	c0.006,0,0.013-0.006,0.022-0.009c1.339,1.336,2.671,2.677,4.035,3.985c0.35,0.337,0.702,0.69,1.055,1.043
	C62.344,174.289,61.537,174.273,60.718,174.289 M67.601,174.531c-0.179-0.019-0.368-0.022-0.554-0.038
	c-1.046-1.024-2.205-1.956-3.289-2.892c-1.481-1.276-2.986-2.517-4.489-3.764c0.132-0.246,0.23-0.523,0.208-0.882
	c-0.063-1.103-0.113-2.205-0.176-3.304c2.23,2.57,4.608,5.15,7.339,6.908c0.57,0.365,1.081,0.019,1.241-0.476
	C67.787,171.567,67.73,173.057,67.601,174.531 M67.91,169.617c-0.022-0.161-0.072-0.321-0.186-0.46
	c-1.462-1.818-3.37-3.257-5.081-4.832c-1.188-1.093-2.331-2.227-3.484-3.352c-0.132-2.381-0.239-4.766-0.362-7.147
	c2.75,3.323,5.553,6.889,8.845,9.51c0.158,0.126,0.34,0.18,0.526,0.208C68.096,165.569,68.036,167.601,67.91,169.617
	 M68.285,160.756c-2.781-3.541-6.426-6.653-9.63-9.762c-0.104-2.063-0.189-4.13-0.287-6.193c1.351,1.37,2.782,2.677,4.142,3.997
	c1.871,1.821,3.771,3.629,5.853,5.21C68.357,156.261,68.341,158.513,68.285,160.756 M63.242,146.698
	c-1.638-1.468-3.251-3.037-4.99-4.41c-0.129-2.838-0.211-5.676-0.328-8.518c1.654,2.095,3.349,4.158,5.15,6.127
	c1.594,1.742,3.238,3.73,5.204,5.128c0.044,2.158,0.076,4.319,0.085,6.473C66.747,149.807,64.977,148.257,63.242,146.698"/>
</svg>
