<?xml version="1.0" encoding="utf-8"?>
<!-- Generator: Adobe Illustrator 17.0.0, SVG Export Plug-In . SVG Version: 6.00 Build 0)  -->
<!DOCTYPE svg PUBLIC "-//W3C//DTD SVG 1.1//EN" "http://www.w3.org/Graphics/SVG/1.1/DTD/svg11.dtd">
<svg version="1.1" id="Слой_1" xmlns="http://www.w3.org/2000/svg" xmlns:xlink="http://www.w3.org/1999/xlink" x="0px" y="0px"
	 width="71.643px" height="181px" viewBox="0 0 71.643 181" enable-background="new 0 0 71.643 181" xml:space="preserve">
<path fill="#B17169" d="M70.959,143.354c-0.296-14.181-0.693-28.363-1.058-42.544c-0.696-26.977-1.165-53.963-1.896-80.942
	c1.147,0.454,2.489-0.665,1.764-1.881c-0.485-0.819-1.143-1.553-1.871-2.243c0-0.006,0-0.013,0-0.019
	c-0.032-1.08-0.926-1.578-1.761-1.518c-0.895-0.731-1.799-1.443-2.58-2.186c-2.214-2.111-4.224-4.445-6.489-6.495
	c-0.296-0.268-0.68-0.284-0.999-0.157c-0.261-0.293-0.639-0.504-1.159-0.52C44.606,4.515,34.123,4.357,23.848,5.271
	c-0.813,0.072-1.147,0.737-1.03,1.32c-0.293,0.183-0.554,0.432-0.706,0.816C18.304,16.97,14.64,26.59,10.986,36.21
	c-2.523,6.634-5.875,13.457-7.299,20.5c-1.918,2.388-3.188,6.001-3.663,8.845c-0.079,0.476,0.041,0.923,0.274,1.295
	c-0.072,0.523,0.158,1.071,0.778,1.172c0.167,0.025,0.34,0.047,0.507,0.072c2.259,2.281,4.523,4.621,6.946,6.725
	c-0.208,0.542,0.076,1.251,0.857,1.317c4.508,0.369,9.022,0.526,13.545,0.611c1.714,0.031,4.123,0.513,5.998,0.016
	c-0.762,13.898-0.384,27.947,0.031,41.782c0.504,16.815,0.857,34.102,3.585,50.724c0.044,0.258,0.145,0.463,0.287,0.621
	c-0.173,0.334-0.18,0.765,0.135,1.159c2.315,2.898,4.593,5.761,6.747,8.782c0.586,0.822,1.575,0.769,2.218,0.321
	c8.086,0.18,17.019,0.567,25.074-0.652c0.249,0.154,0.488,0.334,0.75,0.466c0.624,0.312,1.373-0.176,1.345-0.806
	c0.025-0.003,0.054-0.006,0.079-0.013c0.652-0.126,0.961-0.797,0.913-1.414C72.792,166.74,71.195,154.553,70.959,143.354
	 M67.922,135.835c0.101,2.718,0.211,5.437,0.28,8.152c-1.21-1.219-2.529-2.359-3.701-3.556c-2.186-2.233-4.306-4.527-6.347-6.892
	c-0.101-0.12-0.211-0.183-0.324-0.22c-0.098-2.4-0.164-4.804-0.255-7.204C60.359,129.967,63.846,133.397,67.922,135.835
	 M67.834,133.334c-3.55-2.835-6.832-5.837-9.765-9.384c-0.164-0.198-0.372-0.265-0.58-0.252c-0.113-3.087-0.205-6.174-0.306-9.261
	c3.175,3.777,6.568,7.875,10.316,11.173C67.617,128.184,67.73,130.758,67.834,133.334 M67.362,122.486
	c-2.926-3.226-6.316-6.212-9.463-9.053c-0.258-0.233-0.545-0.198-0.75-0.047c-0.082-2.511-0.148-5.024-0.224-7.535
	c1.55,1.594,3.115,3.178,4.684,4.756c1.742,1.755,3.408,3.638,5.462,5.034C67.17,117.921,67.261,120.196,67.362,122.486
	 M63.138,109.079c-2.013-1.852-4.013-3.717-6.064-5.528c-0.069-0.063-0.145-0.094-0.221-0.129c-0.072-2.637-0.12-5.276-0.18-7.913
	c1.704,1.777,3.408,3.556,5.116,5.333c1.562,1.629,3.128,3.481,4.936,4.892c0.076,2.312,0.126,4.612,0.22,6.936
	C65.749,111.404,64.42,110.26,63.138,109.079 M62.057,41.304c-1.871-1.584-3.629-3.285-5.314-5.068
	c0.003-1.433-0.006-2.87-0.009-4.306c1.062,1.118,2.117,2.243,3.216,3.33c1.354,1.339,2.621,3.002,4.404,3.742
	c0.353,0.145,0.658-0.013,0.841-0.277c0.038,1.679,0.069,3.355,0.104,5.034C64.221,42.901,63.03,42.129,62.057,41.304
	 M65.368,46.971c0.038,1.704,0.069,3.411,0.107,5.119c-1.285-1.143-2.744-2.155-3.988-3.301c-1.688-1.553-3.27-3.21-4.775-4.936
	c0.013-1.758,0.016-3.519,0.022-5.276c1.298,1.556,2.64,3.078,4.079,4.508C62.107,44.372,63.632,46.12,65.368,46.971 M60.706,33.498
	c-1.301-1.08-2.64-2.107-3.975-3.137c-0.009-2.123-0.054-4.243-0.085-6.366c0.869,0.97,1.761,1.922,2.684,2.841
	c1.493,1.477,3.181,3.522,5.248,4.13c0.161,0.047,0.309,0.013,0.454-0.016c0.047,2.227,0.091,4.454,0.142,6.681
	C64.183,35.939,62.186,34.727,60.706,33.498 M56.689,46.227c1.08,1.364,2.189,2.703,3.383,3.975c1.6,1.707,3.355,3.742,5.465,4.838
	c0.041,1.846,0.076,3.695,0.117,5.541c-0.148-0.035-0.296-0.038-0.444,0c-0.498-0.369-1.008-0.948-1.364-1.266
	c-0.825-0.743-1.622-1.518-2.391-2.322c-1.556-1.629-3.002-3.38-4.36-5.175c-0.126-0.167-0.284-0.255-0.45-0.299
	C56.664,49.755,56.674,47.991,56.689,46.227 M60.614,59.246c1.14,1.257,3.118,4.164,5.094,3.676c0.047,2.07,0.091,4.136,0.139,6.206
	c-1.184-0.734-2.444-1.354-3.638-2.076c-1.862-1.121-3.645-2.363-5.368-3.689c-0.104-0.079-0.214-0.107-0.321-0.113
	c0.031-3.106,0.066-6.212,0.101-9.315C57.814,55.806,59.118,57.589,60.614,59.246 M65.9,71.528c0.063,2.747,0.126,5.494,0.186,8.244
	c-0.932-0.734-1.899-1.43-2.788-2.142c-2.205-1.77-4.426-3.522-6.65-5.27c-0.063-0.047-0.129-0.069-0.195-0.101
	c0.009-2.432,0.028-4.864,0.05-7.299C59.213,67.427,62.441,70.306,65.9,71.528 M64.977,28.386c-1.181-1.336-2.892-2.403-4.18-3.528
	c-1.455-1.266-2.829-2.618-4.193-3.982c-0.028-1.528-0.069-3.056-0.11-4.586c0.841,1.181,1.729,2.328,2.677,3.43
	c1.569,1.821,3.478,4.199,5.733,5.242C64.93,26.102,64.952,27.245,64.977,28.386 M61.767,79.161
	c1.417,1.235,2.826,2.741,4.391,3.884c0.063,2.936,0.139,5.868,0.198,8.804c-1.112-1.112-2.385-2.12-3.49-3.137l-5.89-5.415
	c-0.164-0.148-0.34-0.202-0.513-0.208c-0.022-2.873-0.025-5.746-0.016-8.622C58.214,76.039,59.981,77.608,61.767,79.161
	 M61.421,90.16c1.553,1.594,3.093,3.591,5.002,4.794c0.025,1.244,0.06,2.485,0.082,3.73c0.022,1.257,0.085,2.539,0.12,3.799
	c-1.118-1.058-2.322-2.048-3.43-3.046c-2.186-1.966-4.378-3.925-6.565-5.891c-0.041-1.83-0.098-3.657-0.126-5.487
	c-0.016-0.992-0.013-1.981-0.025-2.974C58.126,86.777,59.773,88.469,61.421,90.16 M56.189,7.441
	c1.559,2.167,3.396,4.142,5.194,6.102c1.055,1.15,2.155,2.577,3.361,3.834c0.025,1.414,0.06,2.829,0.088,4.243
	c-1.235-1.099-2.64-2.088-3.777-3.207c-1.71-1.685-3.232-3.525-4.659-5.449c-0.06-1.836-0.126-3.673-0.214-5.509
	C56.185,7.451,56.185,7.444,56.189,7.441 M11.632,74.064c-0.069-0.113-0.132-0.233-0.246-0.34c-1.915-1.814-4.013-3.474-6.12-5.103
	c1.767,0.23,3.578,0.416,5.409,0.558c0.734,1.169,1.581,2.281,2.498,3.304c0.435,0.485,0.914,0.973,1.421,1.436
	C13.604,73.972,12.618,73.998,11.632,74.064 M18.946,73.702c-0.359,0.009-0.718,0.041-1.077,0.054
	c-0.91-1.065-2.082-1.918-3.106-2.867c-0.536-0.491-1.027-1.021-1.512-1.556c1.005,0.047,2.01,0.05,3.015,0.06
	c0.973,1.506,2.129,3.024,3.462,4.328C19.381,73.705,19.113,73.698,18.946,73.702 M23.344,73.9
	c-0.847-0.646-1.704-1.276-2.504-1.988c-0.882-0.784-1.692-1.647-2.463-2.539c1.405-0.038,2.8-0.135,4.18-0.274
	c1.131,1.169,2.218,2.381,3.219,3.667c0.261,0.334,0.523,0.747,0.803,1.169C25.63,73.969,24.478,73.944,23.344,73.9 M29.165,72.895
	c-0.52-0.649-1.14-1.241-1.578-1.72c-0.772-0.838-1.588-1.635-2.422-2.41c1.506-0.239,2.986-0.535,4.407-0.951
	C29.41,69.506,29.285,71.2,29.165,72.895 M32.532,116.444c-0.501-17.501,0.362-35.031-0.252-52.517
	c-0.054-1.531-2.158-1.458-2.328,0c-0.05,0.441-0.082,0.885-0.129,1.326c-0.038-0.003-0.066-0.022-0.104-0.022
	c-8.622-0.302-17.319,0.759-26.013,0.655c0.989-2.221,1.789-4.857,1.912-7.358c3.645-5.931,5.632-12.984,8.108-19.439
	c3.925-10.241,7.821-20.497,11.567-30.804c0.088-0.249,0.117-0.479,0.101-0.687c9.412,0.806,18.979,0.775,28.413,0.548
	c-2.463,26.41-1.405,53.427-0.973,79.912c0.435,26.614,1.48,53.203,2.863,79.786c-6.533-0.482-13.624,0.302-20.147,0.687
	C35.04,151.166,33.03,133.838,32.532,116.444 M42.174,178.219c-1.742-2.344-3.689-4.659-5.796-6.738
	c1.235,0.135,2.507,0.255,3.793,0.365c1.131,1.134,2.325,2.224,3.503,3.295c0.891,0.813,1.843,1.751,2.907,2.407
	C45.091,177.765,43.614,177.989,42.174,178.219 M48.547,177.27c-0.013-0.041-0.003-0.085-0.022-0.123
	c-0.794-1.578-2.511-2.788-3.859-3.881c-0.488-0.394-0.973-0.797-1.458-1.197c1.077,0.063,2.158,0.101,3.235,0.126
	c0.904,1.175,1.896,2.303,2.892,3.37c0.438,0.469,0.904,0.961,1.383,1.446C49.993,177.1,49.265,177.173,48.547,177.27
	 M53.798,176.669c-0.882-0.828-1.821-1.61-2.684-2.429c-0.696-0.665-1.361-1.358-2.025-2.051c1.342-0.019,2.671-0.088,3.978-0.198
	c1.203,1.087,2.403,2.18,3.588,3.292c0.372,0.346,0.75,0.718,1.134,1.087C56.46,176.445,55.127,176.54,53.798,176.669
	 M60.718,176.247c-0.762-0.898-1.764-1.629-2.681-2.328c-0.989-0.759-2.025-1.446-3.056-2.142c1.04-0.135,2.066-0.302,3.059-0.532
	c0.006,0,0.013-0.006,0.022-0.009c1.339,1.336,2.671,2.677,4.035,3.985c0.35,0.337,0.702,0.69,1.055,1.043
	C62.344,176.247,61.534,176.231,60.718,176.247 M67.601,176.489c-0.18-0.019-0.369-0.022-0.554-0.038
	c-1.046-1.024-2.205-1.956-3.289-2.892c-1.481-1.276-2.986-2.517-4.489-3.764c0.132-0.246,0.23-0.523,0.208-0.882
	c-0.063-1.103-0.113-2.205-0.176-3.304c2.23,2.57,4.608,5.15,7.34,6.908c0.57,0.365,1.08,0.019,1.241-0.476
	C67.787,173.525,67.73,175.015,67.601,176.489 M67.91,171.575c-0.022-0.161-0.072-0.321-0.186-0.46
	c-1.462-1.818-3.37-3.257-5.081-4.832c-1.188-1.093-2.331-2.227-3.484-3.352c-0.132-2.381-0.239-4.766-0.362-7.147
	c2.75,3.323,5.553,6.889,8.845,9.51c0.158,0.126,0.34,0.18,0.526,0.208C68.096,167.527,68.033,169.559,67.91,171.575
	 M68.285,162.714c-2.781-3.541-6.426-6.653-9.63-9.762c-0.104-2.063-0.189-4.13-0.287-6.193c1.351,1.37,2.781,2.678,4.142,3.997
	c1.871,1.821,3.771,3.629,5.853,5.21C68.357,158.219,68.341,160.471,68.285,162.714 M63.241,148.656
	c-1.638-1.468-3.251-3.037-4.99-4.41c-0.129-2.838-0.211-5.676-0.328-8.518c1.654,2.095,3.348,4.158,5.15,6.127
	c1.594,1.742,3.238,3.73,5.204,5.128c0.044,2.158,0.076,4.319,0.085,6.473C66.747,151.765,64.977,150.215,63.241,148.656"/>
</svg>
