<?xml version="1.0" encoding="utf-8"?>
<!-- Generator: Adobe Illustrator 17.0.0, SVG Export Plug-In . SVG Version: 6.00 Build 0)  -->
<!DOCTYPE svg PUBLIC "-//W3C//DTD SVG 1.1//EN" "http://www.w3.org/Graphics/SVG/1.1/DTD/svg11.dtd">
<svg version="1.1" id="Слой_1" xmlns="http://www.w3.org/2000/svg" xmlns:xlink="http://www.w3.org/1999/xlink" x="0px" y="0px"
	 width="110.36px" height="181px" viewBox="0 0 110.36 181" enable-background="new 0 0 110.36 181" xml:space="preserve">
<path fill="#B17169" d="M74.347,61.302c-0.091-0.022-0.164-0.003-0.249-0.013c-10.949-6.215-24.29-6.694-37.589-4.429
	c0.416-2.668,0.63-5.371,0.747-8.067c0.091-2.161,0.362-4.558,0.013-6.757c0.016,0.003,0.022,0.013,0.038,0.013
	c17.215,2.926,35.308,5.478,52.788,4.419c0.586-0.038,0.992-0.296,1.254-0.649c0.4-0.044,0.769-0.28,0.876-0.765
	c0.022-0.095,0.035-0.189,0.057-0.287c0.86,0.413,1.918-0.709,1.345-1.544c-0.258-0.372-0.554-0.718-0.847-1.068
	c1.367-8.02,1.137-16.131,0.602-24.239c1.298-0.047,2.17-1.575,1.147-2.778c-1.326-1.553-3.282-2.662-4.788-4.07
	c-1.528-1.427-2.914-2.983-4.278-4.564c-0.772-0.898-2.136-0.05-2.095,0.945c-0.211-0.129-0.457-0.227-0.762-0.243
	C68.38,6.483,54.117,6.335,39.882,5.973c-10.883-0.277-23.764-2.637-34.2,1.191C4.782,7.494,4.817,9.116,5.929,8.984
	c24.986-3.018,51.525,1.244,76.674,1.386c0.154,0,0.274-0.047,0.406-0.079c-0.529,6.754-0.945,13.781-0.324,20.541
	c-9.847-0.989-19.25-3.185-29.219-3.358c-9.721-0.167-19.524-0.05-29.238,0.35c-1.024,0.044-1.499,0.854-1.455,1.632
	c-1.569,9.894-2.082,22.478-0.158,32.25c0.208,1.062,1.865,1.181,2.296,0.271c0.239,0.104,0.51,0.17,0.828,0.117
	c22.51-3.667,45.436-7.091,59.374,15.233C96.11,94.935,98.305,119.341,89.3,138.21c-8.127,17.023-26.482,29.657-45.713,28.564
	c-20.33-1.156-36.531-18.342-37.031-38.493c-0.05-1.978-3.024-1.981-3.071,0c-0.369,14.67,7.866,28.148,19.955,35.806
	c25.713,22.73,67.451,10.773,81.138-20.352C117.524,114.285,109.274,70.226,74.347,61.302 M90.522,31.859
	c-1.411-1.506-3.04-2.873-4.612-4.227c0.082-1.761,0.091-3.531,0.072-5.305c0.567,0.69,1.102,1.405,1.698,2.07
	c0.888,0.992,1.824,2.177,2.911,3.062C90.582,28.927,90.56,30.391,90.522,31.859 M90.575,24.69
	c-0.495-0.444-0.989-0.885-1.436-1.342c-1.121-1.147-2.17-2.359-3.207-3.582c-0.047-1.562-0.123-3.119-0.214-4.668
	c1.543,1.688,3.084,3.402,4.7,5.031C90.5,21.65,90.553,23.172,90.575,24.69 M87.551,13.255c0.769,0.857,1.619,1.833,2.536,2.706
	c0.05,0.476,0.072,0.948,0.113,1.424c-1.31-1.213-2.643-2.403-3.941-3.607c-0.208-0.192-0.441-0.211-0.643-0.135
	c-0.066-0.986-0.126-1.975-0.202-2.952C86.093,11.573,86.808,12.427,87.551,13.255 M84.915,32.59
	c0.391-0.221,0.702-0.611,0.762-1.216c0.066-0.643,0.076-1.301,0.123-1.95c1.468,1.644,2.967,3.295,4.668,4.621
	c-0.063,1.827-0.135,3.654-0.208,5.484c-0.684-0.646-1.37-1.282-2.029-1.928c-1.405-1.38-2.835-2.734-4.262-4.095
	C84.499,33.384,84.814,33.018,84.915,32.59 M81.141,33.582c1.796,1.909,3.588,3.821,5.412,5.702
	c1.178,1.219,2.331,2.542,3.578,3.733c-0.003,0.06-0.006,0.123-0.006,0.183c-0.013,0-0.019-0.006-0.032-0.006
	c-1.515-0.135-3.03-0.246-4.545-0.359c-1.751-1.717-3.96-3.125-5.736-4.725c-1.682-1.512-3.26-3.128-4.801-4.782
	C77.049,33.504,79.094,33.582,81.141,33.582 M72.069,33.031c1.903,2.359,3.903,4.615,6.114,6.706
	c0.923,0.869,1.925,1.855,2.986,2.778c-1.796-0.12-3.591-0.236-5.387-0.34c-1.534-1.795-3.383-3.37-5.109-4.949
	c-1.922-1.758-3.897-3.452-5.909-5.106C67.202,32.436,69.634,32.754,72.069,33.031 M62.106,31.79
	c0.013,0.17,0.082,0.343,0.255,0.498c2.318,2.098,4.621,4.212,6.861,6.391c1.093,1.065,2.139,2.208,3.216,3.308
	c-1.818-0.098-3.635-0.208-5.453-0.302c-1.594-1.89-3.648-3.478-5.44-5.122c-1.966-1.805-3.956-3.585-5.941-5.368
	C57.778,31.311,59.942,31.532,62.106,31.79 M53.465,31.084c0.066,0.003,0.132,0.009,0.198,0.013
	c2.202,2.246,4.397,4.501,6.621,6.728c1.178,1.178,2.344,2.489,3.585,3.695c-1.635-0.085-3.27-0.167-4.905-0.255
	c-1.531-1.594-3.336-2.986-4.961-4.442c-2.161-1.928-4.309-3.868-6.461-5.805C49.518,31.028,51.493,31.043,53.465,31.084
	 M46.23,31.006c0.022,0.072,0.022,0.148,0.091,0.217c2.237,2.192,4.476,4.382,6.703,6.58c1.077,1.062,2.136,2.218,3.244,3.311
	c-1.833-0.101-3.663-0.195-5.494-0.312c-3.427-3.556-7.585-6.643-11.406-9.796C41.656,30.999,43.943,30.996,46.23,31.006
	 M37.397,31.002c3.298,3.096,6.543,6.574,10.045,9.567c-1.84-0.126-3.682-0.227-5.519-0.381c-3.673-3.128-7.547-5.953-11.132-9.195
	C32.993,31.015,35.195,31.006,37.397,31.002 M25.288,59.359c0.107-1.2,0.161-2.407,0.18-3.616c1.581,0.813,3.197,1.651,4.851,2.366
	C28.634,58.492,26.955,58.908,25.288,59.359 M34.713,57.185c-0.51,0.095-1.017,0.217-1.528,0.321
	c-2.391-1.399-5.147-2.331-7.724-3.311c-0.003-1.128-0.035-2.255-0.063-3.383c1.55,0.932,3.1,1.865,4.649,2.797
	c1.49,0.895,2.961,2.003,4.671,2.403c-0.006,0.362-0.019,0.721-0.025,1.08C34.694,57.129,34.71,57.154,34.713,57.185 M34.764,54.186
	c-1.134-0.898-2.507-1.499-3.78-2.177c-1.732-0.917-3.468-1.84-5.201-2.759c-0.145-0.076-0.287-0.091-0.419-0.082
	c-0.035-1.291-0.072-2.583-0.082-3.865c-0.003-0.523-0.006-1.049-0.009-1.575c1.575,1.219,3.153,2.441,4.731,3.66
	c1.339,1.036,2.649,2.221,4.224,2.866c0.255,0.107,0.46,0.054,0.611-0.069C34.817,51.522,34.801,52.854,34.764,54.186
	 M34.864,48.885c-1.062-1.279-2.633-2.23-3.966-3.204l-4.583-3.355c-0.369-0.268-0.781-0.123-1.052,0.164
	c-0.019-2.457-0.06-4.917-0.183-7.371c1.238,1.465,2.567,2.822,4.063,4.048c1.512,1.238,3.128,2.63,5.068,3.084
	c0.202,0.047,0.387,0.019,0.542-0.057c-0.151,1.962,0.12,4.023,0.123,5.96C34.88,48.4,34.864,48.642,34.864,48.885 M35.079,40.241
	c-0.06,0.211-0.066,0.432-0.11,0.649c-1.358-1.468-3.251-2.4-4.797-3.657c-1.578-1.285-3.046-2.718-4.438-4.202
	c-0.255-0.274-0.542-0.328-0.803-0.268c-0.047-0.624-0.091-1.251-0.154-1.877c1.386,0.044,2.775,0.054,4.164,0.076
	c2.901,3.141,6.098,6.398,9.645,8.933c-0.324-0.032-0.652-0.054-0.976-0.085c-0.369-0.035-0.643,0.129-0.835,0.372
	C36.433,39.451,35.321,39.353,35.079,40.241 M106.851,109.648c-2.7-2.214-5.872-4.032-8.763-5.931
	c-0.255-2.211-0.627-4.407-1.08-6.58c2.504,2.536,5.749,5.56,9.138,6.653C106.464,105.727,106.703,107.683,106.851,109.648
	 M82.618,67.892c6.933,3.657,12.26,9.085,16.169,15.511c-2.296-1.695-4.694-3.254-6.902-5.087c-0.586-0.485-1.304-0.217-1.613,0.271
	c-0.586-1.084-1.156-2.177-1.802-3.222C86.701,72.507,84.726,70.053,82.618,67.892 M91.379,80.659
	c2.533,2.337,5.383,4.567,8.59,5.768c0.18,0.066,0.353,0.05,0.51-0.013c0.989,1.915,1.893,3.884,2.652,5.931
	c-0.828-0.45-1.663-0.898-2.451-1.417c-1.704-1.118-3.32-2.353-4.842-3.708c-0.649-0.573-1.575,0.331-0.961,0.961
	c2.523,2.583,5.695,5.412,9.154,6.782c0.702,2.224,1.295,4.498,1.748,6.82c-1.191-0.712-2.482-1.301-3.641-2.044
	c-1.733-1.115-3.355-2.375-4.895-3.745c-0.161-0.145-0.334-0.132-0.488-0.072C95.555,90.616,93.751,85.475,91.379,80.659
	 M40.503,170.295c3.015,0.394,6.029,0.425,9.015,0.195c1.348,0.832,2.744,1.625,4.18,2.34
	C49.175,172.601,44.768,171.719,40.503,170.295 M58.174,172.828c-1.783-0.977-3.654-1.83-5.531-2.671
	c1.975-0.29,3.928-0.702,5.853-1.235c2.088,1.15,4.268,2.227,6.439,3.106C62.657,172.459,60.405,172.724,58.174,172.828
	 M67.961,171.357c-0.45,0.117-0.898,0.208-1.345,0.312c-0.013-0.205-0.101-0.4-0.302-0.523c-1.755-1.071-3.676-2.025-5.623-2.901
	c1.758-0.573,3.478-1.266,5.169-2.025c2.192,1.336,4.454,2.747,6.785,3.641C71.118,170.428,69.565,170.938,67.961,171.357
	 M74.649,169.073c-0.028-0.032-0.022-0.072-0.057-0.101c-1.922-1.559-4.309-2.693-6.675-3.771c1.468-0.74,2.892-1.566,4.29-2.435
	c1.925,1.663,4.089,3.374,6.376,4.407C77.298,167.854,75.997,168.506,74.649,169.073 M80.678,165.97
	c-1.399-0.989-3.037-1.663-4.504-2.545c-0.851-0.507-1.676-1.052-2.489-1.616c1.594-1.062,3.125-2.214,4.599-3.427
	c0.964,0.863,1.953,1.698,2.936,2.536c0.999,0.85,2.01,1.896,3.137,2.637C83.17,164.408,81.944,165.221,80.678,165.97
	 M86.172,162.143c-1.03-1.15-2.416-2.044-3.626-2.98c-0.904-0.702-1.808-1.411-2.728-2.101c1.329-1.175,2.583-2.432,3.793-3.726
	c1.2,0.986,2.448,1.912,3.745,2.753c1.03,0.665,2.167,1.458,3.364,1.981C89.281,159.513,87.769,160.88,86.172,162.143
	 M91.949,156.782c-1.203-0.759-2.671-1.266-3.862-1.94c-1.282-0.725-2.501-1.54-3.711-2.369c1.002-1.118,1.944-2.284,2.851-3.471
	c1.874,2.167,4.243,4.24,6.813,5.324C93.357,155.157,92.683,155.998,91.949,156.782 M95.31,152.766
	c-1.314-0.819-2.709-1.512-3.972-2.413c-1.128-0.803-2.139-1.726-3.119-2.684c1.021-1.433,1.972-2.911,2.826-4.445
	c0.041-0.076,0.076-0.158,0.117-0.233c1.925,1.874,4.205,3.846,6.596,4.558c0.718,0.214,1.282-0.743,0.734-1.263
	c-1.08-1.03-2.476-1.71-3.701-2.561c-0.999-0.696-1.94-1.462-2.863-2.252c0.781-1.531,1.468-3.103,2.11-4.697
	c1.298,1.074,2.596,2.148,3.878,3.244c1.058,0.907,2.126,2.051,3.32,2.87C99.603,146.422,97.619,149.729,95.31,152.766
	 M102.224,140.676c-0.047,0.123-0.11,0.239-0.161,0.359c-1.027-0.806-2.221-1.487-3.241-2.192c-1.474-1.021-2.93-2.066-4.388-3.112
	c0.75-1.972,1.373-3.988,1.925-6.032c1.364,1.216,2.728,2.432,4.142,3.588c1.084,0.882,2.199,1.903,3.411,2.696
	C103.408,137.58,102.848,139.148,102.224,140.676 M104.574,133.737c-0.964-0.68-1.997-1.295-2.917-1.947
	c-1.654-1.175-3.27-2.4-4.879-3.632c0.535-2.218,0.958-4.464,1.263-6.732c1.222,0.951,2.444,1.903,3.667,2.854
	c1.361,1.058,2.74,2.296,4.249,3.204C105.579,129.597,105.141,131.695,104.574,133.737 M106.385,124.954
	c-1.109-0.825-2.309-1.566-3.411-2.312c-1.572-1.068-3.144-2.133-4.716-3.2c0.173-1.644,0.261-3.298,0.318-4.955
	c2.63,2.192,5.364,4.514,8.272,6.309C106.735,122.189,106.58,123.578,106.385,124.954 M98.598,112.024
	c0-1.937-0.104-3.871-0.258-5.802c2.769,2.104,5.591,4.404,8.644,5.919c0.076,1.937,0.098,3.878,0.016,5.818
	C104.357,115.791,101.326,113.91,98.598,112.024"/>
<path fill="#B17169" d="M52.159,88.223c-15.353-6.691-32.688-3.289-48.015,1.695C4.49,63.262,0.886,35.126,4.792,8.739
	C5.091,6.72,2.074,5.784,1.655,7.876C-0.938,20.759,0.247,34.197,0.42,47.263C0.612,61.602,0.792,75.944,1.384,90.27
	c0.022,0.573,0.331,0.945,0.721,1.147c-0.274,1.118,0.558,2.479,2.035,2.107c18.402-4.637,41.712-10.549,56.832,5.216
	c8.946,9.333,11.444,25.632,2.835,35.96c-2,2.4-4.12,4.117-6.284,5.264c-0.088-0.057-0.173-0.117-0.274-0.158
	c-1.433-0.542-2.986-0.586-4.445-1.093c-1.704-0.595-3.314-1.54-4.697-2.696c-0.428-0.359-0.797-0.753-1.143-1.159
	c0.101-0.397-0.072-0.885-0.548-1.065c-0.117-0.044-0.243-0.072-0.362-0.113c-1.065-1.547-1.906-3.216-3.191-4.58
	c-0.054-0.126-0.126-0.249-0.243-0.353c-1.443-1.31-3.437-1.717-5.248-2.363c-2.035-0.721-4.07-1.433-6.114-2.126
	c-0.265-0.299-0.633-0.501-1.118-0.473c-7.749,0.45-15.933,0.249-23.597,1.241c-1.058,0.139-1.471,1.673-0.271,2
	c7.16,1.944,16.052,1.377,23.404,0.063c-0.085,11.012,10.754,19.445,21.502,18.771c12.978-0.816,21.426-13.365,21.71-25.553
	C73.216,106.206,64.951,93.795,52.159,88.223 M33.47,130.609c-0.762-1.251-1.449-2.564-2.029-3.941
	c1.632,0.718,3.267,1.436,4.911,2.142c1.566,0.671,3.175,1.584,4.879,1.786c0.022,0.665,0.183,1.329,0.413,1.988
	c-0.832-0.164-1.66-0.328-2.466-0.536C37.309,131.573,35.397,130.808,33.47,130.609 M39.146,134.043
	c1.216,0.334,2.47,0.702,3.733,0.98c0.614,0.923,1.336,1.77,2.07,2.52c-0.643-0.091-1.285-0.192-1.922-0.337
	c-2.044-0.469-3.956-1.229-5.884-2.048c-0.082-0.035-0.151-0.022-0.224-0.013c-0.696-0.74-1.367-1.515-1.991-2.353
	C36.311,133.312,37.795,133.671,39.146,134.043 M39.165,137.249c2.523,1.304,5.424,2.29,8.149,2.353
	c1.109,0.806,2.413,1.572,3.789,2.145C46.848,141.921,42.699,140.185,39.165,137.249"/>
</svg>
