<?xml version="1.0" encoding="utf-8"?>
<!-- Generator: Adobe Illustrator 17.0.0, SVG Export Plug-In . SVG Version: 6.00 Build 0)  -->
<!DOCTYPE svg PUBLIC "-//W3C//DTD SVG 1.1//EN" "http://www.w3.org/Graphics/SVG/1.1/DTD/svg11.dtd">
<svg version="1.1" id="Слой_1" xmlns="http://www.w3.org/2000/svg" xmlns:xlink="http://www.w3.org/1999/xlink" x="0px" y="0px"
	 width="110.43px" height="181px" viewBox="0 0 110.43 181" enable-background="new 0 0 110.43 181" xml:space="preserve">
<path fill="#B17169" d="M109.655,11.381c0.176-0.347,0.195-0.765,0.006-1.21c0-0.035,0-0.072,0-0.107
	c0.009-0.869-0.589-1.336-1.26-1.446c-1.062-0.929-2.419-1.638-3.528-2.407c-1.814-1.26-3.566-2.671-5.475-3.786
	c-0.406-0.239-0.992-0.271-1.395,0C97.87,2.513,97.628,2.639,97.555,2.8l-0.05,0.12c-0.028,0.066-0.038,0.126-0.06,0.192
	c-0.381,0.072-0.747,0.243-1.008,0.539c-0.151-0.12-0.328-0.217-0.567-0.255c-3.871-0.633-7.837-0.189-11.753-0.214
	c-4.319-0.025-8.603-0.34-12.909-0.58c-0.677-0.296-1.657,0.069-1.77,1.052c-2.624,22.96-3.465,46.513-3.821,69.628
	c-7.059-1.014-14.503-0.608-21.606-0.69c-1.632-0.019-3.465-0.167-5.333-0.236c0.432-1.704,0.888-3.399,1.342-5.097
	c0.287-0.224,0.4-0.595,0.249-0.936c4.586-17.026,10.121-33.771,14.474-50.832c0.891,0.009,1.663-0.847,1.128-1.795
	c-1.26-2.233-3.947-3.881-5.891-5.522c-1.956-1.654-3.938-3.248-5.963-4.816c-0.233-0.567-0.75-1.027-1.553-1.087
	c-8.811-0.643-17.993-0.772-26.781,0.148c-0.523,0.054-0.904,0.513-1.002,0.983c-0.214,0.085-0.387,0.258-0.435,0.564
	C10.603,27.077,8.892,50.333,4.46,73.363c-0.047,0.246-0.038,0.472,0.006,0.684C2.098,80.92,0.939,88.571,0.608,95.615
	c-0.558,0.309-0.879,1.128-0.306,1.651c2.126,1.925,4.293,3.802,6.372,5.777c1.673,1.584,3.421,4.237,5.708,4.804
	c0.261,0.066,0.504,0.006,0.721-0.095c14.931,2.174,30.237,2.372,45.344,1.717c0.022,0.013,0.041,0.028,0.06,0.041
	c0.359,0.224,0.709,0.139,0.958-0.079c2.189-0.101,4.375-0.217,6.552-0.35c0.551-0.035,0.961-0.274,1.238-0.614
	c-0.945,18.887-0.715,38.112-0.432,56.914c0.022,1.487,1.597,1.865,2.517,1.197c0.016,0.05,0.063,0.085,0.094,0.129
	c-0.898,0.098-1.521,1.43-0.797,2.246c1.257,1.408,2.586,2.753,3.83,4.174c1.15,1.314,2.107,3.241,3.629,4.111
	c0.488,0.277,0.97,0.214,1.342-0.028c9.211,0.901,18.708,0.737,27.922-0.375c0.101,0.063,0.192,0.139,0.293,0.198
	c0.554,0.34,1.134,0.076,1.43-0.369c0.34,0.063,0.702,0.003,0.983-0.214c0.863-0.384,0.995-1.531,0.545-2.331
	C112.269,120.191,109.201,65.406,109.655,11.381 M99.455,6.363c1.033,0.948,2.139,1.833,3.226,2.69
	c1.175,0.926,2.476,2.214,3.909,2.857c0.031,1.95,0.025,3.903,0.041,5.853c-0.734-0.718-1.49-1.417-2.196-2.126
	c-1.66-1.663-3.267-3.465-5.059-4.993C99.404,9.217,99.417,7.79,99.455,6.363 M98.437,124.522c0.05-1.553,0.076-3.103,0.117-4.656
	c0.926,0.854,1.868,1.692,2.835,2.504c1.31,1.106,2.69,2.337,4.186,3.285c-0.009,1.701-0.028,3.402-0.031,5.1
	C103.096,128.756,100.668,126.797,98.437,124.522 M105.534,133.364c0,1.153-0.013,2.309-0.009,3.462
	c-1.058-0.964-2.189-1.871-3.226-2.797c-1.342-1.2-2.684-2.416-4.048-3.604c0.047-1.169,0.069-2.337,0.11-3.503
	C100.444,129.392,102.832,131.729,105.534,133.364 M102.844,121.155c-1.452-1.021-2.857-2.107-4.24-3.216
	c0.057-2.205,0.088-4.41,0.129-6.615c1.159,1.257,2.366,2.47,3.616,3.635c1.03,0.954,2.123,2.013,3.292,2.936
	c-0.016,1.692-0.038,3.383-0.05,5.075C104.671,122.361,103.733,121.779,102.844,121.155 M103.433,113.296
	c-1.588-1.301-3.109-2.681-4.659-4.026c0.038-1.991,0.054-3.982,0.082-5.972c1.058,1.194,2.158,2.353,3.345,3.43
	c1.005,0.91,2.224,2.139,3.534,3.008c-0.022,1.742-0.047,3.484-0.066,5.226C104.901,114.411,104.133,113.866,103.433,113.296
	 M103.534,104.882c-1.67-1.37-3.191-2.895-4.64-4.492c0.013-1.125,0.016-2.249,0.025-3.377c1.21,0.907,2.388,1.846,3.503,2.867
	c1.172,1.074,2.221,2.303,3.405,3.361c-0.016,1.071-0.035,2.139-0.047,3.21C104.996,105.94,104.211,105.436,103.534,104.882
	 M98.932,95.63c0.016-1.799,0.009-3.597,0.019-5.396c1.033,1.348,2.381,2.551,3.553,3.629c1.011,0.929,2.17,2.051,3.427,2.876
	c-0.019,1.216-0.044,2.432-0.06,3.648C103.855,98.506,101.288,96.944,98.932,95.63 M103.323,92.052
	c-1.474-1.21-2.8-2.741-4.366-3.846c0.009-1.978,0.006-3.96,0.009-5.938c2.422,2.088,4.527,4.782,7.094,6.772
	c-0.028,1.629-0.057,3.254-0.082,4.879C105.062,93.303,104.123,92.707,103.323,92.052 M98.173,132.463
	c0.958,0.945,1.928,1.874,2.879,2.816c1.44,1.427,2.86,3.081,4.479,4.369c0.006,1.584-0.003,3.172,0.009,4.753
	c-1.339-1.266-2.829-2.407-4.164-3.654c-1.166-1.09-2.284-2.221-3.393-3.358C98.063,135.749,98.104,134.105,98.173,132.463
	 M97.896,139.249c0.765,0.901,1.547,1.783,2.353,2.63c1.594,1.679,3.301,3.478,5.305,4.703c0.016,1.408,0.009,2.819,0.028,4.227
	c-2.526-2.558-5.257-4.958-7.875-7.39C97.785,142.03,97.826,140.641,97.896,139.249 M97.622,144.761
	c2.599,2.904,5.191,5.887,7.998,8.577c0.035,2.173,0.041,4.347,0.091,6.52c-2.558-3.257-5.443-6.284-8.177-9.371
	c-0.082-0.088-0.167-0.139-0.255-0.167C97.407,148.465,97.511,146.613,97.622,144.761 M97.152,151.993
	c2.785,3.481,5.494,7.1,8.615,10.285c0.054,2.142,0.072,4.287,0.145,6.429c-2.737-3.446-6.205-6.536-9.302-9.617
	C96.812,156.725,96.982,154.359,97.152,151.993 M38.758,57.506c-1.238-0.929-2.841-1.521-4.284-1.827
	c0.359-1.622,0.696-3.254,1.049-4.879c0.86,0.271,1.698,0.605,2.466,1.103c0.636,0.413,1.175,0.977,1.792,1.408
	C39.435,54.709,39.088,56.107,38.758,57.506 M34.858,69.104c-1.08-0.425-2.082-0.976-3.056-1.591
	c0.296-1.26,0.583-2.523,0.873-3.783c0.035,0.006,0.06,0.022,0.098,0.025c0.158,0.009,0.246-0.085,0.293-0.198
	c0.11,0.145,0.258,0.265,0.457,0.343c0.302,0.211,0.605,0.419,0.907,0.63c0.532,0.365,1.068,0.718,1.613,1.065
	c0.261,0.167,0.52,0.337,0.778,0.504c-0.246,1.131-0.498,2.262-0.737,3.389C35.661,69.372,35.242,69.256,34.858,69.104
	 M35.708,71.268c-0.076,0.362-0.158,0.731-0.233,1.093c-1.808,0.098-3.553,0.391-5.075,1.093c0.362-1.512,0.718-3.037,1.074-4.555
	c0.866,0.649,1.767,1.254,2.744,1.723C34.681,70.843,35.189,71.07,35.708,71.268 M35.938,63.586
	c-0.885-0.444-1.931-1.143-2.961-1.156c0.359-1.569,0.693-3.147,1.046-4.719c0.847,0.23,1.669,0.529,2.426,1.005
	c0.614,0.387,1.153,0.891,1.723,1.345c-0.318,1.386-0.639,2.775-0.945,4.161C36.792,64.004,36.36,63.797,35.938,63.586
	 M40.383,50.923c-1.276-0.948-3.046-1.54-4.489-1.865c0.34-1.588,0.658-3.182,0.992-4.772c1.417,1.134,2.889,2.249,4.467,2.955
	C41.025,48.466,40.698,49.694,40.383,50.923 M41.857,45.388c-0.854-0.639-1.811-1.112-2.753-1.632
	c-0.633-0.35-1.26-0.702-1.89-1.058c0.463-2.236,0.904-4.476,1.345-6.716c0.687,0.658,1.389,1.304,2.073,1.962
	c0.857,0.828,1.682,1.805,2.674,2.485C42.818,42.08,42.317,43.728,41.857,45.388 M43.807,38.707
	c-0.756-0.643-1.647-1.178-2.416-1.748c-0.879-0.652-1.742-1.332-2.633-1.975c0.255-1.295,0.495-2.589,0.74-3.887
	c0.772,0.797,1.629,1.521,2.507,2.17c0.854,0.627,1.884,1.43,2.948,1.843C44.569,36.31,44.172,37.5,43.807,38.707 M45.659,32.895
	c-0.81-0.422-1.682-0.762-2.457-1.222c-1.197-0.712-2.243-1.594-3.352-2.419c0.252-1.354,0.472-2.709,0.715-4.064
	c0.69,0.583,1.364,1.181,2.06,1.755c1.282,1.052,2.548,2.315,4.013,3.112C46.308,31.002,45.974,31.944,45.659,32.895 M43.766,5.389
	c1.556,1.66,3.125,3.298,4.744,4.901c1.348,1.339,2.728,3.09,4.325,4.268c-0.246,0.532-0.469,1.077-0.706,1.61
	c-1.074-0.945-2.4-1.717-3.487-2.507c-1.827-1.329-3.657-2.655-5.513-3.947C43.35,8.272,43.571,6.829,43.766,5.389 M42.793,11.948
	c1.436,1.235,2.879,2.46,4.338,3.673c1.21,1.008,2.438,2.347,3.856,3.144c-0.617,1.471-1.216,2.952-1.799,4.441
	c-2.192-2.243-4.788-4.101-7.242-6.054C42.235,15.419,42.519,13.683,42.793,11.948 M48.412,25.234
	c-0.34,0.895-0.699,1.777-1.027,2.677c-1.074-0.961-2.366-1.742-3.522-2.567c-0.98-0.696-1.975-1.364-2.964-2.038
	c0.243-1.364,0.463-2.725,0.696-4.089C43.772,21.328,45.924,23.502,48.412,25.234 M13.277,105.487
	c-1.068-1.887-3.44-3.355-4.999-4.656c-0.913-0.765-1.843-1.512-2.778-2.249c2.419,0.387,4.87,0.639,7.333,0.819
	c1.052,1.121,2.136,2.208,3.295,3.232c1.112,0.983,2.318,2.076,3.632,2.92C17.599,105.531,15.441,105.493,13.277,105.487
	 M22.513,105.581c-0.006-0.006-0.003-0.013-0.006-0.019c-1.49-1.868-3.868-3.191-5.698-4.712c-0.507-0.422-0.995-0.863-1.493-1.295
	c1.493,0.082,2.989,0.135,4.486,0.176c1.767,2.104,3.714,4.202,5.89,5.894C24.633,105.61,23.571,105.594,22.513,105.581
	 M29.191,105.676c-2.199-2.085-4.618-3.95-6.974-5.89c1.336,0.025,2.668,0.044,4.001,0.066c2.038,1.988,4.073,4.007,6.221,5.872
	C31.358,105.707,30.275,105.692,29.191,105.676 M35.522,105.767c-2.073-2.092-4.36-3.994-6.662-5.862
	c1.355,0.028,2.712,0.054,4.054,0.098c0.135,0.003,0.271,0.009,0.41,0.013c2.022,1.966,4.073,3.982,6.234,5.799
	C38.213,105.799,36.867,105.786,35.522,105.767 M43.312,105.859c-2.019-2.063-4.341-3.925-6.675-5.733
	c1.414,0.047,2.832,0.091,4.246,0.139c2.133,1.896,4.297,3.846,6.571,5.604C46.072,105.862,44.692,105.871,43.312,105.859
	 M50.954,105.874c-2.038-1.978-4.322-3.777-6.65-5.497c1.607,0.05,3.213,0.082,4.823,0.129c1.515,1.792,3.119,3.654,4.857,5.349
	C52.973,105.862,51.965,105.874,50.954,105.874 M57.305,105.836c-1.814-1.761-3.695-3.456-5.478-5.257
	c1.61,0.038,3.216,0.066,4.826,0.098c1.471,1.729,3.055,3.478,4.741,5.081C60.033,105.783,58.669,105.824,57.305,105.836
	 M64.411,105.698c-1.534-1.761-3.285-3.424-5.081-4.964c1.074,0.016,2.148,0.013,3.222,0.022c0.687,1.005,1.37,2.007,2.066,3.005
	c0.447,0.636,0.866,1.298,1.339,1.909C65.441,105.685,64.928,105.685,64.411,105.698 M67.533,103.726
	c-0.372-0.45-0.756-0.895-1.128-1.342c-0.45-0.542-0.91-1.074-1.361-1.61c0.86,0.003,1.723,0.019,2.586,0.016
	c0.028,0,0.047-0.013,0.072-0.013C67.637,101.757,67.586,102.743,67.533,103.726 M69.861,99.508
	c-0.047-0.504-0.35-0.819-0.709-0.942c-0.202-0.595-0.709-1.09-1.521-1.14c-11.557-0.747-23.14-0.999-34.716-1.326
	c-9.636-0.271-19.565-1.21-29.163-0.016c1.449-6.864,2.939-14.172,3.685-21.31c0.094-0.154,0.183-0.315,0.227-0.529
	c4.716-22.545,9.126-46.601,8.322-69.716c8.338,1.197,17.016,1.506,25.443,1.301c-6.076,22.378-10.578,45.675-14.421,68.512
	c-0.261,1.556,1.521,2.391,2.473,1.632c2.013-0.381,4.24-0.428,6.527-0.334c0.413,0.198,0.885,0.243,1.288,0.066
	c3.774,0.233,7.636,0.769,10.943,0.854c6.032,0.161,12.339,0.806,18.324,0.044c1.046-0.132,1.723-1.285,1.528-2.164
	c0.117-0.183,0.208-0.391,0.23-0.646c2.032-22.617,3.657-45.713,3.534-68.44c7.406,1.78,16.881,3.119,24.016,0.784
	c0.047-0.016,0.085-0.05,0.129-0.069c-0.082,5.635-0.079,11.271-0.054,16.903c-0.252,0.202-0.375,0.539-0.145,0.929
	c0.044,0.079,0.104,0.151,0.151,0.227c0.009,1.843,0.009,3.686,0.025,5.525c-0.17,0.239-0.214,0.558,0.006,0.901
	c0.164,18.468,0.542,36.937-0.05,55.408c-0.844,26.202-2.413,52.46-2.551,78.674c-4.016-0.781-8.414-0.186-12.474-0.098
	c-3.613,0.079-7.803-0.488-11.038,1.295c0.05-0.145,0.107-0.28,0.117-0.454C71.41,143.75,71.958,121.098,69.861,99.508
	 M77.805,174.891c-0.643-1.477-2.145-2.848-3.159-3.941c-1.109-1.197-2.337-2.312-3.616-3.342c1.534,0.617,3.244,0.822,4.974,0.885
	c1.254,1.112,2.501,2.23,3.764,3.33c1.027,0.895,2.054,1.915,3.134,2.832C81.204,174.73,79.509,174.825,77.805,174.891
	 M85.919,174.516c-1.348-1.556-3.153-2.826-4.703-4.139c-0.747-0.63-1.503-1.244-2.249-1.871c0.658-0.006,1.31-0.016,1.94-0.003
	c1.178,0.016,2.394,0.066,3.619,0.104c0.847,1.184,1.761,2.328,2.681,3.434c0.599,0.718,1.222,1.531,1.893,2.303
	C88.042,174.396,86.981,174.465,85.919,174.516 M92.128,174.179c-1.087-1.251-2.498-2.366-3.541-3.519
	c-0.586-0.652-1.134-1.332-1.688-2.007c1.288,0.003,2.574-0.047,3.83-0.183c0.986,1.106,1.978,2.205,2.964,3.304
	c0.624,0.699,1.254,1.465,1.906,2.211C94.443,174.047,93.284,174.119,92.128,174.179 M98.494,173.829
	c-1.065-1.222-2.353-2.318-3.452-3.399c-0.775-0.762-1.562-1.509-2.337-2.274c0.35-0.069,0.702-0.135,1.046-0.23
	c0.491,0.428,1.323,0.356,1.799-0.154c1.21,1.377,2.52,2.678,3.812,3.944c0.661,0.652,1.342,1.307,2.038,1.956
	C100.428,173.722,99.461,173.779,98.494,173.829 M104.775,173.486c-1.329-1.068-2.69-2.107-3.988-3.197
	c-1.644-1.386-3.185-2.889-4.782-4.322c0.151-1.54,0.271-3.084,0.409-4.627c2.989,3.645,6.017,7.56,9.601,10.477
	c0.022,0.532,0.032,1.068,0.054,1.6C105.638,173.442,105.207,173.461,104.775,173.486 M106.104,86.319
	c-2.17-1.638-4.627-2.996-6.687-4.649c-0.151-0.12-0.315-0.088-0.447-0.009c0.003-2.259,0-4.514,0.003-6.772
	c1.276,1.304,2.684,2.52,3.982,3.764c1.011,0.97,2.06,2.092,3.229,2.974C106.158,83.191,106.133,84.754,106.104,86.319
	 M106.24,78.305c-0.737-0.646-1.499-1.254-2.161-1.849c-1.67-1.49-3.289-3.134-5.106-4.445c0-2.221,0-4.438,0-6.659
	c1.332,1.559,2.763,3.059,4.171,4.542c1.036,1.093,2.057,2.221,3.178,3.232C106.293,74.853,106.268,76.579,106.24,78.305
	 M106.363,70.475c-0.658-0.611-1.329-1.206-1.991-1.808c-1.761-1.6-3.525-3.257-5.399-4.722c0-2.092,0-4.183,0-6.272
	c1.629,3.267,4.227,6.886,7.45,8.612C106.401,67.681,106.385,69.079,106.363,70.475 M106.467,63.233
	c-0.838-0.605-1.666-1.225-2.4-1.962c-1.758-1.773-3.109-3.843-4.145-6.105c-0.183-0.397-0.573-0.507-0.948-0.441
	c0.003-2.293,0.009-4.586,0.013-6.88c0.932,1.269,1.836,2.558,2.826,3.78c1.421,1.764,2.911,3.739,4.738,5.147
	C106.52,58.927,106.498,61.078,106.467,63.233 M106.583,54.003c-1.017-0.983-2.098-1.915-3.071-2.917
	c-1.625-1.666-3.106-3.427-4.523-5.257c0.003-1.629,0.022-3.254,0.028-4.882c0.929,1.238,1.881,2.463,2.879,3.648
	c1.392,1.654,2.911,3.736,4.719,5.112C106.599,51.14,106.599,52.57,106.583,54.003 M106.64,46.043
	c-0.945-0.942-1.944-1.84-2.788-2.766c-1.663-1.821-3.263-3.686-4.816-5.594c0.003-0.942,0.016-1.887,0.022-2.829
	c0.684,0.898,1.37,1.792,2.098,2.652c1.61,1.899,3.355,4.205,5.497,5.598C106.646,44.084,106.649,45.064,106.64,46.043
	 M106.668,39.743c-1.093-1.084-2.274-2.104-3.301-3.197c-1.506-1.597-2.917-3.276-4.281-4.993c0.006-0.98,0.022-1.962,0.028-2.942
	c0.435,0.548,0.854,1.109,1.31,1.638c1.638,1.903,3.547,4.152,5.897,5.163c0.113,0.047,0.236,0.06,0.359,0.06
	C106.675,36.896,106.678,38.319,106.668,39.743 M106.684,33.33c-1.279-1.455-2.863-2.674-4.23-4.035
	c-1.178-1.172-2.259-2.416-3.308-3.692c0.013-1.443,0.035-2.889,0.05-4.334c1.125,1.222,2.249,2.448,3.383,3.66
	c1.213,1.295,2.466,3.185,4.108,4.026C106.684,30.413,106.69,31.871,106.684,33.33 M104.208,23.3
	c-1.651-1.566-3.301-3.134-4.98-4.668c0.028-2.07,0.079-4.139,0.117-6.209c1.033,1.323,2.174,2.583,3.241,3.865
	c1.31,1.584,2.574,3.399,4.07,4.857c0.006,1.452,0.031,2.898,0.031,4.35C105.871,24.708,104.942,23.996,104.208,23.3"/>
</svg>
