<?xml version="1.0" encoding="utf-8"?>
<!-- Generator: Adobe Illustrator 17.0.0, SVG Export Plug-In . SVG Version: 6.00 Build 0)  -->
<!DOCTYPE svg PUBLIC "-//W3C//DTD SVG 1.1//EN" "http://www.w3.org/Graphics/SVG/1.1/DTD/svg11.dtd">
<svg version="1.1" id="Слой_1" xmlns="http://www.w3.org/2000/svg" xmlns:xlink="http://www.w3.org/1999/xlink" x="0px" y="0px"
	 width="109.048px" height="181px" viewBox="0 0 109.048 181" enable-background="new 0 0 109.048 181" xml:space="preserve">
<path fill="#B17169" d="M90.052,84.445c-8.971-10.634-23.49-15.772-38.276-14.008c0.167-0.507,0.356-1.024,0.558-1.543
	c0.435-0.079,0.671-0.583,0.41-1.024c5.32-12.606,20.113-28.281,34.335-23.568c1.767,0.586,2.646-1.72,1.556-2.81
	c0.435-7.673,0.866-16.141-0.12-23.691c-0.123-0.942-1.203-1.521-1.953-1.244c-5.207-2.495-10.067-5.229-14.994-8.247
	c-0.835-0.51-1.745,0.224-1.799,1.021c-0.154,0.151-0.283,0.34-0.356,0.598c-0.838,3.043-0.135,6.454,0.274,9.551
	c0.41,3.109,0.819,6.473,2.259,9.299c-0.107,0-0.205-0.022-0.321-0.003c-19.354,3.2-38.298,27.673-35.097,47.241
	c0.101,0.614,0.649,0.838,1.166,0.759c0.343,0.491,0.932,0.753,1.685,0.438c15.479-6.476,33.519-5.676,45.962,6.697
	c12.165,12.099,12.077,30.224,7.938,45.826c-0.583,2.202-1.288,4.385-2.092,6.53c-0.444,0.088-0.772,0.608-0.375,0.995
	c-4.457,11.353-12.077,21.436-23.423,26.621c-13.094,5.982-32.832,8.36-45.631,0.369c-13.63-8.511-17.082-29.273-18.109-43.946
	C2.501,103.953,5.05,87.501,9.592,71.81c8.247-28.485,23.823-63.671,58.877-61.734c1.317,0.072,1.607-2.016,0.312-2.309
	C41.486,1.597,22.992,27.761,13.87,49.597c-12.345,29.55-19.064,63.967-8.952,95.174c2.249,6.939,5.364,13.365,10.225,18.242
	c20.28,24.406,62.509,18.686,81.487-4.183C115.026,136.669,113.107,102.419,90.052,84.445 M85.926,40.528
	c-1.865-1.827-4.108-3.389-6.07-5.027c-2.139-1.78-4.262-3.588-6.432-5.33c-0.009-0.164-0.035-0.328-0.094-0.479
	c0.145-0.085,0.268-0.205,0.299-0.403c0.12-0.759,0.17-1.525,0.18-2.293c1.31,1.269,2.636,2.523,3.953,3.78
	c1.836,1.755,3.638,4.038,5.906,5.201c0.661,0.34,1.54-0.378,1.08-1.08c-1.389-2.133-3.834-3.698-5.768-5.336
	c-1.739-1.477-3.471-2.967-5.238-4.413c-0.113-1.808-0.362-3.623-0.532-5.409c-0.022-0.243-0.032-0.491-0.047-0.737
	c1.206,1.77,3.049,3.304,4.514,4.703c2.155,2.051,4.514,4.555,7.179,5.916c0.069,0.035,0.139,0.041,0.211,0.063
	c0.088,3.679,0.416,7.365,0.863,10.845H85.926z M85.532,19.675c-0.299,2.233-0.441,4.555-0.479,6.905
	c-1.849-1.566-3.975-2.892-5.827-4.429c-1.947-1.616-3.884-3.96-6.174-5.075c-0.066-1.6-0.123-3.229-0.387-4.782
	C76.548,15.35,81.021,17.901,85.532,19.675 M72.412,31.629c0.019-0.006,0.032-0.022,0.05-0.031c2.085,1.959,4.23,3.862,6.347,5.78
	c0.961,0.873,1.915,1.821,2.889,2.75c-1.581,0.022-3.163,0.221-4.735,0.589c-1.165-1.125-2.523-2.076-3.777-3.074
	c-1.717-1.367-3.437-2.734-5.157-4.101C69.47,32.835,70.929,32.187,72.412,31.629 M66.257,34.455
	c1.83,1.544,3.663,3.087,5.494,4.627c0.895,0.756,1.789,1.588,2.728,2.353c-1.103,0.378-2.199,0.822-3.273,1.342
	c-1.055-1.125-2.454-1.966-3.679-2.87c-1.572-1.159-3.144-2.315-4.715-3.474C63.942,35.73,65.095,35.078,66.257,34.455
	 M61.668,37.145c1.588,1.399,3.172,2.794,4.756,4.19c0.923,0.813,1.83,1.723,2.832,2.466c-1.301,0.74-2.58,1.547-3.808,2.46
	c-1.099-1.09-2.47-1.956-3.689-2.87c-1.443-1.084-2.914-2.129-4.385-3.182C58.757,39.117,60.2,38.109,61.668,37.145 M56.073,41.274
	c1.471,1.254,2.942,2.507,4.445,3.726c1.058,0.86,2.098,1.818,3.245,2.583c-1.172,0.973-2.3,2.003-3.367,3.1
	c-1.09-0.869-2.337-1.606-3.437-2.381c-1.613-1.131-3.232-2.255-4.854-3.377C53.364,43.643,54.697,42.43,56.073,41.274
	 M51.125,45.924c1.578,1.266,3.163,2.526,4.753,3.78c0.999,0.787,2.016,1.726,3.1,2.504c-0.876,0.992-1.714,2.01-2.489,3.062
	c-1.213-1.156-2.863-1.994-4.202-2.952c-1.377-0.986-2.7-2.038-4.001-3.119C49.181,48.069,50.136,46.982,51.125,45.924
	 M47.386,50.315c1.257,1.153,2.536,2.277,3.871,3.339c1.295,1.033,2.69,2.303,4.249,2.996c-0.895,1.32-1.714,2.668-2.422,4.038
	c-2.558-2.259-5.38-4.221-8.108-6.262c-0.104-0.076-0.211-0.082-0.312-0.066C45.496,52.967,46.412,51.622,47.386,50.315
	 M38.714,73.852c0.085-2.917,0.545-5.746,1.263-8.489c0.885,1.591,2.633,2.772,4.026,3.909c0.863,0.706,1.751,1.405,2.655,2.073
	C43.99,71.952,41.331,72.774,38.714,73.852 M49.868,70.717c-0.283,0.044-0.57,0.11-0.854,0.161c-1.342-0.961-2.734-1.852-4.06-2.841
	c-1.418-1.055-2.785-2.548-4.413-3.257c-0.148-0.063-0.296-0.032-0.416,0.035c0.419-1.506,0.945-2.974,1.531-4.419
	c1.616,1.408,3.238,2.807,4.876,4.193c1.244,1.052,2.473,2.296,3.824,3.285C50.129,68.83,49.966,69.782,49.868,70.717
	 M47.386,63.479c-1.777-1.345-3.566-2.674-5.364-3.994c0.658-1.528,1.414-3.011,2.246-4.457c0.025,0.066,0.025,0.142,0.091,0.195
	c2.662,2.296,5.26,4.7,8.121,6.75c-0.633,1.351-1.194,2.706-1.616,4.06C49.732,65.129,48.491,64.313,47.386,63.479 M104.857,116.443
	c-0.816-0.658-1.66-1.295-2.435-1.978c-1.162-1.021-2.262-2.114-3.361-3.204c0.003-0.696,0.028-1.399,0.013-2.088
	c-0.022-0.75-0.085-1.471-0.139-2.199c1.436,1.55,3.008,3.049,4.709,4.224C104.145,112.93,104.552,114.679,104.857,116.443
	 M99.014,113.976c0.715,0.734,1.399,1.499,2.145,2.205c1.288,1.213,2.615,2.539,4.142,3.465c0.135,1.254,0.233,2.507,0.271,3.767
	c-0.832-0.728-1.72-1.402-2.533-2.092c-1.421-1.213-2.844-2.426-4.265-3.638C98.888,116.446,98.961,115.211,99.014,113.976
	 M102.438,107.575c-0.113-0.095-0.23-0.186-0.34-0.28c-1.181-1.021-2.331-2.082-3.468-3.15c-0.362-2.589-0.92-5.062-1.698-7.387
	C99.219,100.189,101.049,103.824,102.438,107.575 M35.359,172.047c3.512,0.419,7.113,0.45,10.694,0.189
	c1.162,0.639,2.325,1.288,3.496,1.918c0.485,0.261,0.973,0.548,1.468,0.835C45.751,174.708,40.478,173.716,35.359,172.047
	 M55.069,175.055c-1.414-0.989-3.125-1.635-4.656-2.381c-0.501-0.246-1.008-0.479-1.512-0.725c1.361-0.158,2.709-0.359,4.051-0.589
	c1.632,1.216,3.411,2.504,5.26,3.541C57.166,174.979,56.118,175.036,55.069,175.055 M62.068,174.472
	c-1.424-0.747-2.986-1.31-4.401-2.038c-0.91-0.466-1.802-0.961-2.684-1.474c1.755-0.353,3.474-0.772,5.166-1.225
	c1.08,0.728,2.164,1.455,3.244,2.186c0.888,0.595,1.764,1.247,2.69,1.792C64.755,174.015,63.416,174.274,62.068,174.472
	 M68.465,173.077c-0.009-0.009-0.013-0.022-0.022-0.028c-1.178-1.147-2.731-1.855-4.145-2.674l-2.123-1.229
	c0.532-0.161,1.087-0.299,1.61-0.469c0.813-0.265,1.575-0.605,2.359-0.914l2.819,2.237c0.863,0.687,1.745,1.622,2.785,2.044
	C70.664,172.425,69.568,172.771,68.465,173.077 M73.332,171.432c-0.003-0.025,0.006-0.047-0.003-0.069
	c-0.576-1.386-2.073-1.966-3.295-2.75c-0.762-0.491-1.525-0.98-2.287-1.471c1.521-0.665,2.974-1.43,4.382-2.249
	c0.898,0.97,1.852,1.89,2.867,2.718c0.762,0.621,1.613,1.389,2.529,1.953C76.145,170.245,74.753,170.881,73.332,171.432
	 M79.815,168.358c-0.98-0.873-2.315-1.414-3.393-2.148c-1.008-0.684-1.921-1.455-2.826-2.243c1.348-0.86,2.624-1.808,3.865-2.794
	c0.907,1.137,1.966,2.164,3.115,3.052c0.775,0.602,1.783,1.455,2.829,1.918C82.231,166.937,81.031,167.674,79.815,168.358
	 M85.23,164.798c-0.901-0.851-2.422-1.279-3.456-1.915c-1.203-0.74-2.246-1.641-3.298-2.561c1.323-1.115,2.558-2.328,3.749-3.578
	c0.913,1.08,1.865,2.117,2.898,3.087c0.942,0.885,1.953,1.903,3.109,2.555C87.249,163.23,86.254,164.042,85.23,164.798
	 M93.165,157.553c-1.159,1.317-2.372,2.533-3.616,3.676c-1.049-1.096-2.555-1.877-3.726-2.832c-0.967-0.791-1.887-1.638-2.791-2.501
	c1.345-1.477,2.596-3.04,3.771-4.668c0.951,0.816,1.912,1.622,2.863,2.435c1.266,1.084,2.542,2.432,4.026,3.245
	C93.508,157.122,93.35,157.342,93.165,157.553 M94.784,155.559c-1.153-1.323-2.74-2.331-4.104-3.396
	c-0.983-0.765-1.959-1.54-2.942-2.303c0.794-1.175,1.515-2.403,2.227-3.638c2.236,2.173,4.605,4.47,7.226,6.07
	C96.437,153.399,95.641,154.488,94.784,155.559 M98.154,150.759c-1.162-1.002-2.444-1.865-3.66-2.803
	c-1.282-0.986-2.526-2.019-3.771-3.052c0.951-1.755,1.792-3.578,2.583-5.427c0.932,0.825,1.874,1.641,2.8,2.473
	c1.471,1.32,2.942,3.021,4.703,3.956C100.016,147.546,99.153,149.171,98.154,150.759 M101.547,144.377
	c-1.216-1.37-2.895-2.444-4.309-3.56c-1.131-0.895-2.249-1.802-3.371-2.706c0.696-1.736,1.304-3.509,1.862-5.301
	c1.112,0.948,2.227,1.896,3.339,2.844c1.361,1.159,2.668,2.504,4.256,3.339c0.069,0.035,0.132,0.047,0.195,0.063
	C102.967,140.849,102.322,142.629,101.547,144.377 M103.988,137.415c-1.118-1.206-2.561-2.142-3.859-3.137
	c-1.307-0.999-2.614-2-3.922-3.002c0.353-1.219,0.627-2.46,0.914-3.695c1.134,0.964,2.268,1.931,3.402,2.898
	c1.351,1.153,2.674,2.542,4.249,3.38c0.003,0.003,0.006,0,0.013,0.003C104.558,135.053,104.306,136.237,103.988,137.415
	 M105.147,131.708c-1.062-1.002-2.35-1.833-3.49-2.703c-1.37-1.046-2.741-2.092-4.111-3.141c0.422-2.032,0.728-4.079,0.98-6.124
	c1.055,0.977,2.111,1.953,3.166,2.93c1.238,1.15,2.466,2.507,3.884,3.484C105.528,128.01,105.409,129.862,105.147,131.708"/>
<path fill="#B17169" d="M49.725,93.218c-0.151,0.044-0.271,0.113-0.381,0.189c-14.928-0.558-27.94,8.521-29.15,24.561
	c-1.288,17.105,9.415,32.555,27.6,32.691c15.551,0.117,28.618-13.29,30.231-28.378C79.685,106.732,66.955,88.222,49.725,93.218
	 M71.583,108.918c-0.343-0.18-0.706-0.321-1.055-0.491c0.063-0.22,0.041-0.466-0.142-0.712c-1.855-2.454-4.671-4.237-6.999-6.237
	c-1.619-1.395-3.182-2.851-4.76-4.293C64.927,99.367,69.211,103.67,71.583,108.918 M53.911,96.022c0.032,0,0.054-0.019,0.085-0.022
	c0.548,0.085,1.046,0.227,1.572,0.337c2.092,2.227,4.208,4.429,6.391,6.568c1.143,1.121,2.309,2.385,3.55,3.544
	c-2.047-0.611-4.142-1.024-6.237-1.203c-3.175-3.005-6.684-5.717-9.891-8.71C50.868,96.33,52.374,96.151,53.911,96.022
	 M47.457,96.815c2.592,2.785,5.32,5.818,8.319,8.376c-1.285,0.057-2.564,0.18-3.815,0.435c-1.383-1.238-3.062-2.24-4.523-3.301
	c-1.944-1.405-3.881-2.819-5.815-4.234C43.491,97.568,45.444,97.149,47.457,96.815 M40.121,98.485
	c0.009,0.006,0.009,0.016,0.019,0.022c2.114,1.685,4.224,3.377,6.328,5.075c1.046,0.844,2.098,1.796,3.2,2.652
	c-1.326,0.419-2.621,0.951-3.862,1.635c-1.499-1.062-3.153-2-4.542-3.106c-1.833-1.455-3.534-3.049-5.175-4.716
	C37.367,99.449,38.716,98.932,40.121,98.485 M34.662,100.775c1.858,2.079,3.821,4.054,5.957,5.853
	c0.973,0.819,2.007,1.751,3.106,2.57c-0.854,0.611-1.685,1.279-2.47,2.048c-1.301-0.923-2.684-1.755-3.963-2.662
	c-2.281-1.619-4.495-3.32-6.669-5.078C31.839,102.451,33.206,101.562,34.662,100.775 M29.486,104.568
	c2.076,1.818,4.189,3.588,6.372,5.279c1.285,0.992,2.592,2.057,3.972,2.983c-0.926,1.137-1.732,2.337-2.347,3.619
	c-1.367-1.178-3.005-2.136-4.445-3.131c-2.211-1.525-4.47-2.974-6.754-4.385C27.165,107.277,28.245,105.834,29.486,104.568
	 M25.719,110.058c2.054,1.433,4.098,2.885,6.102,4.388c1.607,1.206,3.163,2.725,4.898,3.812c-0.52,1.446-0.879,2.958-1.09,4.504
	c-1.66-1.087-3.424-2.054-5.075-3.125c-2.186-1.417-4.325-2.904-6.442-4.419C24.474,113.312,25.023,111.608,25.719,110.058
	 M23.574,119.914c0.035-1.055,0.126-2.054,0.246-3.018c3.619,2.977,7.481,6.193,11.598,8.256c-0.063,1.503-0.016,3.024,0.148,4.549
	c-1.824-1.247-3.956-2.211-5.812-3.295c-2.013-1.172-4-2.589-6.12-3.604C23.574,121.848,23.542,120.888,23.574,119.914
	 M23.769,124.46c1.619,1.26,3.456,2.328,5.119,3.424c2.202,1.455,4.511,3.257,7.012,4.171c0.208,1.181,0.469,2.359,0.787,3.522
	c-1.887-0.936-3.934-1.685-5.724-2.715c-2.243-1.292-4.369-2.772-6.432-4.334C24.185,127.207,23.93,125.846,23.769,124.46
	 M37.015,144.617c0.586,0.274,1.178,0.513,1.78,0.671c0.658,0.176,1.206-0.684,0.684-1.169c-1.988-1.859-4.731-3.015-6.977-4.571
	c-1.682-1.172-3.282-2.441-4.883-3.711c-0.989-1.616-1.802-3.364-2.441-5.197c1.575,1.307,3.204,2.548,4.946,3.66
	c2.221,1.417,4.731,3.128,7.355,3.84c1.002,2.914,2.296,5.676,3.758,8.111C39.746,145.839,38.341,145.284,37.015,144.617
	 M47.794,147.171c-1.688-0.009-3.295-0.195-4.838-0.501c-3.276-8.984-7.261-21.555-1.805-30.218
	c0.479-0.759,0.989-1.449,1.525-2.085c0.529,0.104,0.923-0.428,0.891-0.929c0.995-1.017,2.069-1.849,3.207-2.523
	c0.104,0.038,0.202,0.085,0.306,0.117c0.592,0.183,1.03-0.306,1.043-0.816c7.62-3.572,17.508-0.791,24.992,3.207
	C76.657,128.366,67.302,147.269,47.794,147.171"/>
</svg>
