<?xml version="1.0" encoding="utf-8"?>
<!-- Generator: Adobe Illustrator 17.0.0, SVG Export Plug-In . SVG Version: 6.00 Build 0)  -->
<!DOCTYPE svg PUBLIC "-//W3C//DTD SVG 1.1//EN" "http://www.w3.org/Graphics/SVG/1.1/DTD/svg11.dtd">
<svg version="1.1" id="Слой_1" xmlns="http://www.w3.org/2000/svg" xmlns:xlink="http://www.w3.org/1999/xlink" x="0px" y="0px"
	 width="126.395px" height="181px" viewBox="0 0 126.395 181" enable-background="new 0 0 126.395 181" xml:space="preserve">
<path fill="#B17169" d="M126.235,108.85c-0.271-0.419-0.605-0.797-0.948-1.172c-2.101-21.527-14.569-41.986-35.595-50.636
	c8.266-6.924,13.775-17.505,10.754-28.495C96.978,15.925,84.255,7.892,72.729,3.646c-0.551-0.202-1.005,0.009-1.282,0.378
	C64.816,1.29,57.052,0.795,49.391,1.636C20.461,4.815,14.363,44.007,39.32,55.561C13.04,56.566,1.552,90.473,0.185,112.68
	c-0.929,15.085,1.421,31.465,12.304,42.834c1.991,2.082,4.186,3.808,6.521,5.26c11.712,11.97,31.635,15.917,47.619,15.227
	c18.736-0.81,36.729-10.76,47.719-25.912c8.417-11.608,11.951-25.855,11.129-39.832C126.125,110.173,126.679,109.537,126.235,108.85
	 M120.726,97.642c0.81,2.52,1.468,5.081,1.925,7.68c-0.684-0.529-1.367-1.049-2-1.572c-2.123-1.755-4.243-3.509-6.366-5.264
	c-0.892-0.737-2.177,0.488-1.295,1.295l6.086,5.544c1.317,1.2,2.63,2.671,4.108,3.786c0.164,1.566,0.287,3.134,0.312,4.709
	c-0.041-0.091-0.091-0.176-0.161-0.255c-1.323-1.499-3.389-2.476-4.999-3.667c-1.767-1.304-3.348-2.854-5.134-4.12
	c-0.013-0.009-0.028,0-0.041-0.009c-0.548-4.779-1.521-9.705-2.911-14.556c2.895,2.715,6.363,5.424,9.954,6.42
	C120.401,97.689,120.571,97.677,120.726,97.642 M119.806,94.993c-1.496-0.951-3.131-1.732-4.602-2.722
	c-2.016-1.358-3.922-2.873-5.733-4.498c-0.113-0.101-0.236-0.17-0.359-0.211c-0.876-2.611-1.89-5.172-3.015-7.667
	c0,0.003,0,0.006,0.003,0.006c2.895,2.889,6.618,6.013,10.43,7.884C117.765,90.136,118.886,92.533,119.806,94.993 M108.86,76.276
	c2.019,2.463,3.868,5.04,5.513,7.721c-0.435-0.265-0.866-0.529-1.288-0.81c-2.098-1.392-4.07-2.945-6.108-4.423
	c-0.539-0.387-1.121,0.198-1.058,0.743c-1.156-2.52-2.463-4.936-3.878-7.254C104.28,73.642,106.535,75.041,108.86,76.276
	 M105.032,71.985c-1.506-0.769-3.015-1.525-4.498-2.303c-0.072-0.038-0.145-0.054-0.214-0.066c-1.339-1.95-2.747-3.827-4.293-5.541
	C99.274,66.47,102.276,69.131,105.032,71.985 M89.711,53.659c-0.072-0.107-0.164-0.205-0.293-0.274
	c-2.003-1.065-4.293-1.55-6.372-2.476c-1.421-0.636-2.775-1.392-4.111-2.18c1.03-0.958,1.981-1.981,2.857-3.062
	c3.229,1.887,6.703,4.051,10.175,4.955c0.05,0.016,0.098-0.016,0.148-0.016C91.365,51.658,90.561,52.679,89.711,53.659
	 M88.416,55.086c-0.337,0.353-0.668,0.712-1.014,1.052c-0.044-0.016-0.085-0.035-0.129-0.05c-0.296-0.107-0.564-0.063-0.784,0.066
	c-3.493-2.073-7.327-3.572-11.52-4.319c0.816-0.535,1.594-1.118,2.35-1.726C80.522,52.424,84.595,54.711,88.416,55.086
	 M92.82,49.567c-0.038-0.069-0.041-0.148-0.117-0.208c-2.75-2.205-6.435-3.698-9.815-5.144c0.646-0.907,1.235-1.849,1.77-2.819
	c3.118,2.066,6.228,4.18,9.497,5.976C93.736,48.115,93.296,48.852,92.82,49.567 M95.724,25.803c0.517,1.109,0.958,2.221,1.266,3.336
	c-2.955-1.944-6.212-3.563-9.346-5.201c-0.268-1.543-0.68-3.084-1.254-4.608C89.131,21.888,92.35,24.534,95.724,25.803
	 M94.852,46.077c-3.033-2.196-6.281-4.108-9.488-6.051c0.485-1.002,0.891-2.038,1.251-3.087c3.207,1.859,6.476,3.78,9.866,5.191
	C96.027,43.468,95.504,44.791,94.852,46.077 M97.041,40.268c-3.1-1.937-6.561-3.5-9.897-5.056c0.41-1.506,0.677-3.046,0.816-4.605
	c3.118,2.158,6.3,4.675,9.658,6.426C97.494,38.12,97.315,39.2,97.041,40.268 M97.746,35.042c-3.046-2.174-6.533-3.95-9.708-5.843
	c0.035-1.033,0-2.073-0.091-3.112c3.09,1.978,6.231,3.991,9.544,5.468C97.665,32.721,97.772,33.886,97.746,35.042 M94.25,23.113
	c-1.061-0.551-2.136-1.084-3.144-1.707c-1.934-1.197-3.764-2.539-5.519-3.985c-0.901-1.887-1.947-3.566-3.109-5.078
	C87.036,15.194,91.245,18.461,94.25,23.113 M14.942,153.06c-9.831-10.052-11.951-25.15-11.318-38.575
	C4.907,87.301,16.193,62.413,45.34,58.031c1.065-0.161,1.074-2.003,0-2.158c-0.072-0.009-0.142-0.013-0.211-0.022
	c-0.06-0.063-0.117-0.129-0.198-0.18c-9.636-6.026-18.27-14.251-18.125-26.536c0.161-13.945,10.896-23.039,24.17-24.107
	c11.283-0.91,23.045,0.866,29.645,11.233c7.894,12.402,1.918,27.046-10.234,33.762c-1.714,0.948-0.898,3.128,0.589,3.509
	c0.145,0.4,0.435,0.728,0.936,0.813c26.602,4.482,38.748,37.992,38.191,61.803c-0.044,1.909-0.176,3.771-0.378,5.591
	c-0.315,0.261-0.438,0.696-0.126,1.077c-1.786,13.873-8.322,25.005-21.256,32.448c-10.71,6.161-23.209,8.77-35.466,9.018
	C39.547,164.558,24.736,163.08,14.942,153.06 M27.164,164.583c3.758,1.276,7.718,2.073,11.728,2.545
	c1.276,1.074,2.548,2.148,3.818,3.232c0.514,0.438,1.027,0.898,1.547,1.351C38.193,170.332,32.4,167.994,27.164,164.583
	 M47.425,172.338c-1.197-1.125-2.621-2.038-3.934-2.992c-0.932-0.674-1.862-1.358-2.788-2.038c1.499,0.142,3.002,0.224,4.501,0.293
	c1.846,1.871,3.925,3.755,6.199,5.257C50.071,172.719,48.742,172.562,47.425,172.338 M55.086,173.11
	c-2.781-1.732-5.525-3.352-8.061-5.446c1.402,0.038,2.8,0.069,4.186,0.06c0.485-0.006,0.973-0.022,1.458-0.035
	c2.315,2.019,5.005,4.183,7.916,5.409C58.749,173.17,56.913,173.192,55.086,173.11 M62.712,172.99
	c-0.019-0.161-0.082-0.315-0.243-0.419c-2.646-1.723-5.412-3.09-7.966-4.939c1.616-0.069,3.226-0.186,4.829-0.337
	c1.597,0.964,3.175,1.956,4.709,3.021c0.995,0.693,1.953,1.484,2.933,2.236C65.553,172.738,64.133,172.892,62.712,172.99
	 M69.781,172.124c-1.399-1.125-3.056-2-4.571-2.882c-1.301-0.759-2.624-1.468-3.96-2.151c2.161-0.252,4.303-0.589,6.417-0.995
	c1.087,0.832,2.174,1.663,3.26,2.495c1.131,0.863,2.268,1.874,3.544,2.551C72.918,171.516,71.356,171.856,69.781,172.124
	 M76.38,170.675c-0.022-0.148-0.072-0.29-0.167-0.41c-1.121-1.373-2.92-2.249-4.401-3.191c-0.725-0.463-1.449-0.923-2.174-1.386
	c1.562-0.34,3.1-0.734,4.621-1.162c1.131,1.062,2.293,2.088,3.518,3.046c0.769,0.595,1.61,1.399,2.529,1.912
	C79.01,169.913,77.703,170.319,76.38,170.675 M82.557,168.709c-0.769-1.229-2.441-1.859-3.619-2.64
	c-0.989-0.661-1.944-1.367-2.879-2.098c1.71-0.529,3.377-1.14,5.021-1.786c1.178,1.065,2.403,2.088,3.641,3.074
	c0.718,0.573,1.433,1.156,2.18,1.685C85.471,167.575,84.025,168.171,82.557,168.709 M89.465,165.723
	c-1.109-0.948-2.394-1.72-3.563-2.564c-0.85-0.617-1.682-1.26-2.511-1.906c1.726-0.756,3.396-1.597,5.021-2.488
	c1.537,1.657,3.336,3.6,5.383,4.637C92.379,164.217,90.939,165.002,89.465,165.723 M95.627,162.302
	c-0.025-0.038-0.041-0.079-0.069-0.113c-0.869-1.005-2.054-1.679-3.087-2.504c-0.775-0.617-1.496-1.298-2.221-1.975
	c1.484-0.888,2.914-1.843,4.29-2.857l1.997,1.887c0.885,0.838,1.723,1.862,2.911,2.243c0.847,0.271,1.405-0.696,1.071-1.395
	c-0.514-1.074-1.704-1.78-2.611-2.514c-0.595-0.479-1.191-0.958-1.786-1.44c1.241-0.986,2.432-2.032,3.569-3.128
	c0.743,0.753,1.481,1.518,2.243,2.259c0.917,0.895,1.833,1.95,2.933,2.652C102.015,157.958,98.921,160.267,95.627,162.302
	 M106.415,153.992c-0.857-1.143-2.104-2.019-3.181-2.923c-0.75-0.63-1.521-1.232-2.281-1.846c1.266-1.323,2.425-2.747,3.531-4.221
	c0.658,0.74,1.351,1.458,2.032,2.177c0.999,1.058,1.953,2.218,3.103,3.118c0.069,0.057,0.145,0.079,0.217,0.117
	C108.746,151.649,107.612,152.849,106.415,153.992 M111.143,148.883c-0.016-0.025-0.022-0.047-0.041-0.072
	c-0.901-1.147-2.06-2.101-3.118-3.1c-0.784-0.743-1.566-1.506-2.388-2.214c0.772-1.125,1.477-2.306,2.148-3.512
	c0.781,0.658,1.566,1.32,2.347,1.981c1.232,1.04,2.495,2.356,3.972,3.037C113.156,146.341,112.173,147.629,111.143,148.883
	 M115.22,143.194c-0.983-1.118-2.281-1.969-3.468-2.857c-0.999-0.747-2-1.493-2.999-2.24c0.97-1.959,1.764-4.06,2.467-6.231
	c1.099,1.32,2.24,2.599,3.437,3.837c0.961,0.999,1.937,2.164,3.09,2.996C116.98,140.208,116.152,141.707,115.22,143.194
	 M118.896,136.296c-0.917-0.857-1.981-1.619-2.863-2.407c-1.43-1.276-2.813-2.605-4.212-3.915c0.378-1.358,0.69-2.766,0.961-4.202
	c0.942,0.863,1.881,1.726,2.822,2.586c1.462,1.339,2.996,3.21,4.867,3.997C119.998,133.672,119.485,134.989,118.896,136.296
	 M121.227,130.09c-1.178-1.402-3.024-2.523-4.36-3.594c-1.238-0.992-2.476-1.984-3.717-2.977c0.183-1.291,0.337-2.605,0.428-3.963
	c0.025-0.406,0.031-0.832,0.05-1.247c1.112,1.03,2.221,2.063,3.348,3.078c1.295,1.169,2.681,2.866,4.419,3.304
	c0.602,0.151,1.408-0.447,1.125-1.125c-0.718-1.707-2.429-2.747-3.827-3.9c-1.641-1.354-3.289-2.693-4.958-4.016
	c-0.009-0.006-0.019-0.009-0.028-0.016c0.019-2.485-0.104-5.075-0.343-7.714c1.143,1.285,2.479,2.441,3.755,3.553
	c1.543,1.348,3.301,3.068,5.27,3.714c0.551,0.183,0.964-0.145,1.118-0.58C123.517,119.749,122.817,124.943,121.227,130.09"/>
<path fill="#B17169" d="M69.382,26.601c-1.115-6.864-8.738-12.294-15.551-9.875c-0.23,0.082-0.41,0.22-0.567,0.384
	c-6.691,0.627-11.674,7.393-10.609,14.103c1.162,7.333,8.313,12.515,15.649,11.028C65.3,40.821,70.547,33.765,69.382,26.601
	 M65.646,26.079c-0.687-0.441-1.433-0.743-2.202-0.986c0.214-0.214,0.302-0.529,0.063-0.86c-1.169-1.632-2.69-2.967-4.331-4.145
	C62.131,20.862,64.651,22.743,65.646,26.079 M53.544,19.643c0.195,0.082,0.419,0.132,0.693,0.101
	c0.595-0.066,1.191-0.094,1.786-0.088c2.013,1.578,3.815,3.364,5.736,5.056c-1.143-0.151-2.312-0.132-3.446,0.098
	c-1.484-1.849-3.462-3.402-5.478-4.785C53.074,19.905,53.298,19.75,53.544,19.643 M51.506,20.742c1.676,1.531,3.273,3.15,4.98,4.627
	c-0.74,0.296-1.452,0.658-2.098,1.121c-0.832-0.756-1.789-1.43-2.586-2.092c-0.81-0.671-1.616-1.358-2.432-2.035
	C50.019,21.76,50.743,21.224,51.506,20.742 M46.321,27.313c0.46,0.438,0.923,0.873,1.417,1.276c1.005,0.828,2.117,1.868,3.433,2.114
	c-0.353,0.948-0.557,1.94-0.598,2.942c-1.002-0.677-2.12-1.184-3.119-1.877c-0.432-0.299-0.832-0.643-1.232-0.986
	C45.999,29.553,46.063,28.4,46.321,27.313 M47.316,33.85c0.898,0.602,1.862,1.062,2.86,1.266c0.167,0.032,0.306-0.009,0.435-0.06
	c0.094,0.92,0.306,1.833,0.652,2.706C49.625,36.877,48.249,35.522,47.316,33.85 M51.783,29.418c-0.832-0.898-2.06-1.421-3.055-2.111
	c-0.658-0.457-1.288-0.948-1.9-1.465c0.365-0.825,0.863-1.588,1.443-2.296c0.873,0.885,1.764,1.758,2.637,2.633
	c0.595,0.598,1.178,1.266,1.811,1.865C52.359,28.482,52.048,28.942,51.783,29.418 M58.83,38.449
	c-1.603,0.523-3.216,0.592-4.735,0.312c-1.329-2.892-1.074-6.64,1.222-8.99c2.489-2.548,6.287-2.627,9.283-1.033
	c0.523,0.277,0.995,0.214,1.364-0.009C65.885,32.983,62.874,37.129,58.83,38.449"/>
<path fill="#B17169" d="M58.903,67.681c-0.564,0.031-0.942,0.302-1.178,0.661c-42.575-6.171-51.128,78.523-4.848,80.668
	c9.551,0.441,21.833-1.269,29.55-7.387c7.803-6.187,9.929-16.667,10.049-26.148C92.705,97.19,81.286,66.515,58.903,67.681
	 M77.043,80.627c-1.235-0.312-2.467-0.548-3.695-0.747c0-0.158-0.038-0.318-0.151-0.476c-1.525-2.06-3.739-3.6-5.698-5.235
	c-0.973-0.813-1.937-1.638-2.904-2.457C69.465,73.269,73.626,76.479,77.043,80.627 M58.629,70.626
	c0.091,0.019,0.17,0.057,0.274,0.063c0.828,0.032,1.638,0.126,2.435,0.249c1.594,1.537,3.191,3.071,4.769,4.624
	c1.317,1.292,2.602,2.734,4.041,3.934c-1.364-0.11-2.725-0.173-4.067-0.139c-1.61-1.824-3.676-3.254-5.566-4.772
	c-1.518-1.222-3.049-2.429-4.58-3.635C56.814,70.812,57.712,70.705,58.629,70.626 M53.992,71.322c1.818,1.666,3.657,3.311,5.5,4.949
	c1.203,1.071,2.388,2.24,3.66,3.273c-1.49,0.164-2.958,0.422-4.394,0.781c-1.578-1.323-3.37-2.463-4.98-3.657
	c-1.714-1.269-3.437-2.526-5.157-3.789C50.322,72.232,52.117,71.716,53.992,71.322 M46.81,73.631
	c1.915,1.537,3.834,3.074,5.761,4.602c1.159,0.92,2.318,1.944,3.519,2.895c-1.131,0.394-2.249,0.832-3.333,1.361
	c-2.586-2.863-6.571-5.024-10.096-6.653C43.972,75.011,45.361,74.28,46.81,73.631 M41.407,76.686
	c1.858,1.068,3.673,2.211,5.386,3.496c1.367,1.024,2.611,2.265,3.931,3.37c-0.898,0.532-1.783,1.084-2.633,1.72
	c-1.462-1.074-3.115-1.934-4.659-2.854c-1.764-1.055-3.534-2.107-5.301-3.159C39.158,78.331,40.264,77.487,41.407,76.686
	 M37.105,80.271c2.967,2.142,6.017,4.649,9.248,6.41c-1.068,0.936-2.095,1.95-3.059,3.074c-1.414-1.279-3.263-2.057-4.93-2.958
	c-1.581-0.86-3.153-1.739-4.741-2.586C34.676,82.794,35.86,81.5,37.105,80.271 M32.726,85.453c1.562,0.986,3.15,1.94,4.722,2.911
	c1.543,0.954,3.074,2.107,4.794,2.725c-0.797,1.033-1.566,2.111-2.274,3.285c-1.487-1.071-3.191-1.855-4.801-2.722
	c-1.553-0.832-3.103-1.666-4.653-2.501C31.186,87.869,31.923,86.634,32.726,85.453 M29.96,90.285
	c1.465,0.917,2.933,1.833,4.397,2.75c1.556,0.973,3.087,2.07,4.763,2.832c-0.485,0.917-0.939,1.84-1.339,2.775
	c-1.329-0.98-2.999-1.578-4.464-2.284c-1.647-0.791-3.298-1.584-4.946-2.375C28.839,92.707,29.381,91.482,29.96,90.285
	 M27.815,95.649c1.499,0.816,2.996,1.629,4.492,2.441c1.503,0.819,3.071,1.912,4.747,2.388c-0.441,1.206-0.832,2.419-1.137,3.645
	c-0.054-0.069-0.085-0.154-0.17-0.198c-1.528-0.772-3.207-1.203-4.791-1.846c-1.493-0.605-2.923-1.329-4.325-2.111
	C26.952,98.488,27.365,97.054,27.815,95.649 M26.407,101.143c2.687,1.893,5.793,3.723,8.968,4.152
	c0.12,0.016,0.205-0.044,0.296-0.085c-0.356,1.629-0.611,3.27-0.753,4.92c-2.926-1.474-6.212-2.514-9.27-3.651
	C25.802,104.655,26.073,102.885,26.407,101.143 M25.566,107.931c2.996,1.446,6.083,3.09,9.229,4.089
	c-0.06,1.55-0.054,3.106,0.054,4.656c-3.03-1.663-6.25-2.999-9.318-4.631C25.478,110.672,25.5,109.298,25.566,107.931
	 M25.629,113.715c2.93,1.972,6.092,3.915,9.378,4.879c0.148,1.326,0.337,2.646,0.595,3.96c-2.911-1.503-6.12-2.624-9.107-3.897
	c-0.088-0.038-0.17-0.013-0.252-0.006C25.944,117.025,25.752,115.372,25.629,113.715 M26.492,119.851
	c3.112,1.591,6.253,3.434,9.526,4.63c0.504,2.111,1.134,4.202,1.893,6.25c-1.54-1.455-3.83-2.189-5.733-3.087
	c-1.314-0.621-2.643-1.21-3.969-1.805C27.491,123.911,26.927,121.902,26.492,119.851 M35.029,137.176l0.139,0.079
	c1.89,1.118,3.868,2.633,6.048,3.049c0.592,0.113,1.052-0.567,0.605-1.039c-1.537-1.603-3.865-2.432-5.834-3.411
	c-1.153-0.576-2.309-1.15-3.465-1.726c-1.427-1.991-2.618-4.177-3.61-6.486c0.816,0.469,1.625,0.948,2.447,1.402
	c1.877,1.036,3.875,2.548,6.001,2.907c0.391,0.066,0.715-0.192,0.81-0.517c1.66,4.319,3.83,8.458,6.388,12.26
	C40.825,142.238,37.662,139.976,35.029,137.176 M77.954,140.209c-6.505,4.045-15.892,5.418-23.379,5.361
	c-2.737-0.022-5.27-0.403-7.617-1.065c-6.713-13.12-12.465-28.054-7.094-42.714C46.52,83.626,63.47,79.94,80.219,85.053
	c5.544,8.864,8.436,20.141,8.549,28.766C88.891,123.332,86.641,134.81,77.954,140.209"/>
</svg>
