<?xml version="1.0" encoding="utf-8"?>
<!-- Generator: Adobe Illustrator 17.0.0, SVG Export Plug-In . SVG Version: 6.00 Build 0)  -->
<!DOCTYPE svg PUBLIC "-//W3C//DTD SVG 1.1//EN" "http://www.w3.org/Graphics/SVG/1.1/DTD/svg11.dtd">
<svg version="1.1" id="Слой_1" xmlns="http://www.w3.org/2000/svg" xmlns:xlink="http://www.w3.org/1999/xlink" x="0px" y="0px"
	 width="111.437px" height="181px" viewBox="0 0 111.437 181" enable-background="new 0 0 111.437 181" xml:space="preserve">
<path fill="#B17169" d="M108.779,120.296c-4.719-12.131-13.721-20.51-24.422-26.523c23.171-10.367,32.092-38.282,22.768-61.29
	C97.042,7.599,70.702-4.705,44.894,0.196C24.069,0.606,3.619,9.703,1.988,29.686C0.022,34.371-0.8,40.132,0.989,44.649
	c0.157,0.397,0.542,0.677,0.951,0.791c0.104,0.403,0.416,0.731,0.939,0.819c1.638,1.499,3.251,3.027,4.81,4.612
	c1.405,1.427,2.753,3.582,4.678,4.265c0.009,0.003,0.016,0.006,0.025,0.013c0.016,0.003,0.028,0.013,0.041,0.016
	c0.019,0.006,0.035-0.003,0.05,0.003c0.079,0.022,0.154,0.05,0.246,0.05c9.056,0.117,19.332,1.137,28.243-0.391
	c1.074-0.183,1.251-1.55,0.658-2.277c3.783-6.757,9.702-13.671,18.094-12.345c0.633,0.101,1.197-0.17,1.537-0.592
	c0.759,1.865,1.213,3.808,1.273,5.686c0.454,13.589-12.912,20.069-24.592,20.031c-0.819-0.003-1.339,0.416-1.61,0.961
	c-0.4-0.74-1.632-0.318-1.736,0.539c-1.462,12.14-1.134,25.291-0.532,37.501c0.044,0.926,0.639,1.424,1.307,1.55
	c0.113,0.066,0.236,0.117,0.378,0.129c7.969,0.649,16.978,3.777,20.941,11.346c3.897,7.437,0.009,14.937-7.242,17.854
	c-0.063-0.369-0.258-0.734-0.643-1.011c-3.207-2.334-4.212-4.366-4.996-8.24c-0.573-2.822-1.213-5.632-1.934-8.423
	c0.35-0.328,0.491-0.847,0.211-1.392c-0.945-1.836-3.285-2.829-4.977-3.912c-2.051-1.314-4.064-2.734-6.202-3.9
	c-0.192-0.104-0.391-0.117-0.573-0.085c-0.265-0.189-0.58-0.328-0.986-0.343c-8.744-0.343-17.498-0.239-26.249-0.12
	c-1.128,0.016-1.266,1.364-0.517,1.868c-4.19,11.85-1.818,25.146,4.785,35.759c10.553,32.426,63.633,46.418,88.531,22.822
	C108.924,155.888,115.454,137.464,108.779,120.296 M107.239,127.759c-1.499-1.197-3.065-2.328-4.539-3.534
	c-2.362-1.931-4.653-3.941-6.933-5.966c-0.227-0.198-0.476-0.249-0.706-0.211c-0.41-1.251-0.873-2.504-1.358-3.755
	c3.909,2.907,7.944,5.736,12.121,8.159C106.435,124.212,106.908,125.985,107.239,127.759 M101.726,114.16
	c1.043,1.663,2.019,3.377,2.848,5.204c-3.915-2.974-8.08-5.698-12.225-8.3c-0.895-1.994-1.925-3.934-3.021-5.831
	c2.139,1.591,4.278,3.178,6.417,4.769C97.647,111.416,99.562,113.127,101.726,114.16 M98.179,109.199
	c-0.482-0.315-0.961-0.627-1.414-0.945c-2.495-1.755-4.99-3.509-7.484-5.267c-0.463-0.324-0.898-0.123-1.125,0.243
	c-1.575-2.476-3.336-4.801-5.295-6.883C88.644,99.843,93.927,104.071,98.179,109.199 M82.647,92.828
	c-3.695-1.959-7.566-3.654-11.523-5.134c1.024-0.387,2.01-0.832,2.974-1.301c3.096,2.079,6.621,4.438,10.187,5.15
	c-0.428,0.284-0.835,0.589-1.273,0.863C82.823,92.526,82.716,92.674,82.647,92.828 M85.201,90.919
	c0.022-0.236-0.038-0.485-0.296-0.658c-1.726-1.181-3.821-1.868-5.711-2.756c-1.241-0.583-2.457-1.213-3.66-1.862
	c1.21-0.658,2.353-1.399,3.465-2.183c0.069,0.072,0.142,0.148,0.249,0.205c1.723,0.932,3.43,1.906,5.09,2.945
	c1.188,0.74,2.331,1.591,3.541,2.309C87.006,89.603,86.121,90.28,85.201,90.919 M89.617,87.48c-2.492-2.287-5.919-3.878-8.952-5.267
	c1.392-1.106,2.69-2.322,3.912-3.607c2.744,1.969,5.919,3.982,9.088,5.021C92.383,84.966,91.048,86.264,89.617,87.48 M95.02,82.188
	c-1.632-1.169-3.512-1.956-5.276-2.904c-1.288-0.696-2.545-1.44-3.812-2.173c0.898-1.049,1.736-2.151,2.526-3.289
	c2.555,2.281,5.563,4.662,8.678,5.828C96.459,80.515,95.757,81.362,95.02,82.188 M98.453,77.885c-1.54-0.973-3.244-1.71-4.813-2.64
	c-1.474-0.876-2.895-1.843-4.293-2.838c0.816-1.273,1.547-2.605,2.23-3.966c2.797,2.186,5.953,4.571,9.211,5.865
	C100.057,75.525,99.288,76.725,98.453,77.885 M101.839,72.47c-1.562-1.024-3.333-1.805-4.93-2.744
	c-1.559-0.917-3.071-1.906-4.58-2.895c0.734-1.603,1.351-3.267,1.909-4.955c1.484,1.292,2.992,2.548,4.558,3.736
	c1.487,1.134,3.062,2.441,4.797,3.267C103.055,70.095,102.479,71.295,101.839,72.47 M104.416,66.894
	c-1.251-0.917-2.668-1.654-3.941-2.495c-1.966-1.295-3.856-2.687-5.702-4.142c0.432-1.462,0.775-2.952,1.077-4.454
	c3.118,2.47,6.439,5.166,9.998,6.706C105.437,63.993,104.974,65.458,104.416,66.894 M106.366,60.465
	c-3.131-2.438-6.779-4.372-10.152-6.514c0.328-1.988,0.532-3.997,0.633-6.017c1.877,1.288,3.755,2.574,5.629,3.862
	c1.572,1.077,3.109,2.281,4.785,3.204C107.068,56.846,106.779,58.67,106.366,60.465 M107.418,52.776
	c-1.317-0.888-2.725-1.663-4.063-2.482c-2.151-1.314-4.306-2.627-6.457-3.941c0.038-1.83-0.047-3.657-0.198-5.478
	c3.304,2.813,6.899,5.642,10.716,7.516C107.484,49.862,107.494,51.324,107.418,52.776 M107.172,45.572
	c-3.497-2.425-7.226-4.59-10.735-7.012c-0.261-2.022-0.668-4.019-1.169-5.985c3.282,3.134,7.043,5.96,11.075,8.058
	C106.713,42.283,106.99,43.931,107.172,45.572 M105.163,36.349c0.214,0.643,0.403,1.285,0.586,1.928
	c-3.248-2.233-6.505-4.445-9.696-6.769c-0.384-0.283-0.816-0.003-0.951,0.372c-0.384-1.427-0.854-2.829-1.367-4.212
	c3.364,2.038,6.76,4.199,10.348,5.774C104.467,34.389,104.832,35.356,105.163,36.349 M99.033,25.321
	c0.239,0.173,0.517,0.157,0.756,0.044c1.008,1.534,1.959,3.125,2.797,4.807c-3.087-1.792-6.429-3.285-9.535-4.901
	c-0.11-0.057-0.221-0.085-0.328-0.095c-0.964-2.192-2.12-4.293-3.437-6.297C92.922,20.523,95.744,22.939,99.033,25.321
	 M95.697,20.079c-2.403-1.537-5.134-2.668-7.695-3.465c-0.139-0.041-0.261-0.044-0.375-0.028c-0.605-0.788-1.238-1.559-1.896-2.315
	c0.948,0.315,1.89,0.639,2.851,0.901c0.661,0.18,1.058-0.265,1.106-0.769C91.835,16.123,93.857,18,95.697,20.079 M87.712,12.894
	c-1.707-0.627-3.434-1.203-5.172-1.751c-2.375-2.01-5.179-3.771-8.316-5.248C79.065,7.573,83.607,9.93,87.712,12.894 M13.769,53.157
	c-0.772-1.723-2.759-3.04-4.123-4.246c-1.005-0.891-2.06-1.729-3.093-2.589c1.411,0.013,2.829,0.022,4.243,0.032
	c1.937,2.151,4.186,4.413,6.596,6.212C16.159,52.757,14.944,52.952,13.769,53.157 M20.037,52.174
	c-1.2-1.159-2.542-2.221-3.783-3.292c-0.958-0.822-1.887-1.676-2.816-2.526c0.92,0,1.836-0.009,2.756-0.016
	c1.452,1.499,2.901,2.996,4.413,4.432c0.391,0.375,0.788,0.775,1.194,1.178C21.212,52.023,20.62,52.096,20.037,52.174
	 M24.438,51.661c-0.98-0.822-2.035-1.581-2.936-2.362c-1.112-0.967-2.174-1.984-3.257-2.98c1.436-0.022,2.87-0.069,4.3-0.12
	c1.506,1.777,3.04,3.604,4.69,5.251C26.302,51.51,25.367,51.57,24.438,51.661 M29.988,51.327c-1.581-1.862-3.449-3.566-5.327-5.216
	c0.825-0.038,1.644-0.101,2.466-0.151c1.206,1.08,2.381,2.196,3.509,3.367c0.602,0.624,1.169,1.304,1.745,1.972
	C31.588,51.295,30.788,51.305,29.988,51.327 M35.154,51.396c-0.992-1.307-2.353-2.444-3.544-3.478
	c-0.841-0.731-1.726-1.414-2.63-2.073c0.123-0.009,0.249-0.013,0.372-0.022c0.602-0.05,0.992-0.353,1.216-0.737
	c1.04,1.314,2.076,2.627,3.175,3.89c0.709,0.816,1.424,1.685,2.199,2.485C35.677,51.44,35.419,51.412,35.154,51.396 M39.328,51.847
	c-0.06-0.009-0.12-0.016-0.18-0.025c-1.021-1.638-2.596-2.939-3.919-4.331c-1.077-1.131-2.11-2.299-3.147-3.468
	c0.072-0.107,0.145-0.214,0.195-0.362c0.271-0.835,0.58-1.685,0.923-2.533c1.197,1.26,2.394,2.52,3.591,3.78
	c1.178,1.238,2.337,2.709,3.704,3.796C40.024,49.717,39.624,50.766,39.328,51.847 M41.448,46.873
	c-1.024-1.169-2.299-2.189-3.383-3.238c-1.395-1.351-2.791-2.7-4.186-4.051c0.649-1.392,1.411-2.753,2.287-4.013
	c1.254,1.427,2.507,2.854,3.764,4.284c1.121,1.276,2.265,3.005,3.761,3.89C42.865,44.731,42.097,45.767,41.448,46.873 M44.847,42.46
	c-0.81-1.436-2.196-2.561-3.342-3.72c-1.458-1.474-2.917-2.948-4.375-4.423c0.74-0.913,1.562-1.739,2.454-2.47
	c1.424,1.903,2.87,3.786,4.41,5.598c0.841,0.989,1.704,2.277,2.725,3.276C46.072,41.272,45.442,41.845,44.847,42.46 M48.633,39.25
	c-0.895-1.071-2.088-2.01-2.977-2.948c-1.66-1.748-3.314-3.509-4.93-5.298c1.162-0.775,2.454-1.345,3.862-1.701
	c1.153,1.455,2.347,2.879,3.528,4.309c1.087,1.31,2.139,2.74,3.355,3.966C50.447,38.091,49.48,38.67,48.633,39.25 M53.796,36.61
	c-1.093-1.553-2.555-2.904-3.849-4.262c-1.08-1.128-2.155-2.265-3.241-3.386c0.148-0.013,0.287-0.044,0.438-0.047
	c1.14-0.041,2.243,0.12,3.314,0.4c1.629,2.334,3.396,4.675,5.289,6.848C55.097,36.257,54.445,36.396,53.796,36.61 M58.291,36.182
	c-1.241-1.78-2.592-3.519-4.013-5.191c2.205,1.408,4.101,3.424,5.516,5.72C59.318,36.453,58.81,36.289,58.291,36.182 M43.3,135.045
	c0.463,0.498,0.97,0.923,1.55,1.232c-4.971,0.271-8.681-2.64-10.886-6.76C37.047,131.406,40.087,133.501,43.3,135.045
	 M41.416,131.942c-2.649-1.591-5.547-2.901-8.288-4.205c-0.699-1.742-1.162-3.629-1.361-5.544c2.533,2.098,5.443,4.221,8.429,5.572
	C40.496,129.249,40.893,130.672,41.416,131.942 M39.803,125.428c-1.021-0.542-2.054-1.062-3.046-1.638
	c-1.729-1.005-3.386-2.114-5.065-3.197c0.003-0.92,0.063-1.855,0.154-2.81c2.448,1.846,4.993,4.004,7.702,5.443
	C39.614,123.953,39.703,124.69,39.803,125.428 M35.466,114.358c1.14,0.914,2.381,2.208,3.755,2.958
	c0.028,0.939,0.066,2.035,0.129,3.207c-0.728-0.441-1.471-0.86-2.186-1.285c-1.72-1.027-3.446-2.051-5.169-3.074
	c0.135-1.729,0.142-3.437-0.476-4.971C32.823,112.267,34.155,113.31,35.466,114.358 M4.659,110.046c0.006-0.028-0.003-0.047,0-0.076
	c7.677,0.661,15.359,1.282,23.058,1.584c0.035,0.072,0.035,0.142,0.079,0.217c1.181,2.007-0.054,5.22-0.123,7.377
	c-0.079,2.441,0.05,4.952,0.583,7.346c0.986,4.454,3.33,8.603,7.043,11.334c6.549,4.813,15.473,3.134,21.543-1.811
	c6.883-5.61,7.302-15.451,2.422-22.541c-4.971-7.217-13.463-10.14-21.858-9.422c0.945-11.416,1.106-23.984-0.655-35.412
	c0.299,0.271,0.68,0.479,1.191,0.504c16.799,0.929,34.83-14.118,26.57-31.966c-8.496-18.346-31.541-13.444-34.581,5.412
	c-0.11,0.072-0.205,0.167-0.28,0.284c-0.098-0.032-0.186-0.069-0.299-0.082c-8.533-0.756-17.448-0.107-25.95,0.914
	c0.299-2.545,0.101-5.128,0.315-7.692c0.189-2.255,0.463-4.514,0.734-6.769C10.269,13.716,23.732,6.021,40.389,4.212
	c14.512-1.578,30.284-0.091,41.038,10.839c21.767,22.126,12.899,66.251-19.905,71.414c-0.145,0.022-0.246,0.091-0.362,0.145
	c-0.236,0.006-0.463,0.003-0.699,0.016c-1.052,0.057-1.433,1.764-0.265,1.953c0.05,0.009,0.098,0.022,0.151,0.032
	c0.18,0.762,0.74,1.417,1.641,1.317c0.816-0.088,1.603-0.23,2.391-0.369c15.101,4.445,23.896,18.604,27.925,33.551
	c2.296,8.514,3.185,19.076-2.107,26.788c-5.727,8.344-16.175,10.782-25.587,11.812c-15.593,1.71-33.176,1.543-45.82-9.069
	C6.152,142.034,2.139,125.853,4.659,110.046 M17.665,156.975c0.154,0.12,0.296,0.252,0.45,0.372
	c2.841,2.167,6.013,3.922,9.406,5.314c1.408,1.616,2.816,3.232,4.224,4.848c0.117,0.132,0.236,0.29,0.353,0.432
	C26.718,164.922,21.801,161.212,17.665,156.975 M36.534,170.227c-0.904-1.446-2.501-2.696-3.645-3.865
	c-0.876-0.898-1.755-1.796-2.63-2.693c1.487,0.513,3.011,0.945,4.561,1.332c-0.198,0.211-0.252,0.523,0.038,0.762
	c2.514,2.073,4.741,4.341,6.939,6.646C40.018,171.748,38.254,171.033,36.534,170.227 M45.918,173.802
	c-2.936-3.078-6.382-5.843-9.67-8.455c2.416,0.545,4.898,0.901,7.399,1.175c1.496,2.073,3.109,4.048,4.895,5.878
	c0.813,0.832,1.739,1.871,2.753,2.763C49.49,174.782,47.694,174.334,45.918,173.802 M55.131,175.862
	c-0.009-0.016-0.003-0.031-0.013-0.047c-1.15-1.821-3.415-3.043-4.983-4.523c-1.49-1.408-2.857-2.933-4.155-4.517
	c1.89,0.148,3.793,0.205,5.692,0.217c1.644,1.836,3.311,3.648,5.002,5.44c1.156,1.222,2.328,2.763,3.67,3.963
	C58.609,176.294,56.867,176.117,55.131,175.862 M63.318,176.48c-1.131-2.145-3.512-3.799-5.257-5.434
	c-1.462-1.367-2.948-2.706-4.435-4.045c1.833-0.028,3.66-0.126,5.472-0.268c1.477,1.852,2.961,3.701,4.429,5.557
	c1.046,1.32,2.06,2.829,3.267,4.076C65.64,176.436,64.484,176.483,63.318,176.48 M69.089,176.149
	c-1.068-1.906-2.87-3.528-4.315-5.103c-1.361-1.484-2.712-2.977-4.067-4.467c1.764-0.17,3.5-0.4,5.216-0.661
	c1.748,2.054,3.446,4.161,4.999,6.366c0.706,0.999,1.332,2.196,2.07,3.267C71.7,175.796,70.402,176.007,69.089,176.149
	 M75.644,174.974c-0.747-1.562-2.07-2.974-3.087-4.275c-1.411-1.808-2.929-3.493-4.533-5.119c1.739-0.306,3.427-0.668,5.084-1.058
	c2.151,3.049,4.451,6.517,7.308,8.946C78.857,174.06,77.266,174.564,75.644,174.974 M82.599,172.567
	c-1.125-1.657-2.589-3.081-3.922-4.568c-1.172-1.31-2.284-2.668-3.396-4.026c0.28-0.076,0.58-0.139,0.86-0.217
	c1.937-0.545,3.701-1.241,5.371-2.016c0.608,1.562,1.367,3.065,2.255,4.495c0.81,1.298,1.805,2.992,3.059,4.12
	C85.453,171.175,84.048,171.925,82.599,172.567 M92.04,166.645c-1.002,0.851-2.044,1.619-3.103,2.35
	c-0.967-1.471-2.438-2.759-3.405-4.208c-0.844-1.263-1.534-2.605-2.183-3.969c1.298-0.712,2.479-1.515,3.6-2.362
	c1.002,1.625,2.066,3.207,3.238,4.716c0.734,0.945,1.534,2.035,2.463,2.917C92.443,166.27,92.251,166.466,92.04,166.645
	 M94.352,164.538c-0.8-0.92-1.748-1.761-2.523-2.633c-1.273-1.436-2.438-2.955-3.541-4.523c1.096-0.945,2.088-1.962,2.992-3.04
	c0.873,1.058,1.748,2.117,2.621,3.175c1.084,1.314,2.092,2.763,3.471,3.78C96.415,162.412,95.42,163.502,94.352,164.538
	 M98.535,159.93c-0.81-1.436-2.101-2.633-3.2-3.843c-0.973-1.071-1.944-2.145-2.917-3.216c1.058-1.455,1.909-3.033,2.659-4.671
	c1.673,2.781,3.915,5.661,6.511,7.412C100.658,157.101,99.641,158.544,98.535,159.93 M102.819,153.5
	c-0.967-0.958-2.003-1.855-2.936-2.844c-1.427-1.515-2.63-3.178-3.808-4.876c0.652-1.846,1.115-3.786,1.427-5.787
	c1.21,1.118,2.403,2.249,3.537,3.44c1.405,1.471,2.693,3.251,4.372,4.416C104.69,149.783,103.827,151.673,102.819,153.5
	 M106.136,145.739c-0.967-1.556-2.444-2.923-3.717-4.142c-1.468-1.405-3.011-2.706-4.624-3.941c0.22-2.463,0.18-5.018-0.079-7.623
	c1.298,1.2,2.592,2.4,3.84,3.654c1.818,1.824,3.481,4.152,5.657,5.538c0.117,0.076,0.233,0.069,0.346,0.076
	C107.27,141.48,106.794,143.631,106.136,145.739 M107.736,137.407c-1.367-2.007-3.496-3.676-5.264-5.242
	c-1.619-1.43-3.282-2.819-4.999-4.139c-0.211-1.471-0.469-2.955-0.825-4.454c-0.214-0.888-0.466-1.792-0.721-2.696
	c3.55,3.616,7.469,7.456,11.772,10.052C107.903,133.098,107.913,135.262,107.736,137.407"/>
</svg>
